<svg width="216" height="215" viewBox="0 0 216 215" fill="none" xmlns="http://www.w3.org/2000/svg">
<path d="M202.991 92.8809C202.991 92.8809 207.846 131.052 183.229 161.415C158.612 191.778 119.27 200.656 87.5735 208.745C55.8771 216.834 28.0808 201.066 19.5878 171.311C11.0949 141.556 34.2047 128.259 42.0609 91.2559C49.9171 54.2527 46.9347 43.0692 71.7487 16.7615C96.5627 -9.54617 142.609 -4.25037 171.417 28.1838C200.224 60.6181 202.991 92.8809 202.991 92.8809Z" fill="#DD4D32"/>
<path opacity="0.8" d="M202.991 92.8809C202.991 92.8809 207.846 131.052 183.229 161.415C158.612 191.778 119.27 200.656 87.5735 208.745C55.8771 216.834 28.0808 201.066 19.5878 171.311C11.0949 141.556 34.2047 128.259 42.0609 91.2559C49.9171 54.2527 46.9347 43.0692 71.7487 16.7615C96.5627 -9.54617 142.609 -4.25037 171.417 28.1838C200.224 60.6181 202.991 92.8809 202.991 92.8809Z" fill="white"/>
<path d="M12.2106 165.423H209.436" stroke="#263238" stroke-width="1.01837" stroke-miterlimit="10"/>
<path d="M12.2106 124.019H209.436" stroke="#263238" stroke-width="1.01837" stroke-miterlimit="10"/>
<path d="M12.2106 82.6099H209.436" stroke="#263238" stroke-width="1.01837" stroke-miterlimit="10"/>
<path d="M12.2106 41.2002H209.436" stroke="#263238" stroke-width="1.01837" stroke-miterlimit="10"/>
<path d="M57.0531 17.6875V165.526" stroke="#263238" stroke-width="1.01837" stroke-miterlimit="10"/>
<path d="M175.599 17.6875V165.526" stroke="#263238" stroke-width="1.01837" stroke-miterlimit="10"/>
<path d="M61.4522 72.4893L59.9891 74.204" stroke="#263238" stroke-width="1.01837" stroke-miterlimit="10"/>
<path d="M86.4521 43.252L63.2235 70.4222" stroke="#263238" stroke-width="1.01837" stroke-miterlimit="10"/>
<path d="M87.9006 47.6743L74.8501 62.5482" stroke="#263238" stroke-width="1.01837" stroke-miterlimit="10"/>
<path d="M180.668 72.4893L179.205 74.204" stroke="#263238" stroke-width="1.01837" stroke-miterlimit="10"/>
<path d="M205.668 43.252L182.44 70.4222" stroke="#263238" stroke-width="1.01837" stroke-miterlimit="10"/>
<path d="M207.117 47.6743L194.066 62.5482" stroke="#263238" stroke-width="1.01837" stroke-miterlimit="10"/>
<path d="M9.25009 156.111L7.78699 157.826" stroke="#263238" stroke-width="1.01837" stroke-miterlimit="10"/>
<path d="M34.2501 126.868L11.0214 154.043" stroke="#263238" stroke-width="1.01837" stroke-miterlimit="10"/>
<path d="M35.6986 131.29L22.6481 146.164" stroke="#263238" stroke-width="1.01837" stroke-miterlimit="10"/>
<path d="M28.4663 37.1143L26.9983 38.829" stroke="#263238" stroke-width="1.01837" stroke-miterlimit="10"/>
<path d="M53.4614 7.87109L30.2327 35.0413" stroke="#263238" stroke-width="1.01837" stroke-miterlimit="10"/>
<path d="M54.9147 12.2935L41.8642 27.1673" stroke="#263238" stroke-width="1.01837" stroke-miterlimit="10"/>
<path d="M137.098 37.1143L135.63 38.829" stroke="#263238" stroke-width="1.01837" stroke-miterlimit="10"/>
<path d="M162.093 7.87109L138.865 35.0413" stroke="#263238" stroke-width="1.01837" stroke-miterlimit="10"/>
<path d="M163.547 12.2935L150.496 27.1673" stroke="#263238" stroke-width="1.01837" stroke-miterlimit="10"/>
<path d="M103.505 115.505L102.042 117.22" stroke="#263238" stroke-width="1.01837" stroke-miterlimit="10"/>
<path d="M128.505 86.2671L105.277 113.437" stroke="#263238" stroke-width="1.01837" stroke-miterlimit="10"/>
<path d="M129.954 90.6895L116.903 105.563" stroke="#263238" stroke-width="1.01837" stroke-miterlimit="10"/>
<path d="M89.9999 59.7368H117.373C119.774 59.7368 122.077 60.7945 123.774 62.6772C125.472 64.5598 126.426 67.1133 126.426 69.7757V157.418H80.9472V69.7703C80.9485 67.1088 81.9028 64.5567 83.6004 62.6752C85.298 60.7937 87.5998 59.7368 89.9999 59.7368Z" fill="#263238" stroke="#263238" stroke-width="1.01837" stroke-linecap="round" stroke-linejoin="round"/>
<path d="M131.789 208.703L107.767 200.868V192.147H106.412V159.952H102.145V192.147H100.79V200.634L76.7682 208.703V209.979H77.0912C76.9059 210.354 76.8099 210.777 76.8123 211.205C76.8108 211.655 76.9151 212.098 77.1148 212.49C77.3146 212.882 77.6029 213.21 77.9515 213.441C78.3001 213.672 78.6969 213.798 79.1029 213.808C79.5089 213.817 79.9101 213.709 80.267 213.494C80.6239 213.279 80.9243 212.965 81.1385 212.583C81.3526 212.2 81.4733 211.762 81.4886 211.312C81.5039 210.862 81.4133 210.415 81.2257 210.016C81.0381 209.617 80.76 209.278 80.4187 209.034L80.4676 208.98L102.488 206.044V209.561C102.206 209.94 102.027 210.401 101.972 210.889C101.917 211.377 101.989 211.872 102.178 212.317C102.367 212.761 102.667 213.137 103.041 213.4C103.416 213.664 103.85 213.803 104.293 213.803C104.737 213.803 105.171 213.664 105.545 213.4C105.92 213.137 106.219 212.761 106.408 212.317C106.598 211.872 106.669 211.377 106.614 210.889C106.559 210.401 106.381 209.94 106.099 209.561V206.044L128.07 208.975C127.675 209.233 127.357 209.614 127.156 210.071C126.955 210.528 126.879 211.041 126.938 211.545C126.997 212.049 127.189 212.523 127.489 212.907C127.79 213.292 128.185 213.57 128.627 213.707C129.068 213.844 129.536 213.834 129.973 213.679C130.41 213.523 130.795 213.229 131.082 212.832C131.369 212.435 131.545 211.954 131.587 211.448C131.629 210.941 131.536 210.432 131.319 209.984H131.808L131.789 208.703Z" fill="#263238" stroke="#263238" stroke-width="1.01837" stroke-linecap="round" stroke-linejoin="round"/>
<path d="M125.016 157.364H83.198C81.2306 157.364 79.6357 159.132 79.6357 161.314V165.292C79.6357 167.474 81.2306 169.242 83.198 169.242H125.016C126.984 169.242 128.579 167.474 128.579 165.292V161.314C128.579 159.132 126.984 157.364 125.016 157.364Z" fill="white" stroke="#263238" stroke-width="1.01837" stroke-linecap="round" stroke-linejoin="round"/>
<path d="M121.513 138.1H87.5189V159.062H121.513V138.1Z" fill="white" stroke="#263238" stroke-width="1.01837" stroke-linecap="round" stroke-linejoin="round"/>
<path d="M101.401 77.769L96.1948 80.0319C96.1948 80.0319 98.0787 93.0065 100.599 99.7027C103.119 106.399 112.299 117.029 112.299 117.029C112.299 117.029 117.055 109.329 118.714 103.219C120.373 97.1089 118.64 79.945 118.64 79.945C117.453 79.1787 116.147 78.667 114.789 78.4365C112.426 78.0187 101.401 77.769 101.401 77.769Z" fill="white" stroke="#263238" stroke-width="1.01837" stroke-linecap="round" stroke-linejoin="round"/>
<path d="M106.461 86.8959L108.868 92.0239L104.875 101.797L111.291 112.509L115.215 102.714L110.459 91.834L112.949 87.0587L109.402 83.1245L106.461 86.8959Z" fill="#263238" stroke="#263238" stroke-width="1.01837" stroke-linecap="round" stroke-linejoin="round"/>
<path d="M102.16 77.1826L100.496 77.6873L98.9106 80.7804L102.825 93.0875L109.245 85.7238L116.262 93.6736C116.262 93.6736 117.094 81.285 117.094 79.8633C117.094 78.4416 115.964 77.9369 115.137 77.6927C114.31 77.4485 102.16 77.1826 102.16 77.1826Z" fill="white" stroke="#263238" stroke-width="1.01837" stroke-linecap="round" stroke-linejoin="round"/>
<path d="M100.496 77.6875C100.496 77.6875 101.215 88.8171 105.389 98.6119C107.547 103.658 111.579 110.751 111.579 110.501C111.579 110.252 115.577 97.1088 115.729 92.6699C115.881 88.2311 116.634 78.7728 116.634 78.7728C116.634 78.7728 124.375 82.1915 126.225 83.3798C129.093 85.2194 132.714 85.6372 132.64 87.8133C132.611 88.6055 133.1 93.7823 133.722 100.093C133.82 101.097 138.679 109.709 138.781 110.751C139.824 121.262 136.286 125.69 136.11 125.739C135.811 125.82 129.543 125.739 129.543 125.739C129.543 125.739 132.944 142.897 133.457 143.82L133.986 144.737H107.019L105.893 140.971L104.89 144.737H77.1695L80.8688 126.07H76.7927C76.7927 126.07 75.7357 123.725 77.1695 114.935C78.6032 106.144 83.4378 84.1287 83.4378 83.3798C83.4378 82.631 98.9105 79.5271 100.496 77.6875Z" fill="#DD4D32" stroke="#263238" stroke-width="1.01837" stroke-linecap="round" stroke-linejoin="round"/>
<path d="M106.26 121.18L105.893 140.97" stroke="#263238" stroke-width="1.01837" stroke-linecap="round" stroke-linejoin="round"/>
<path d="M116.649 113.681C121.107 109.079 123.069 99.8707 123.069 99.8707L119.066 97.9443L122.917 95.8497L119.59 80.113C117.706 78.3115 116.6 78.3603 116.654 78.7564C116.654 78.7564 115.9 88.2147 115.749 92.6535C115.597 97.0924 111.589 110.252 111.589 110.501C111.589 110.751 107.151 103.848 105.399 98.6118C101.318 86.424 100.535 79.0766 100.418 77.6711C100.416 77.6479 100.41 77.6254 100.398 77.6061C100.386 77.5868 100.37 77.5713 100.351 77.5614C100.332 77.5514 100.311 77.5472 100.29 77.5494C100.269 77.5515 100.249 77.5598 100.232 77.5735C99.6691 77.9425 98.2745 78.2463 97.2958 79.2014C97.0218 81.372 96.6695 84.5193 96.4248 87.9814C95.9746 94.428 95.9746 97.2715 95.9746 97.2715L101.181 98.6986L97.4818 101.043C97.4818 101.043 101.558 105.644 104.954 109.079C108.35 112.514 110.611 113.762 110.611 113.762L106.26 121.18C106.26 121.18 112.196 118.288 116.649 113.681Z" fill="#DD4D32" stroke="#263238" stroke-width="1.01837" stroke-linecap="round" stroke-linejoin="round"/>
<path d="M101.401 71.6587V78.8596C101.401 78.8596 103.065 84.8829 108.952 85.3008C115.142 85.7457 116.199 79.1092 116.199 79.1092V72.744C116.199 72.744 104.738 75.8425 101.401 71.6587Z" fill="white" stroke="#263238" stroke-width="1.01837" stroke-linecap="round" stroke-linejoin="round"/>
<path d="M117.632 61.9453C117.632 61.9453 117.858 58.6895 119.668 58.6895C121.479 58.6895 121.484 62.4554 121.028 63.964C120.573 65.4725 118.234 66.5578 117.481 65.3857" fill="white"/>
<path d="M117.632 61.9453C117.632 61.9453 117.858 58.6895 119.668 58.6895C121.479 58.6895 121.484 62.4554 121.028 63.964C120.573 65.4725 118.234 66.5578 117.481 65.3857" stroke="#263238" stroke-width="1.01837" stroke-linecap="round" stroke-linejoin="round"/>
<path d="M110.121 45.6496C110.121 45.6496 103.452 45.3783 101.147 47.2776C98.8421 49.1768 99.3266 54.2722 99.3266 55.8839C99.3266 57.4956 100.418 71.3493 101.147 73.3679C101.876 75.3865 107.185 78.4579 111.814 77.2749C116.443 76.092 117.877 72.4346 118.117 70.5516C118.357 68.6686 118.362 54.2722 118.117 50.5171C117.872 46.7621 113.39 46.0512 110.121 45.6496Z" fill="white" stroke="#263238" stroke-width="1.01837" stroke-linecap="round" stroke-linejoin="round"/>
<path d="M118.185 51.9877C118.185 51.3908 118.146 50.9024 118.117 50.49C117.877 46.7241 113.39 46.0512 110.116 45.6496C110.116 45.6496 103.447 45.3783 101.142 47.2776C98.8371 49.1768 99.3215 54.2722 99.3215 55.8839C99.3215 56.5296 99.4977 59.1398 99.7571 62.1569C99.8738 62.2299 100.004 62.2716 100.138 62.2789C100.272 62.2861 100.406 62.2586 100.528 62.1985C100.651 62.1385 100.759 62.0475 100.844 61.9329C100.93 61.8182 100.99 61.6831 101.02 61.5383C101.509 60.0568 100.78 58.7165 101.387 56.8335C101.993 54.9506 102.233 53.7405 103.691 52.7963C104.605 52.2154 105.582 51.7651 106.598 51.4559C106.598 51.4559 103.569 55.3521 110.239 55.2165C114.569 55.1079 117.011 54.1095 118.185 51.9877Z" fill="#263238" stroke="#263238" stroke-width="1.01837" stroke-linecap="round" stroke-linejoin="round"/>
<path d="M111.442 58.8525C111.442 58.8525 112.573 64.7945 111.516 65.3643C110.459 65.934 109.784 66.1185 108.873 64.1108" stroke="#263238" stroke-width="1.01837" stroke-linecap="round" stroke-linejoin="round"/>
<path d="M105.556 65.2935C105.556 65.2935 105.326 68.0609 110.385 67.6377" stroke="#263238" stroke-width="1.01837" stroke-linecap="round" stroke-linejoin="round"/>
<path d="M107.141 58.977C107.141 59.5522 106.921 60.0243 106.652 60.0243C106.383 60.0243 106.162 59.5522 106.162 58.977C106.162 58.4018 106.383 57.9297 106.652 57.9297C106.921 57.9297 107.141 58.3964 107.141 58.977Z" fill="#263238"/>
<path d="M114.726 58.977C114.726 59.5522 114.506 60.0243 114.237 60.0243C113.967 60.0243 113.747 59.5522 113.747 58.977C113.747 58.4018 113.967 57.9297 114.237 57.9297C114.506 57.9297 114.726 58.3964 114.726 58.977Z" fill="#263238"/>
<path d="M108.296 61.4458H104.195C103.983 61.4449 103.778 61.3621 103.614 61.2117C103.451 61.0612 103.34 60.8523 103.3 60.621L102.762 57.4248H109.554L109.201 60.5613C109.173 60.8054 109.065 61.0297 108.899 61.1924C108.732 61.3552 108.518 61.4452 108.296 61.4458V61.4458Z" stroke="#263238" stroke-width="2.03674" stroke-linecap="round" stroke-linejoin="round"/>
<path d="M117.055 61.4458H112.955C112.742 61.446 112.536 61.3636 112.372 61.2129C112.209 61.0622 112.098 60.8528 112.059 60.621L111.516 57.4248H118.313L117.951 60.5613C117.922 60.8036 117.816 61.0264 117.652 61.1889C117.487 61.3514 117.275 61.4426 117.055 61.4458V61.4458Z" stroke="#263238" stroke-width="2.03674" stroke-linecap="round" stroke-linejoin="round"/>
<path d="M109.554 57.4248H111.516" stroke="#263238" stroke-width="2.03674" stroke-linecap="round" stroke-linejoin="round"/>
<path d="M102.762 57.4248L99.5173 59.0148" stroke="#263238" stroke-width="2.03674" stroke-linecap="round" stroke-linejoin="round"/>
<path d="M100.271 61.9453C100.271 61.9453 100.046 58.6895 98.2305 58.6895C96.415 58.6895 96.4199 62.4554 96.875 63.964C97.3301 65.4725 99.6642 66.5578 100.423 65.3857" fill="white"/>
<path d="M100.271 61.9453C100.271 61.9453 100.046 58.6895 98.2305 58.6895C96.415 58.6895 96.4199 62.4554 96.875 63.964C97.3301 65.4725 99.6642 66.5578 100.423 65.3857" stroke="#263238" stroke-width="1.01837" stroke-linecap="round" stroke-linejoin="round"/>
<path d="M119.82 103.718C118.799 102.65 117.555 101.88 116.199 101.477C115.76 101.309 115.29 101.268 114.833 101.357C114.227 101.357 111.217 100.153 110.464 99.9031C109.71 99.6535 109.255 100.489 109.485 101.412C109.715 102.334 111.325 103.116 111.932 103.284C112.538 103.452 112.279 103.468 112.279 103.468C112.279 103.468 113.258 106.149 112.808 107.153C112.357 108.157 110.767 110.409 111.296 112.009C111.824 113.61 112.656 114.435 114.315 114.435C115.974 114.435 116.957 114.517 117.334 114.435C117.711 114.354 124.429 118.033 123.695 118.12C122.961 118.206 123.392 110.669 123.392 110.669L119.82 103.718Z" fill="white" stroke="#263238" stroke-width="1.01837" stroke-linecap="round" stroke-linejoin="round"/>
<path d="M104.572 108.157C104.572 108.157 108.12 106.23 109.857 104.304C111.594 102.378 112.196 101.878 112.793 101.71C113.39 101.542 115.812 100.788 116.414 100.202C117.016 99.6155 117.471 100.706 116.566 101.542C115.904 102.139 115.197 102.671 114.452 103.132C114.075 103.387 113.698 104.559 113.698 104.559C113.698 104.559 117.398 102.801 118.68 103.219C119.962 103.636 121.234 104.906 121.156 105.655C121.077 106.404 120.842 106.046 120.011 105.959C119.179 105.872 117.999 105.476 117.075 105.894C116.15 106.312 115.117 107.321 115.117 107.739C115.117 108.157 116.174 108.406 117.006 108.325C117.838 108.244 118.44 107.989 119.267 108.157C120.094 108.325 120.779 108.824 120.852 109.329C120.926 109.834 120.554 109.828 119.644 109.915C118.733 110.002 117.153 110.083 116.624 110.501C116.096 110.919 113.38 112.341 113.835 112.845C114.29 113.35 114.559 113.35 115.465 113.35C116.37 113.35 117.339 112.579 117.867 112.623C118.577 112.682 118.959 112.742 118.959 112.742C118.959 112.742 120.216 112.802 120.104 113.35C119.927 114.229 119.507 114.256 117.681 114.348C116.253 114.424 115.871 114.267 114.589 114.603C113.489 114.996 112.347 115.22 111.193 115.271C109.001 115.439 105.076 114.267 105.076 114.267L104.572 108.157Z" fill="white" stroke="#263238" stroke-width="1.01837" stroke-linecap="round" stroke-linejoin="round"/>
<path d="M118.817 102.693C118.817 102.693 117.29 101.113 116.414 101.065C115.538 101.016 112.866 103.61 112.499 104.581C112.132 105.552 112.989 105.183 113.698 104.945C114.408 104.706 116.321 103.729 116.977 103.431C117.513 103.138 118.125 103.067 118.704 103.23" fill="white"/>
<path d="M118.817 102.693C118.817 102.693 117.29 101.113 116.414 101.065C115.538 101.016 112.866 103.61 112.499 104.581C112.132 105.552 112.989 105.183 113.698 104.945C114.408 104.706 116.321 103.729 116.977 103.431C117.513 103.138 118.125 103.067 118.704 103.23" stroke="#263238" stroke-width="1.01837" stroke-linecap="round" stroke-linejoin="round"/>
<path d="M120.784 106.144C120.784 106.144 118.601 104.934 117.236 105.601C115.871 106.269 114.178 107.604 114.178 108.206C114.178 108.808 114.452 108.694 115.646 108.629C116.84 108.564 118.998 108.179 119.286 108.162C119.719 108.218 120.146 108.314 120.564 108.45" fill="white"/>
<path d="M120.784 106.144C120.784 106.144 118.601 104.934 117.236 105.601C115.871 106.269 114.178 107.604 114.178 108.206C114.178 108.808 114.452 108.694 115.646 108.629C116.84 108.564 118.998 108.179 119.286 108.162C119.719 108.218 120.146 108.314 120.564 108.45" stroke="#263238" stroke-width="1.01837" stroke-linecap="round" stroke-linejoin="round"/>
<path d="M90.1564 98.8666L88.2676 110.083C88.2676 110.083 104.65 106.48 105.252 106.985C105.854 107.489 106.402 120.8 106.402 120.8C106.402 120.8 85.2484 124.897 82.7577 125.82C80.267 126.742 77.698 126.905 76.7928 126.069C75.8875 125.234 75.8141 123.139 76.4894 119.015C77.1646 114.891 83.663 84.9478 83.663 84.9478" fill="#DD4D32"/>
<path d="M90.1564 98.8666L88.2676 110.083C88.2676 110.083 104.65 106.48 105.252 106.985C105.854 107.489 106.402 120.8 106.402 120.8C106.402 120.8 85.2484 124.897 82.7577 125.82C80.267 126.742 77.698 126.905 76.7928 126.069C75.8875 125.234 75.8141 123.139 76.4894 119.015C77.1646 114.891 83.663 84.9478 83.663 84.9478" stroke="#263238" stroke-width="1.01837" stroke-linecap="round" stroke-linejoin="round"/>
<path d="M128.124 98.1128L128.804 110.919L123.367 110.67L122.844 121.284C122.844 121.284 137.827 125.153 138.659 125.625C139.491 126.097 139.339 125.126 140.318 123.53C141.297 121.935 142.133 118.511 142.055 117.019C141.977 115.526 138.884 110.507 138.811 110.74" fill="#DD4D32"/>
<path d="M128.124 98.1128L128.804 110.919L123.367 110.67L122.844 121.284C122.844 121.284 137.827 125.153 138.659 125.625C139.491 126.097 139.339 125.126 140.318 123.53C141.297 121.935 142.133 118.511 142.055 117.019C141.977 115.526 138.884 110.507 138.811 110.74" stroke="#263238" stroke-width="1.01837" stroke-linecap="round" stroke-linejoin="round"/>
<path d="M128.804 110.919H133.864" stroke="#263238" stroke-width="1.01837" stroke-linecap="round" stroke-linejoin="round"/>
<path d="M88.2676 110.083L81.5491 112.677" stroke="#263238" stroke-width="1.01837" stroke-linecap="round" stroke-linejoin="round"/>
<path d="M89.8726 200.84C89.8726 200.84 88.7765 206.066 87.2449 207.895C85.7132 209.723 84.3089 210.933 84.3969 212.388L84.5046 213.847H100.271V209.463C100.271 206.912 99.2922 202.408 99.2922 200.601C99.2922 198.794 89.4371 200.721 89.4371 200.721" fill="#263238"/>
<path d="M89.8726 200.84C89.8726 200.84 88.7765 206.066 87.2449 207.895C85.7132 209.723 84.3089 210.933 84.3969 212.388L84.5046 213.847H100.271V209.463C100.271 206.912 99.2922 202.408 99.2922 200.601C99.2922 198.794 89.4371 200.721 89.4371 200.721" stroke="#263238" stroke-width="1.01837" stroke-linecap="round" stroke-linejoin="round"/>
<path d="M84.7738 210.923C84.506 211.348 84.3734 211.86 84.397 212.378L84.5046 213.837H100.271V210.923H84.7738Z" fill="#586166" stroke="#263238" stroke-width="1.01837" stroke-linecap="round" stroke-linejoin="round"/>
<path d="M103.559 154.46C103.559 154.46 105.091 143.656 102.463 138.68C99.8354 133.704 90.6359 133.58 85.4931 136.976C80.3502 140.373 78.3488 145.946 80.2083 153.109C82.0677 160.272 86.369 160.413 86.369 160.413C86.369 160.413 85.2729 170.246 85.2729 174.131C85.2729 178.017 88.9967 202.181 88.9967 202.181H99.8452C99.8452 202.181 103.339 159.561 103.559 154.46Z" fill="#586166" stroke="#263238" stroke-width="1.01837" stroke-linecap="round" stroke-linejoin="round"/>
<path d="M86.3691 160.414L87.4603 150.456" stroke="#263238" stroke-width="1.01837" stroke-linecap="round" stroke-linejoin="round"/>
<path d="M121.743 200.84C121.743 200.84 122.839 206.066 124.371 207.895C125.902 209.723 127.307 210.933 127.219 212.388L127.111 213.847H111.345V209.463C111.345 206.912 112.323 202.408 112.323 200.601C112.323 198.794 122.178 200.721 122.178 200.721" fill="#263238"/>
<path d="M121.743 200.84C121.743 200.84 122.839 206.066 124.371 207.895C125.902 209.723 127.307 210.933 127.219 212.388L127.111 213.847H111.345V209.463C111.345 206.912 112.323 202.408 112.323 200.601C112.323 198.794 122.178 200.721 122.178 200.721" stroke="#263238" stroke-width="1.01837" stroke-linecap="round" stroke-linejoin="round"/>
<path d="M126.837 210.923C127.106 211.348 127.24 211.859 127.219 212.378L127.111 213.837H111.345V210.923H126.837Z" fill="#586166" stroke="#263238" stroke-width="1.01837" stroke-linecap="round" stroke-linejoin="round"/>
<path d="M108.056 154.46C108.056 154.46 106.525 143.656 109.152 138.68C111.78 133.704 120.979 133.58 126.122 136.976C131.265 140.373 133.311 145.946 131.446 153.109C129.582 160.272 125.246 160.413 125.246 160.413C125.246 160.413 126.343 170.246 126.343 174.131C126.343 178.017 122.619 202.181 122.619 202.181H111.78C111.78 202.181 108.276 159.561 108.056 154.46Z" fill="#586166" stroke="#263238" stroke-width="1.01837" stroke-linecap="round" stroke-linejoin="round"/>
<path d="M125.246 160.414L124.15 150.456" stroke="#263238" stroke-width="1.01837" stroke-linecap="round" stroke-linejoin="round"/>
<path d="M130.487 25.8159H152.145C152.758 25.8159 153.345 26.0858 153.778 26.5661C154.212 27.0464 154.455 27.6979 154.455 28.3772V39.5231C154.455 40.2024 154.212 40.8539 153.778 41.3342C153.345 41.8146 152.758 42.0844 152.145 42.0844H145.642L147.34 47.1853L141.992 42.0844H130.487C130.184 42.0844 129.884 42.0182 129.603 41.8894C129.323 41.7607 129.069 41.5721 128.854 41.3342C128.64 41.0964 128.47 40.814 128.353 40.5033C128.237 40.1925 128.178 39.8595 128.178 39.5231V28.3772C128.178 28.0408 128.237 27.7078 128.353 27.397C128.47 27.0863 128.64 26.8039 128.854 26.5661C129.069 26.3283 129.323 26.1396 129.603 26.0109C129.884 25.8822 130.184 25.8159 130.487 25.8159Z" fill="#263238" stroke="#263238" stroke-width="1.01837" stroke-linecap="round" stroke-linejoin="round"/>
<path d="M146.738 35.0411C147.433 35.0411 147.996 34.4168 147.996 33.6466C147.996 32.8763 147.433 32.252 146.738 32.252C146.043 32.252 145.48 32.8763 145.48 33.6466C145.48 34.4168 146.043 35.0411 146.738 35.0411Z" fill="#DD4D32"/>
<path d="M140.714 35.0411C141.409 35.0411 141.972 34.4168 141.972 33.6466C141.972 32.8763 141.409 32.252 140.714 32.252C140.02 32.252 139.457 32.8763 139.457 33.6466C139.457 34.4168 140.02 35.0411 140.714 35.0411Z" fill="#DD4D32"/>
<path d="M134.696 35.0411C135.39 35.0411 135.953 34.4168 135.953 33.6466C135.953 32.8763 135.39 32.252 134.696 32.252C134.001 32.252 133.438 32.8763 133.438 33.6466C133.438 34.4168 134.001 35.0411 134.696 35.0411Z" fill="#DD4D32"/>
<path d="M46.3465 116.508L42.5444 125.413H53.3244L57.1265 116.942L46.3465 116.508Z" fill="#263238" stroke="#263238" stroke-width="1.01837" stroke-linecap="round" stroke-linejoin="round"/>
<path d="M70.0155 116.508H46.3464L50.1534 125.413H73.8176L70.0155 116.508Z" fill="white" stroke="#263238" stroke-width="1.01837" stroke-linecap="round" stroke-linejoin="round"/>
<path d="M27.9524 137.677H22.6187V213.804H27.9524V137.677Z" fill="#A3A3A3" stroke="#263238" stroke-width="1.01837" stroke-linecap="round" stroke-linejoin="round"/>
<path d="M198.681 137.872H193.347V214H198.681V137.872Z" fill="#A3A3A3" stroke="#263238" stroke-width="1.01837" stroke-linecap="round" stroke-linejoin="round"/>
<path d="M201.025 125.169H21.459V198.54H201.025V125.169Z" fill="#A3A3A3" stroke="#263238" stroke-width="1.01837" stroke-linecap="round" stroke-linejoin="round"/>
<path d="M201.025 125.169H21.459V132.804H201.025V125.169Z" fill="#263238" stroke="#263238" stroke-width="1.01837" stroke-linecap="round" stroke-linejoin="round"/>
<path d="M205.6 125.169H16.8885V129.722H205.6V125.169Z" fill="white" stroke="#263238" stroke-width="1.01837" stroke-linecap="round" stroke-linejoin="round"/>
<path d="M24.3363 192.392C24.3363 192.392 12.2155 163.762 14.853 162.932C17.4905 162.101 23.02 166.665 23.02 166.665C23.02 166.665 6.80347 118.516 10.9971 114.805C15.1906 111.093 23.02 130.156 23.02 130.156C23.02 130.156 14.6573 100.696 15.6408 89.4901C16.6244 78.2845 27.2478 89.0777 27.2478 89.0777C27.2478 89.0777 18.7383 48.8298 26.6361 46.7514C34.534 44.6731 34.2746 92.8111 34.2746 92.8111C34.2746 92.8111 36.8681 58.3749 40.0341 67.9146C43.2001 77.4543 36.5451 109.411 36.5451 109.411C36.5451 109.411 40.8855 98.6228 43.2979 108.58C45.7103 118.538 38.5025 158.78 38.5025 158.78C38.5025 158.78 44.6289 152.144 45.2014 160.441C45.7739 168.738 32.5228 194.486 32.5228 194.486L25.0262 195.295L24.3363 192.392Z" fill="#DD4D32"/>
<path opacity="0.6" d="M24.3363 192.392C24.3363 192.392 12.2155 163.762 14.853 162.932C17.4905 162.101 23.02 166.665 23.02 166.665C23.02 166.665 6.80347 118.516 10.9971 114.805C15.1906 111.093 23.02 130.156 23.02 130.156C23.02 130.156 14.6573 100.696 15.6408 89.4901C16.6244 78.2845 27.2478 89.0777 27.2478 89.0777C27.2478 89.0777 18.7383 48.8298 26.6361 46.7514C34.534 44.6731 34.2746 92.8111 34.2746 92.8111C34.2746 92.8111 36.8681 58.3749 40.0341 67.9146C43.2001 77.4543 36.5451 109.411 36.5451 109.411C36.5451 109.411 40.8855 98.6228 43.2979 108.58C45.7103 118.538 38.5025 158.78 38.5025 158.78C38.5025 158.78 44.6289 152.144 45.2014 160.441C45.7739 168.738 32.5228 194.486 32.5228 194.486L25.0262 195.295L24.3363 192.392Z" fill="white"/>
<path d="M26.9346 193.634C26.9346 193.634 16.8299 173.719 18.704 169.986C20.5781 166.253 26.1761 174.951 26.1761 174.951C26.1761 174.951 13.4535 139.679 15.3276 136.369C17.2017 133.059 23.1569 147.569 23.1569 147.569C23.1569 147.569 20.9158 99.0243 24.6543 100.685C28.3928 102.345 28.794 125.571 28.794 125.571C28.794 125.571 26.548 70.3836 29.9195 72.0441C33.291 73.7046 32.9093 135.11 32.9093 135.11C32.9093 135.11 39.6572 111.462 40.768 122.271C41.8788 133.081 32.1607 162.101 32.1607 162.101C32.1607 162.101 41.5167 139.283 42.6373 151.314C43.7578 163.344 35.1554 185.75 35.1554 185.75C35.1554 185.75 38.522 176.623 38.522 181.604C38.522 186.585 35.9041 192.804 35.9041 192.804" stroke="#263238" stroke-width="1.01837" stroke-linecap="round" stroke-linejoin="round"/>
<path d="M40.5821 193.477H19.1934V214H40.5821V193.477Z" fill="#263238" stroke="#263238" stroke-width="1.01837" stroke-miterlimit="10"/>
<path d="M157.973 54.5812C157.973 54.5812 155.781 58.5913 155.453 60.4092C155.125 62.227 155.673 62.9596 155.233 64.2945C154.792 65.6294 152.938 65.6349 152.938 66.9698C152.938 68.3047 154.249 69.5202 154.69 69.8838C155.13 70.2473 154.357 71.8264 155.125 74.1327C155.893 76.4389 156.221 79.3529 157.533 79.3529C158.89 79.2735 160.243 79.1104 161.584 78.8645L162.24 83.2979L171.288 82.3863C171.288 82.3863 171.18 78.0451 173.588 76.1947C175.995 74.3443 180.761 63.931 177.913 57.1316C175.065 50.3323 163.116 48.9974 157.973 54.5812Z" fill="white" stroke="#263238" stroke-width="1.01837" stroke-linecap="round" stroke-linejoin="round"/>
<path d="M154.974 49.5458C154.677 50.6129 154.558 51.7308 154.621 52.8451C154.757 54.9873 155.358 57.0614 156.373 58.8902C157.489 60.9359 160.16 62.2383 160.821 64.4197C161.036 65.1469 161.584 67.0895 163.116 67.5779C164.648 68.0663 164.325 68.0609 163.884 71.3384C163.444 74.616 164.76 77.8936 167.388 78.7455C168.626 79.144 169.933 79.1974 171.194 78.9011C172.454 78.6048 173.63 77.968 174.615 77.0471C176.695 75.2238 180.634 67.6973 180.747 60.898C180.938 48.8675 170.246 42.9907 160.601 44.4558C159.316 44.5972 158.096 45.1553 157.096 46.0606C156.095 46.9659 155.357 48.1781 154.974 49.5458Z" fill="#263238" stroke="#263238" stroke-width="1.01837" stroke-linecap="round" stroke-linejoin="round"/>
<path d="M166.571 80.1887C165.111 80.2153 163.674 80.5852 162.353 81.274C161.129 81.9903 156.877 86.4943 155.781 87.2431C154.685 87.992 152.605 87.6067 153.824 88.2144C155.042 88.8222 155.903 88.9416 157.983 88.0951C160.063 87.2485 164.442 85.5446 165.754 85.5446C167.065 85.5446 171.885 86.2718 172.325 86.3966C172.766 86.5214 175.609 87.9703 175.609 87.9703C175.609 87.9703 174.185 84.5733 172.545 82.8748C170.906 81.1763 168.871 80.0639 166.571 80.1887Z" fill="white" stroke="#263238" stroke-width="1.01837" stroke-linecap="round" stroke-linejoin="round"/>
<path d="M163.013 65.082C162.781 65.1845 162.586 65.3697 162.46 65.6085C162.333 65.8472 162.282 66.1259 162.313 66.4006C162.5 68.0023 162.475 69.6255 162.24 71.2193C161.805 73.2814 164.129 73.2814 164.638 69.9007C164.971 67.665 164.207 64.6099 163.013 65.082Z" fill="white" stroke="#263238" stroke-width="1.01837" stroke-linecap="round" stroke-linejoin="round"/>
<path d="M144.722 93.0713C144.722 93.0713 143.411 93.7984 143.303 97.3202C143.195 100.842 137.715 125.614 137.387 129.499C137.059 133.384 138.923 135.929 142.094 137.27C145.265 138.61 151.294 140.786 152.37 140.184C153.447 139.581 155.546 127.068 156.309 121.604C157.073 116.139 147.878 97.1845 147.443 96.4737C147.007 95.7628 145.49 93.1961 144.722 93.0713Z" fill="white" stroke="#263238" stroke-width="1.01837" stroke-linecap="round" stroke-linejoin="round"/>
<path d="M151.842 122.092L145.818 132.049" stroke="#263238" stroke-width="1.01837" stroke-linecap="round" stroke-linejoin="round"/>
<path d="M163.458 166.296L171.063 212.963C171.087 213.109 171.139 213.248 171.215 213.37C171.292 213.492 171.39 213.595 171.505 213.671C171.62 213.748 171.748 213.796 171.881 213.813C172.014 213.831 172.149 213.817 172.276 213.772C172.486 213.696 172.665 213.541 172.783 213.334C172.901 213.127 172.95 212.881 172.922 212.638L167.31 165.287L163.458 166.296Z" fill="white" stroke="#263238" stroke-width="1.01837" stroke-linecap="round" stroke-linejoin="round"/>
<path d="M155.018 156.099C155.018 156.099 152.17 198.713 152.17 199.929C152.17 201.144 149.234 213.891 149.234 213.891H157.097C157.097 213.891 157.861 212.193 157.861 208.671C157.861 205.149 158.193 197.623 158.193 196.895C158.193 196.168 166.952 158.525 166.952 158.525C166.952 158.525 166.512 154.759 162.24 152.556C157.968 150.353 155.673 155.128 155.018 156.099Z" fill="white" stroke="#263238" stroke-width="1.01837" stroke-linecap="round" stroke-linejoin="round"/>
<path d="M157.861 208.671C157.861 205.453 158.135 198.903 158.184 197.232C154.538 194.964 152.277 197.986 152.277 197.986C152.214 199.072 152.175 199.777 152.175 199.918C152.175 201.134 149.239 213.88 149.239 213.88H157.097C157.097 213.88 157.861 212.193 157.861 208.671Z" fill="#263238" stroke="#263238" stroke-width="1.01837" stroke-linecap="round" stroke-linejoin="round"/>
<path d="M157.097 213.891C157.097 213.891 157.861 212.193 157.861 208.671C157.861 207.363 157.91 205.496 157.963 203.635C157.205 202.653 155.566 201.15 153.814 203.451C153.046 204.454 151.025 210.793 150.061 213.891H157.097Z" fill="#4F4F4F" stroke="#263238" stroke-width="1.01837" stroke-linecap="round" stroke-linejoin="round"/>
<path d="M153.814 203.45L154.469 213.891H156.427L158.076 203.206C158.076 203.206 155.893 200.292 153.814 203.45Z" fill="#263238" stroke="#263238" stroke-width="1.01837" stroke-linecap="round" stroke-linejoin="round"/>
<path d="M139.031 150.532C139.031 150.532 135.635 154.661 135.307 158.183C134.979 161.705 146.694 198.979 146.694 198.979C146.405 200.545 145.765 202.006 144.835 203.228C143.19 205.534 140.891 208.812 140.563 210.998C140.235 213.185 140.563 213.912 140.563 213.912H148.338C148.338 213.912 151.074 206.142 152.17 204.199C153.266 202.256 152.605 198.491 152.277 196.792C151.949 195.094 148.994 155.877 148.994 155.877C148.994 155.877 146.694 147.596 139.031 150.532Z" fill="white" stroke="#263238" stroke-width="1.01837" stroke-linecap="round" stroke-linejoin="round"/>
<path d="M152.17 204.178C153.119 202.49 152.752 199.435 152.419 197.547C152.01 197.169 151.528 196.902 151.009 196.768C150.491 196.633 149.952 196.634 149.434 196.771C147.135 197.379 146.694 198.941 146.694 198.941C146.405 200.508 145.765 201.969 144.835 203.19C143.19 205.496 140.891 208.774 140.563 210.961C140.235 213.148 140.563 213.875 140.563 213.875H148.338C148.338 213.875 151.074 206.121 152.17 204.178Z" fill="#263238" stroke="#263238" stroke-width="1.01837" stroke-linecap="round" stroke-linejoin="round"/>
<path d="M144.34 213.891H148.338C148.338 213.891 150.785 206.978 151.969 204.563C151.382 203.966 149.606 202.442 147.898 203.934C145.818 205.757 145.598 210.25 145.055 211.949C144.795 212.746 144.536 213.408 144.34 213.891Z" fill="#4F4F4F" stroke="#263238" stroke-width="1.01837" stroke-linecap="round" stroke-linejoin="round"/>
<path d="M147.898 203.933L148.338 213.891H149.757L152.165 204.178C152.165 204.178 149.977 201.752 147.898 203.933Z" fill="#263238" stroke="#263238" stroke-width="1.01837" stroke-linecap="round" stroke-linejoin="round"/>
<path d="M147.868 109.53C149.689 116.346 151.323 129.125 151.323 130.319C151.323 132.489 145.598 145.041 145.598 145.041C145.598 145.041 139.237 148.682 137.715 151.232C137.008 152.359 136.594 153.68 136.517 155.05C136.44 156.42 136.704 157.787 137.279 159.003C138.375 161.428 140.015 162.525 143.641 163.252C147.267 163.979 180.864 163.252 180.864 163.252C180.864 163.252 184.368 158.514 182.724 150.988C181.96 147.482 181.128 144.438 180.208 140.184C180.208 140.184 183.82 140.303 186.447 137.872C189.075 135.441 189.188 131.681 189.188 128.891C189.188 126.102 187.534 102.779 187.534 100.479C187.534 98.1778 187.436 95.2583 185.479 93.5544C183.521 91.8505 178.882 89.2133 174.713 86.7605C171.435 84.845 169.022 85.1814 166.395 85.1814C163.767 85.1814 160.591 87.352 160.591 87.352C160.591 87.352 146.029 91.6009 144.932 92.3281C143.836 93.0552 144.228 93.7932 144.629 96.4739" fill="white"/>
<path d="M147.868 109.53C149.689 116.346 151.323 129.125 151.323 130.319C151.323 132.489 145.598 145.041 145.598 145.041C145.598 145.041 139.237 148.682 137.715 151.232C137.008 152.359 136.594 153.68 136.517 155.05C136.44 156.42 136.704 157.787 137.279 159.003C138.375 161.428 140.015 162.525 143.641 163.252C147.267 163.979 180.864 163.252 180.864 163.252C180.864 163.252 184.368 158.514 182.724 150.988C181.96 147.482 181.128 144.438 180.208 140.184C180.208 140.184 183.82 140.303 186.447 137.872C189.075 135.441 189.188 131.681 189.188 128.891C189.188 126.102 187.534 102.779 187.534 100.479C187.534 98.1778 187.436 95.2583 185.479 93.5544C183.521 91.8505 178.882 89.2133 174.713 86.7605C171.435 84.845 169.022 85.1814 166.395 85.1814C163.767 85.1814 160.591 87.352 160.591 87.352C160.591 87.352 146.029 91.6009 144.932 92.3281C143.836 93.0552 144.228 93.7932 144.629 96.4739" stroke="#263238" stroke-width="1.01837" stroke-linecap="round" stroke-linejoin="round"/>
<path d="M181.95 99.8706C181.95 99.8706 177.468 128.75 177.468 130.329C177.468 131.908 180.199 140.184 180.199 140.184" stroke="#263238" stroke-width="1.01837" stroke-linecap="round" stroke-linejoin="round"/>
<path d="M151.088 131.54C150.012 135.376 145.598 145.041 145.598 145.041C145.598 145.041 139.237 148.682 137.715 151.232C137.008 152.359 136.594 153.68 136.517 155.05C136.44 156.42 136.704 157.787 137.279 159.003C138.375 161.428 140.015 162.525 143.641 163.252C147.267 163.979 180.864 163.252 180.864 163.252C180.864 163.252 184.368 158.514 182.724 150.988C181.96 147.482 181.128 144.438 180.208 140.184L177.468 131.54H151.088Z" fill="#263238" stroke="#263238" stroke-width="1.01837" stroke-miterlimit="10"/>
<path d="M141.659 165.802L135.997 212.822C135.98 212.969 135.991 213.119 136.03 213.261C136.069 213.403 136.135 213.534 136.223 213.646C136.312 213.757 136.421 213.847 136.543 213.908C136.665 213.969 136.798 214 136.932 213.999C137.152 214.001 137.365 213.916 137.534 213.76C137.703 213.604 137.818 213.387 137.857 213.148L145.598 166.165L141.659 165.802Z" fill="white" stroke="#263238" stroke-width="1.01837" stroke-linecap="round" stroke-linejoin="round"/>
<path d="M179.117 165.802L184.779 212.822C184.796 212.969 184.785 213.119 184.746 213.261C184.707 213.403 184.641 213.534 184.553 213.646C184.464 213.757 184.355 213.847 184.233 213.908C184.111 213.969 183.978 214 183.844 213.999C183.624 214.001 183.411 213.916 183.242 213.76C183.073 213.604 182.959 213.387 182.919 213.148L175.203 166.165L179.117 165.802Z" fill="white" stroke="#263238" stroke-width="1.01837" stroke-linecap="round" stroke-linejoin="round"/>
<path d="M157.097 165.802L151.436 212.822C151.418 212.969 151.429 213.119 151.468 213.261C151.507 213.403 151.573 213.534 151.662 213.646C151.75 213.757 151.859 213.847 151.982 213.908C152.104 213.969 152.236 214 152.37 213.999C152.59 214 152.803 213.915 152.972 213.759C153.141 213.603 153.255 213.387 153.295 213.147L161.036 166.165L157.097 165.802Z" fill="white" stroke="#263238" stroke-width="1.01837" stroke-linecap="round" stroke-linejoin="round"/>
<path d="M185.234 112.004H149.87C149.87 112.004 148.891 121.229 149.434 129.125C149.977 137.02 151.186 147.092 150.966 153.544C150.746 159.996 147.462 163.501 147.462 163.501H139.579C139.392 163.501 139.207 163.541 139.035 163.62C138.862 163.698 138.705 163.814 138.573 163.96C138.44 164.107 138.335 164.28 138.264 164.472C138.192 164.663 138.155 164.868 138.155 165.075C138.155 165.282 138.192 165.488 138.264 165.679C138.335 165.871 138.44 166.045 138.572 166.192C138.705 166.338 138.861 166.455 139.034 166.534C139.207 166.613 139.392 166.654 139.579 166.654H182.151C184.732 162.038 185.991 156.663 185.762 151.238C185.435 142.013 182.151 131.567 183.242 124.16C184.334 116.753 185.234 112.004 185.234 112.004Z" fill="#DD4D32" stroke="#263238" stroke-width="1.01837" stroke-linecap="round" stroke-linejoin="round"/>
<path d="M175.873 55.6177C175.873 55.6177 173.686 56.589 173.573 58.8735C173.46 61.1581 172.81 69.0698 170.182 73.5629C167.554 78.056 170.182 85.2189 176.641 86.3096C183.1 87.4004 188.356 76.5963 185.938 65.4287C183.521 54.2611 178.065 54.6463 175.873 55.6177Z" fill="#263238" stroke="#263238" stroke-width="1.01837" stroke-linecap="round" stroke-linejoin="round"/>
<path d="M1 214H215" stroke="#263238" stroke-width="1.01837" stroke-linecap="round" stroke-linejoin="round"/>
</svg>
