<svg width="521" height="351" viewBox="0 0 521 351" fill="none" xmlns="http://www.w3.org/2000/svg">
<g opacity="0.31">
<path opacity="0.31" d="M435.292 351C464.879 349.637 493.921 337.09 508.133 315.508C521.263 295.553 523.704 264.632 517.832 242.432C512.896 223.808 498.802 207.654 482.731 193.99C450.258 166.403 408.413 146.366 380.971 115.231C365.714 97.9282 355.565 77.8773 340.899 60.2294C312.379 25.9102 265.153 1.56199 214.937 0.0674797C164.72 -1.42703 113.313 22.0081 92.4473 59.925C74.4995 92.5452 79.1808 132.079 57.0789 162.896C46.9211 177.06 31.7821 188.335 20.6244 201.962C0.772217 226.229 -5.22705 257.949 4.71722 286.095C14.6614 314.241 40.3447 338.262 72.8452 349.805" fill="#C5E1F9"/>
</g>
<g opacity="0.31">
<path opacity="0.31" d="M109.986 348.296C89.3477 347.388 69.082 339.13 59.1832 324.907C50.0253 311.756 48.3209 291.383 52.4204 276.755C55.8609 264.491 65.6915 253.834 76.8993 244.826C99.551 226.655 128.711 213.441 147.872 192.922C158.512 181.52 171.242 155.178 181.468 143.549C201.384 120.922 224.999 106.068 259.836 102.352C304.753 97.5736 334.572 131.457 349.125 156.45C361.642 177.945 358.378 204.002 373.79 224.311C380.862 233.633 391.438 241.06 399.219 250.05C413.063 266.044 417.248 286.949 410.313 305.501C403.377 324.053 385.466 339.879 362.801 347.488" fill="#C5E1F9"/>
</g>
<path d="M395.051 322.168C396.583 317.802 401.123 316.126 405.182 315.508C414.062 329.39 425.179 332.157 431.233 332.525L429.465 342.923H409.467L408.395 334.623C403.327 334.533 398.851 332.806 396.428 329.831C395.54 328.79 394.945 327.532 394.703 326.186C394.461 324.839 394.581 323.453 395.051 322.168ZM400.259 326.71C401.455 328.182 404.109 329.468 407.745 329.663L406.54 320.314C403.568 320.678 400.487 321.618 399.723 323.798C399.534 324.287 399.485 324.818 399.579 325.332C399.674 325.847 399.909 326.326 400.259 326.715V326.71Z" fill="white"/>
<path d="M405.182 315.508C405.423 315.472 405.668 315.426 405.904 315.399L404.695 306.019C404.677 305.901 404.683 305.78 404.711 305.664C404.74 305.548 404.791 305.439 404.862 305.342C404.933 305.246 405.022 305.165 405.125 305.103C405.227 305.042 405.341 305.001 405.459 304.983H405.604H434.692C434.827 304.982 434.961 305.007 435.086 305.058C435.211 305.109 435.325 305.184 435.421 305.279C435.517 305.374 435.593 305.487 435.645 305.612C435.697 305.736 435.723 305.87 435.723 306.005C435.728 306.066 435.728 306.126 435.723 306.187L431.247 332.534C425.157 332.157 414.04 329.39 405.182 315.508Z" fill="#DD4D32"/>
<path d="M418.525 301.077C421.416 299.541 424.175 294.004 425.315 291.446C426.456 288.889 426.783 285.818 425.52 283.32C424.456 281.203 422.411 279.749 421.139 277.755C420.488 276.719 420.054 275.561 419.863 274.353C419.673 273.144 419.729 271.909 420.03 270.723C420.898 267.393 423.629 264.736 424.256 261.352C424.993 257.386 422.684 253.57 421.67 249.664C420.743 246.042 420.925 242.225 422.193 238.707C419.371 240.379 417.685 243.404 416.13 246.289C414.708 248.923 413.244 251.74 413.449 254.729C413.581 256.605 414.358 258.363 415.021 260.125C416.217 263.305 417.03 266.816 416.18 270.119C414.894 275.116 409.976 279.009 410.172 284.155C410.285 287.204 412.263 289.911 414.649 291.814C416.198 293.059 417.994 294.086 419.084 295.757C420.175 297.429 420.212 300.023 418.525 301.081" fill="white"/>
<path d="M240.797 150.227C243.115 155.592 244.888 160.779 245.747 166.126C246.606 171.473 246.906 176.892 248.233 182.125C249.405 186.754 251.36 191.142 253.464 195.426C253.682 195.804 253.814 196.226 253.85 196.661C253.85 197.511 253.114 198.156 252.428 198.66C242.002 206.278 227.544 207.999 215.614 203.039" fill="#4B3C51"/>
<path d="M243.574 186.181C237.899 186.181 233.298 180.464 233.298 173.412C233.298 166.36 237.899 160.643 243.574 160.643C249.25 160.643 253.85 166.36 253.85 173.412C253.85 180.464 249.25 186.181 243.574 186.181Z" fill="#DD4D32"/>
<path d="M238.738 187.993C233.063 187.993 228.462 182.276 228.462 175.224C228.462 168.172 233.063 162.455 238.738 162.455C244.414 162.455 249.014 168.172 249.014 175.224C249.014 182.276 244.414 187.993 238.738 187.993Z" fill="#04A2BC"/>
<path d="M215.618 203.066L237.061 158.094C239.434 166.003 241.788 173.902 244.06 181.847C244.806 184.487 245.542 187.153 245.787 189.883C246.001 192.28 245.837 194.696 245.301 197.042C244.779 199.314 243.87 201.585 242.27 203.279C241.974 203.573 241.661 203.849 241.333 204.106C232.944 206.65 223.708 206.432 215.618 203.066Z" fill="#3E3244"/>
<path d="M220.123 201.521C219.155 206.973 218.355 213.173 221.741 217.561C222.486 218.52 223.454 219.46 223.509 220.677C223.577 222.267 222.054 223.439 220.627 224.153C217.855 225.515 214.834 226.298 211.749 226.454C208.664 226.611 205.579 226.137 202.684 225.061C202.192 224.915 201.747 224.643 201.393 224.271C200.666 223.362 201.13 222.058 201.579 220.995C203.604 216.089 204.62 210.825 204.565 205.518C204.51 200.211 203.387 194.97 201.261 190.106" fill="#E8A17E"/>
<path d="M220.609 199.932C219.664 203.765 219.041 207.454 219.459 211.379C219.475 211.444 219.477 211.513 219.466 211.579C219.454 211.646 219.428 211.709 219.391 211.765C219.268 211.897 219.05 211.847 218.877 211.765C217.601 211.362 216.38 210.802 215.241 210.098C213.378 208.826 211.187 206.491 210.242 204.451C208.892 201.767 208.292 198.768 208.506 195.771" fill="#D88D6C"/>
<path d="M233.239 150.958C237.13 155.301 238.039 161.488 238.552 167.311C239.007 172.431 239.279 177.605 238.552 182.692C237.825 187.78 236.039 192.813 232.748 196.774C231.357 198.441 229.722 199.888 227.899 201.067C226.658 201.918 225.272 202.533 223.808 202.884C221.032 203.479 218.164 202.684 215.464 201.808C209.315 199.813 202.979 197.12 199.18 191.887C194.235 185.073 190.962 167.13 189.676 158.803" fill="#E8A17E"/>
<path d="M240.993 156.254C235.196 161.242 228.14 164.542 220.595 165.794C216.246 166.507 211.814 166.53 207.415 166.434C205.761 166.452 204.111 166.289 202.493 165.948C200.233 165.454 198.247 164.117 196.939 162.21C195.721 160.288 195.576 157.617 196.853 155.728" fill="#D88D6C"/>
<path d="M191.34 133.524C202.311 128.227 218.191 129.322 226.172 133.887C234.153 138.453 237.457 142.541 241.624 152.058C241.874 152.625 243.315 156.123 243.097 156.705C243.022 156.964 242.885 157.2 242.698 157.395C242.511 157.59 242.28 157.736 242.024 157.822C232.166 161.583 223.499 162.26 212.964 162.783C209.451 162.955 205.892 162.96 202.479 162.133C197.643 178.314 200.161 189.911 208.21 204.761C202.97 206.968 182.604 208.236 172.91 200.731C170.406 198.796 168.124 196.507 166.606 193.736C162.752 186.704 164.407 178.032 166.502 170.292C168.061 164.532 169.829 158.776 172.66 153.52C177.01 145.453 182.922 137.167 191.34 133.533" fill="#4B3C51"/>
<path d="M229.753 186.618C228.954 189.089 228.035 191.369 225.849 192.768C223.663 194.167 220.777 193.995 218.446 192.905C216.114 191.814 213.901 189.071 212.26 187.081C217.923 187.608 224.154 187.603 229.753 186.627" fill="white"/>
<path d="M184.277 199.623C184.966 199.118 185.513 198.444 185.863 197.665C186.481 196.134 185.945 194.408 185.468 192.827C184.663 190.151 184.045 187.376 184.141 184.582C184.236 181.788 185.113 178.949 186.986 176.86C189.713 173.853 193.958 172.899 197.93 172.104L200.429 171.604C198.948 183.201 201.793 192.954 208.156 204.765C202.92 206.972 182.55 208.24 172.856 200.736C172.501 200.463 172.165 200.163 171.819 199.877C172.404 200.22 173.012 200.524 173.637 200.785C177.128 202.144 181.341 201.939 184.277 199.623Z" fill="#3E3244"/>
<path d="M220.009 172.027C220.743 171.596 221.578 171.365 222.43 171.357C223.281 171.349 224.12 171.564 224.863 171.982L225.385 171.209C225.281 171.137 222.795 169.488 219.568 171.209L220.009 172.027Z" fill="#161119"/>
<path d="M200.388 171.763L202.838 171.722V170.786H200.52L200.388 171.763Z" fill="#161119"/>
<path d="M223.168 173.712L226.135 182.797L221.463 183.179" fill="#D88D6C"/>
<path d="M213.901 166.489C213.711 166.373 213.514 166.269 213.31 166.18C213.192 166.121 213.069 166.067 212.946 166.017L213.083 166.071C212.778 165.944 212.464 165.83 212.151 165.73C211.76 165.605 211.363 165.501 210.96 165.421C210.703 165.367 210.443 165.322 210.183 165.285H210.333C209.58 165.184 208.818 165.159 208.06 165.213C207.826 165.221 207.592 165.246 207.361 165.285H207.511C206.746 165.391 205.994 165.574 205.265 165.83C205.043 165.908 204.811 165.994 204.602 166.089L204.738 166.03C203.924 166.38 203.146 166.809 202.416 167.311C202.287 167.385 202.134 167.405 201.991 167.368C201.847 167.33 201.724 167.238 201.648 167.111C201.608 167.043 201.582 166.968 201.572 166.89C201.562 166.812 201.567 166.733 201.589 166.657C201.635 166.519 201.726 166.401 201.848 166.321C202.995 165.527 204.263 164.921 205.602 164.527C206.696 164.21 207.831 164.057 208.969 164.072C210.598 164.091 212.206 164.445 213.692 165.113C213.953 165.223 214.207 165.352 214.451 165.499C214.575 165.575 214.667 165.695 214.71 165.835C214.748 165.981 214.726 166.136 214.651 166.266C214.614 166.33 214.566 166.385 214.508 166.43C214.451 166.474 214.385 166.507 214.314 166.525C214.161 166.567 213.998 166.547 213.86 166.471L213.901 166.489Z" fill="#3E3244"/>
<path d="M229.021 166.553C229.188 166.407 229.363 166.271 229.544 166.144L229.871 165.917L229.749 165.998C230.026 165.817 230.312 165.649 230.603 165.49C230.967 165.299 231.335 165.122 231.717 164.967C231.962 164.872 232.207 164.781 232.457 164.699L232.316 164.745C233.034 164.508 233.774 164.346 234.525 164.263C234.762 164.236 234.98 164.218 235.225 164.204H235.075C235.847 164.167 236.621 164.21 237.384 164.331C237.616 164.368 237.839 164.413 238.079 164.463L237.939 164.431C238.802 164.622 237.652 165.208 239.238 164.795C239.388 164.754 238.207 163.264 236.82 163.128C235.686 163.014 234.54 163.068 233.421 163.286C232.504 163.471 231.612 163.76 230.762 164.15C230.137 164.437 229.537 164.779 228.971 165.172C228.733 165.327 228.507 165.5 228.294 165.69C228.209 165.761 228.147 165.856 228.116 165.963C228.085 166.07 228.087 166.184 228.121 166.29C228.155 166.395 228.22 166.489 228.308 166.557C228.395 166.626 228.501 166.667 228.612 166.675C228.764 166.685 228.914 166.636 229.03 166.539L229.021 166.553Z" fill="#3E3244"/>
<path d="M213.728 172.635C213.28 171.987 212.659 171.477 211.936 171.162C211.214 170.848 210.417 170.741 209.637 170.855C208.745 171.065 207.918 171.495 207.233 172.104C207.119 172.199 206.96 172.04 207.069 171.945C208.201 171.005 209.615 170.332 211.114 170.637C212.045 170.851 212.889 171.34 213.537 172.04C213.684 172.19 213.819 172.351 213.941 172.522C214.023 172.64 213.828 172.753 213.746 172.635H213.728Z" fill="#3E3244"/>
<path d="M237.002 171.794C236.555 171.146 235.934 170.636 235.211 170.322C234.488 170.008 233.692 169.903 232.912 170.018C232.02 170.228 231.194 170.655 230.508 171.263C230.399 171.358 230.235 171.199 230.349 171.104C231.48 170.164 232.894 169.491 234.394 169.796C235.323 170.01 236.165 170.499 236.812 171.199C236.961 171.348 237.098 171.509 237.221 171.681C237.302 171.799 237.107 171.913 237.021 171.794H237.002Z" fill="#3E3244"/>
<path opacity="0.45" d="M206.465 185.041C204.249 185.041 202.452 183.245 202.452 181.03C202.452 178.814 204.249 177.019 206.465 177.019C208.682 177.019 210.479 178.814 210.479 181.03C210.479 183.245 208.682 185.041 206.465 185.041Z" fill="#F27B53"/>
<path opacity="0.45" d="M235.357 182.851C233.487 182.851 231.971 181.336 231.971 179.467C231.971 177.598 233.487 176.083 235.357 176.083C237.227 176.083 238.743 177.598 238.743 179.467C238.743 181.336 237.227 182.851 235.357 182.851Z" fill="#F27B53"/>
<path d="M233.671 180.817C235.426 180.817 237.143 180.296 238.602 179.321C240.062 178.347 241.2 176.961 241.871 175.34C242.543 173.719 242.719 171.935 242.377 170.214C242.034 168.493 241.189 166.912 239.947 165.672C238.706 164.431 237.124 163.586 235.403 163.244C233.681 162.901 231.896 163.077 230.274 163.749C228.652 164.42 227.266 165.557 226.291 167.016C225.315 168.475 224.795 170.19 224.795 171.945C224.797 174.297 225.733 176.552 227.397 178.215C229.061 179.879 231.318 180.814 233.671 180.817ZM233.671 164.1C235.224 164.099 236.743 164.558 238.035 165.42C239.327 166.282 240.334 167.507 240.929 168.941C241.525 170.375 241.681 171.954 241.379 173.476C241.077 174.999 240.33 176.398 239.232 177.497C238.134 178.595 236.735 179.344 235.212 179.647C233.689 179.951 232.11 179.797 230.674 179.203C229.239 178.61 228.012 177.605 227.148 176.314C226.284 175.024 225.823 173.506 225.822 171.954C225.824 169.874 226.652 167.879 228.123 166.408C229.594 164.936 231.59 164.108 233.671 164.104V164.1Z" fill="#161119"/>
<path d="M211.337 180.817C213.093 180.817 214.809 180.298 216.269 179.324C217.729 178.35 218.868 176.965 219.54 175.344C220.213 173.723 220.39 171.94 220.048 170.219C219.706 168.497 218.862 166.916 217.621 165.675C216.38 164.434 214.799 163.588 213.078 163.245C211.356 162.901 209.571 163.076 207.949 163.747C206.327 164.417 204.94 165.554 203.964 167.012C202.988 168.471 202.466 170.186 202.465 171.94C202.468 174.292 203.403 176.547 205.066 178.211C206.729 179.875 208.984 180.812 211.337 180.817ZM211.337 164.1C212.89 164.099 214.409 164.558 215.701 165.42C216.993 166.282 218 167.507 218.596 168.941C219.191 170.375 219.347 171.954 219.045 173.476C218.743 174.999 217.996 176.398 216.898 177.497C215.8 178.595 214.401 179.344 212.878 179.647C211.355 179.951 209.776 179.797 208.34 179.203C206.905 178.61 205.678 177.605 204.814 176.314C203.95 175.024 203.489 173.506 203.488 171.954C203.489 169.873 204.316 167.877 205.788 166.405C207.259 164.932 209.255 164.103 211.337 164.1Z" fill="#161119"/>
<path d="M220.279 200.242C218.58 200.078 217.307 198.871 217.435 197.545C217.563 196.219 219.044 195.276 220.743 195.44C222.442 195.604 223.715 196.812 223.587 198.138C223.459 199.464 221.978 200.406 220.279 200.242Z" fill="#161119"/>
<path d="M214.914 198.301C216.302 198.437 217.697 198.478 219.091 198.423L219.041 197.092C202.952 197.733 190.581 184.741 190.458 184.609L189.485 185.518C189.603 185.645 200.307 196.892 214.914 198.301Z" fill="#161119"/>
<path d="M242.761 161.52C241.474 152.508 236.748 142.582 229.008 137.49C222.077 132.924 212.801 132.634 205.161 135.564C198.58 138.085 194.221 143.709 192.071 150.268C190.253 155.851 189.999 161.588 189.572 167.389C189.431 169.301 186.431 169.315 186.572 167.389C186.977 161.865 187.204 156.364 188.717 150.999C190.685 144.008 194.716 137.594 201.252 134.083C209.024 129.904 219.327 129.458 227.358 133.143C233.889 136.136 238.661 141.973 241.692 148.351C243.51 152.221 245.047 156.464 245.651 160.725C245.924 162.61 243.033 163.428 242.761 161.52Z" fill="#DD4D32"/>
<path d="M189.699 189.788C184.024 189.788 179.423 184.071 179.423 177.019C179.423 169.966 184.024 164.25 189.699 164.25C195.374 164.25 199.975 169.966 199.975 177.019C199.975 184.071 195.374 189.788 189.699 189.788Z" fill="#DD4D32"/>
<path d="M188.081 189.152C182.689 189.152 178.319 183.72 178.319 177.019C178.319 170.318 182.689 164.886 188.081 164.886C193.473 164.886 197.844 170.318 197.844 177.019C197.844 183.72 193.473 189.152 188.081 189.152Z" fill="#04A2BC"/>
<path opacity="0.07" d="M110.809 78.2402H169.047C170.242 78.2402 171.21 79.2083 171.21 80.4025V117.974C171.21 119.168 170.242 120.136 169.047 120.136H110.809C109.614 120.136 108.645 119.168 108.645 117.974V80.4025C108.645 79.2083 109.614 78.2402 110.809 78.2402Z" fill="white"/>
<path d="M112.277 76.8325H170.515C171.71 76.8325 172.678 77.8006 172.678 78.9948V116.566C172.678 117.761 171.71 118.729 170.515 118.729H112.277C111.082 118.729 110.113 117.761 110.113 116.566V78.9948C110.113 77.8006 111.082 76.8325 112.277 76.8325Z" fill="white"/>
<path d="M145.963 84.5046C147.177 85.0582 148.217 85.9312 148.972 87.0303C149.698 88.0854 150.082 89.3383 150.072 90.6189C150.09 91.5183 149.918 92.4114 149.567 93.24C149.263 93.9446 148.849 94.5963 148.34 95.1706C147.744 95.8187 147.105 96.4257 146.427 96.9876C145.54 97.7134 144.74 98.5379 144.041 99.4452C143.498 100.23 143.224 101.168 143.259 102.121V102.639C143.26 102.77 143.234 102.901 143.183 103.023C143.132 103.145 143.058 103.255 142.963 103.347C142.872 103.442 142.761 103.517 142.64 103.568C142.518 103.619 142.387 103.644 142.254 103.642H140.891C140.626 103.639 140.372 103.532 140.185 103.345C139.997 103.157 139.89 102.904 139.887 102.639V101.862C139.868 100.961 140.046 100.066 140.409 99.2407C140.72 98.5396 141.14 97.8924 141.655 97.3238C142.136 96.8014 142.791 96.1699 143.609 95.4295C144.463 94.7253 145.242 93.9336 145.931 93.0674C146.449 92.3629 146.718 91.5064 146.695 90.6325C146.708 90.0741 146.578 89.5216 146.318 89.0272C146.058 88.5328 145.676 88.1128 145.209 87.8071C144.156 87.0947 142.907 86.7308 141.636 86.7668C140.439 86.7218 139.261 87.0749 138.287 87.7707C137.325 88.5493 136.667 89.641 136.428 90.8551C136.385 91.0886 136.261 91.2994 136.078 91.4502C135.905 91.5925 135.688 91.6711 135.464 91.6728H133.865C133.641 91.6732 133.426 91.5869 133.265 91.432C133.184 91.361 133.122 91.2712 133.084 91.1707C133.046 91.0701 133.033 90.9618 133.046 90.8551C133.14 89.5736 133.555 88.3362 134.253 87.2573C134.952 86.1784 135.91 85.2926 137.041 84.6818C138.454 83.9314 140.037 83.5604 141.636 83.6052C143.128 83.5778 144.606 83.8851 145.963 84.5046ZM143.341 109.689C143.25 109.785 143.14 109.862 143.018 109.913C142.896 109.965 142.764 109.99 142.632 109.988H140.509C140.243 109.986 139.988 109.88 139.798 109.692C139.609 109.505 139.5 109.251 139.496 108.985V106.863C139.5 106.598 139.608 106.346 139.795 106.158C139.982 105.971 140.235 105.864 140.5 105.859H142.623C142.888 105.864 143.14 105.971 143.328 106.158C143.515 106.346 143.622 106.598 143.627 106.863V108.985C143.629 109.115 143.605 109.245 143.556 109.366C143.506 109.487 143.433 109.597 143.341 109.689Z" fill="#DD4D32"/>
<path opacity="0.07" d="M242.102 39.083H291.968C293.656 39.083 295.274 39.753 296.468 40.9457C297.661 42.1383 298.331 43.7559 298.331 45.4426V74.6423C298.331 76.329 297.661 77.9465 296.468 79.1392C295.274 80.3319 293.656 81.0019 291.968 81.0019H256.595L243.197 90.505V81.0019H242.102C240.414 81.0019 238.796 80.3319 237.603 79.1392C236.409 77.9465 235.739 76.329 235.739 74.6423V45.4335C235.741 43.7484 236.413 42.1332 237.606 40.9425C238.799 39.7518 240.416 39.083 242.102 39.083Z" fill="white"/>
<path d="M243.606 37.7251H293.468C295.155 37.7251 296.774 38.3951 297.967 39.5878C299.16 40.7804 299.831 42.398 299.831 44.0847V73.2798C299.831 74.9665 299.16 76.5841 297.967 77.7768C296.774 78.9694 295.155 79.6395 293.468 79.6395H258.095L244.697 89.1471V79.6395H243.606C241.918 79.6395 240.3 78.9694 239.107 77.7768C237.913 76.5841 237.243 74.9665 237.243 73.2798V44.0711C237.247 42.3868 237.919 40.7727 239.112 39.583C240.304 38.3932 241.921 37.7251 243.606 37.7251Z" fill="white"/>
<path d="M243.806 48.541H293.259C293.391 48.541 293.519 48.5937 293.612 48.6874C293.706 48.7811 293.759 48.9082 293.759 49.0407C293.759 49.1732 293.706 49.3003 293.612 49.394C293.519 49.4877 293.391 49.5404 293.259 49.5404H243.806C243.74 49.5404 243.675 49.5275 243.615 49.5023C243.554 49.4772 243.499 49.4404 243.452 49.394C243.406 49.3476 243.369 49.2925 243.344 49.2319C243.319 49.1713 243.306 49.1063 243.306 49.0407C243.306 48.9751 243.319 48.9101 243.344 48.8495C243.369 48.7889 243.406 48.7338 243.452 48.6874C243.499 48.641 243.554 48.6042 243.615 48.5791C243.675 48.5539 243.74 48.541 243.806 48.541Z" fill="#DD4D32"/>
<path d="M243.806 55.0552H293.259C293.391 55.0552 293.519 55.1078 293.612 55.2015C293.706 55.2952 293.759 55.4223 293.759 55.5549C293.759 55.6874 293.706 55.8145 293.612 55.9082C293.519 56.0019 293.391 56.0545 293.259 56.0545H243.806C243.673 56.0545 243.546 56.0019 243.452 55.9082C243.359 55.8145 243.306 55.6874 243.306 55.5549C243.306 55.4223 243.359 55.2952 243.452 55.2015C243.546 55.1078 243.673 55.0552 243.806 55.0552Z" fill="#DD4D32"/>
<path d="M258.577 61.5688H293.259C293.391 61.5688 293.519 61.6215 293.612 61.7152C293.706 61.8089 293.759 61.936 293.759 62.0685C293.759 62.2011 293.706 62.3282 293.612 62.4219C293.519 62.5156 293.391 62.5682 293.259 62.5682H258.577C258.511 62.5682 258.446 62.5553 258.385 62.5302C258.325 62.5051 258.27 62.4683 258.223 62.4219C258.177 62.3755 258.14 62.3204 258.115 62.2598C258.09 62.1991 258.077 62.1342 258.077 62.0685C258.077 62.0029 258.09 61.9379 258.115 61.8773C258.14 61.8167 258.177 61.7616 258.223 61.7152C258.27 61.6688 258.325 61.632 258.385 61.6069C258.446 61.5818 258.511 61.5688 258.577 61.5688Z" fill="#DD4D32"/>
<path d="M258.577 68.083H293.259C293.391 68.083 293.519 68.1357 293.612 68.2294C293.706 68.3231 293.759 68.4502 293.759 68.5827C293.759 68.7152 293.706 68.8423 293.612 68.936C293.519 69.0297 293.391 69.0824 293.259 69.0824H258.577C258.511 69.0824 258.446 69.0694 258.385 69.0443C258.325 69.0192 258.27 68.9824 258.223 68.936C258.177 68.8896 258.14 68.8345 258.115 68.7739C258.09 68.7133 258.077 68.6483 258.077 68.5827C258.077 68.5171 258.09 68.4521 258.115 68.3915C258.14 68.3308 258.177 68.2758 258.223 68.2294C258.27 68.183 258.325 68.1462 258.385 68.121C258.446 68.0959 258.511 68.083 258.577 68.083Z" fill="#DD4D32"/>
<path opacity="0.07" d="M268.807 91.1411H301.203C302.297 91.1435 303.345 91.5788 304.119 92.3518C304.892 93.1248 305.328 94.1726 305.33 95.2658V114.24C305.329 115.333 304.894 116.381 304.12 117.154C303.346 117.926 302.297 118.36 301.203 118.36H278.224L269.512 124.538V118.36H268.798C268.257 118.36 267.721 118.254 267.221 118.047C266.721 117.84 266.266 117.536 265.883 117.153C265.501 116.771 265.197 116.317 264.99 115.817C264.783 115.317 264.676 114.781 264.676 114.24V95.2658C264.677 94.1722 265.112 93.1238 265.886 92.3505C266.66 91.5773 267.709 91.1423 268.803 91.1411H268.807Z" fill="white"/>
<path d="M269.78 90.2603H302.176C302.718 90.2597 303.254 90.3656 303.754 90.5721C304.254 90.7786 304.709 91.0816 305.092 91.4638C305.476 91.846 305.78 92.2998 305.987 92.7995C306.195 93.2991 306.302 93.8348 306.303 94.3758V113.35C306.302 114.444 305.867 115.492 305.093 116.265C304.319 117.039 303.27 117.474 302.176 117.475H279.202L270.494 123.648V117.479H269.78C268.687 117.478 267.638 117.043 266.865 116.27C266.092 115.496 265.658 114.448 265.658 113.355V94.3804C265.658 93.2876 266.092 92.2397 266.865 91.467C267.638 90.6943 268.687 90.2603 269.78 90.2603Z" fill="white"/>
<path d="M269.916 97.2876H302.044C302.124 97.297 302.197 97.3353 302.25 97.3951C302.304 97.455 302.333 97.5323 302.333 97.6124C302.333 97.6925 302.304 97.7698 302.25 97.8296C302.197 97.8895 302.124 97.9278 302.044 97.9372H269.916C269.837 97.9278 269.763 97.8895 269.71 97.8296C269.657 97.7698 269.628 97.6925 269.628 97.6124C269.628 97.5323 269.657 97.455 269.71 97.3951C269.763 97.3353 269.837 97.297 269.916 97.2876Z" fill="#DD4D32"/>
<path d="M269.916 101.517H302.044C302.124 101.527 302.197 101.565 302.25 101.625C302.304 101.685 302.333 101.762 302.333 101.842C302.333 101.922 302.304 101.999 302.25 102.059C302.197 102.119 302.124 102.157 302.044 102.167H269.916C269.837 102.157 269.763 102.119 269.71 102.059C269.657 101.999 269.628 101.922 269.628 101.842C269.628 101.762 269.657 101.685 269.71 101.625C269.763 101.565 269.837 101.527 269.916 101.517Z" fill="#DD4D32"/>
<path d="M279.511 105.75H302.044C302.124 105.76 302.197 105.798 302.25 105.858C302.304 105.918 302.333 105.995 302.333 106.075C302.333 106.155 302.304 106.233 302.25 106.293C302.197 106.352 302.124 106.391 302.044 106.4H279.511C279.431 106.391 279.358 106.352 279.304 106.293C279.251 106.233 279.222 106.155 279.222 106.075C279.222 105.995 279.251 105.918 279.304 105.858C279.358 105.798 279.431 105.76 279.511 105.75Z" fill="#DD4D32"/>
<path d="M279.511 109.983H302.044C302.13 109.983 302.212 110.017 302.272 110.078C302.333 110.138 302.367 110.22 302.367 110.306C302.367 110.391 302.333 110.473 302.272 110.534C302.212 110.594 302.13 110.628 302.044 110.628H279.511C279.425 110.628 279.343 110.594 279.282 110.534C279.222 110.473 279.188 110.391 279.188 110.306C279.188 110.22 279.222 110.138 279.282 110.078C279.343 110.017 279.425 109.983 279.511 109.983Z" fill="#DD4D32"/>
<path opacity="0.07" d="M328.532 137.984H386.77C387.965 137.984 388.934 138.952 388.934 140.147V177.718C388.934 178.912 387.965 179.881 386.77 179.881H328.532C327.337 179.881 326.369 178.912 326.369 177.718V140.147C326.369 138.952 327.337 137.984 328.532 137.984Z" fill="white"/>
<path d="M330.386 136.321H388.624C389.819 136.321 390.788 137.289 390.788 138.484V176.055C390.788 177.249 389.819 178.217 388.624 178.217H330.386C329.191 178.217 328.223 177.249 328.223 176.055V138.484C328.223 137.289 329.191 136.321 330.386 136.321Z" fill="white"/>
<path d="M365.218 146.216C364.764 150.958 359.705 150.209 359.705 150.209C356.615 150.663 357.074 157.431 357.074 157.431C357.074 157.431 357.406 164.204 360.528 164.295C360.528 164.295 365.473 162.96 366.468 167.62C367.464 172.281 364.65 174.661 360.074 174.348C360.074 174.348 353.711 173.73 352.779 157.54C352.256 141.123 358.078 140.278 358.078 140.278C362.596 139.434 365.664 141.473 365.218 146.216Z" fill="#DD4D32"/>
<path d="M163.366 342.56C148.368 335.223 137.987 321.246 129.979 306.873C115.436 280.799 106.682 250.627 111.545 221.341C112.5 215.595 114.586 209.171 120.049 206.805C122.63 205.696 125.63 205.719 128.338 206.5C133.683 208.045 137.819 212.36 140.31 217.221C142.8 222.081 143.868 227.496 144.855 232.843C151.913 270.714 156.899 309.263 170.433 345.426" fill="#DD4D32"/>
<path opacity="0.11" d="M165.97 343.173C154.367 337.781 141.078 321.246 134.61 310.207C122.934 290.179 114.258 269.383 117.258 246.411C117.844 241.905 119.28 236.845 123.384 234.887C125.373 234.015 127.605 233.865 129.693 234.464C133.783 235.55 137.06 238.825 139.073 242.564C141.087 246.302 142.032 250.509 142.918 254.661C149.208 284.056 153.935 314.037 165.111 341.973" fill="#345D95"/>
<path d="M125.18 222.594C126.416 231.657 127.711 240.715 129.27 249.727C130.824 258.667 132.638 267.57 134.928 276.36C136.992 284.488 139.615 292.465 142.778 300.232C145.973 307.919 149.712 315.37 153.967 322.527C158.126 329.567 162.837 336.267 168.056 342.564C168.693 343.327 169.338 344.084 169.992 344.835C170.133 344.994 169.897 345.226 169.756 345.067C164.442 338.928 159.631 332.372 155.371 325.461C146.545 311.284 139.851 295.889 135.501 279.767C133.07 270.932 131.147 261.97 129.515 252.966C127.884 243.963 126.548 234.878 125.289 225.806C125.143 224.734 124.992 223.663 124.834 222.594C124.807 222.386 125.139 222.39 125.171 222.594H125.18Z" fill="white"/>
<path d="M157.517 340.933C147.113 343.49 132.738 345.476 122.521 346.075C103.314 347.193 79.7989 346.493 64.528 334.773C59.5786 330.971 55.261 324.743 57.2835 318.842C58.5697 315.095 62.201 312.528 66.0324 311.515C69.8637 310.502 73.9087 310.82 77.8491 311.27C106.404 314.585 133.732 324.762 157.494 340.933" fill="#DD4D32"/>
<path opacity="0.11" d="M153.163 340.006C144.228 341.945 135.156 343.191 126.03 343.731C111.127 344.521 92.8518 343.972 81.0078 335.345C77.1629 332.547 73.7996 327.968 75.3631 323.639C76.3539 320.914 79.1672 319.01 82.1395 318.274C85.1119 317.538 88.2524 317.775 91.3111 318.111C113.343 320.539 134.513 328.034 153.163 340.006Z" fill="#345D95"/>
<path d="M73.0634 324.202C78.4022 325.414 83.7424 326.614 89.0842 327.804C94.5381 329.016 100.004 330.207 105.482 331.379C110.96 332.551 116.482 333.681 122.048 334.768C127.542 335.843 133.05 336.856 138.574 337.807C144.027 338.716 149.481 339.588 154.935 340.337L156.921 340.605C157.158 340.637 157.149 341.01 156.921 340.978C151.467 340.26 146.041 339.433 140.619 338.529C135.11 337.621 129.617 336.629 124.139 335.554C118.609 334.491 113.086 333.375 107.568 332.206C102.051 331.037 96.5469 329.844 91.0567 328.627C85.6725 327.43 80.2883 326.219 74.9041 324.993L72.9453 324.538C72.7089 324.484 72.8226 324.125 73.0589 324.179L73.0634 324.202Z" fill="white"/>
<path d="M162.111 339.371C140.296 338.231 115.99 325.289 98.5237 312.206C87.0297 303.575 75.6765 294.449 67.1866 282.861C60.215 273.33 55.373 262.413 52.9884 250.85C51.4386 243.296 51.7067 233.915 58.2241 229.79C61.7418 227.565 66.3367 227.56 70.2635 228.95C74.1903 230.34 77.5354 232.988 80.585 235.832C89.2566 243.936 95.9058 253.921 102.66 263.683C120.248 289.121 142.091 315.818 162.111 339.371Z" fill="#DD4D32"/>
<path opacity="0.11" d="M156.226 336.295C139.41 335.459 120.607 325.933 107.141 316.308C98.2603 309.948 89.4931 303.23 82.9349 294.694C77.5738 287.74 73.8207 279.686 71.9453 271.109C70.75 265.544 70.9545 258.635 75.9903 255.601C78.7172 253.961 82.2577 253.956 85.2891 254.978C88.3206 256 90.8975 257.949 93.2609 260.043C99.9601 266.017 105.078 273.367 110.313 280.558C123.898 299.273 140.764 318.951 156.217 336.295" fill="#345D95"/>
<path d="M66.7007 248.019L85.8619 271.422C91.534 278.35 97.1606 285.309 102.946 292.136C108.277 298.419 113.759 304.583 119.599 310.402C125.349 316.207 131.558 321.539 138.165 326.347C144.727 331.112 151.845 335.063 159.362 338.112C160.289 338.478 161.221 338.831 162.157 339.17C162.384 339.252 162.289 339.625 162.062 339.534C154.468 336.754 147.251 333.038 140.578 328.473C133.877 323.871 127.584 318.704 121.767 313.028C115.795 307.281 110.204 301.149 104.805 294.857C99.1057 288.234 93.6065 281.439 88.0708 274.679L68.8458 251.203L66.437 248.26C66.2825 248.074 66.5461 247.805 66.7007 247.992V248.019Z" fill="white"/>
<g opacity="0.38">
<path opacity="0.38" d="M91.7838 317.476C87.398 316.113 83.4848 313.66 79.8035 310.971C77.8582 309.549 75.9539 308.064 74.0451 306.592C71.9544 304.984 69.8683 303.367 67.8095 301.722C63.8918 298.588 60.0589 295.354 56.3109 292.019C52.5629 288.685 48.8891 285.243 45.2896 281.694C41.7082 278.157 38.2238 274.523 34.8363 270.792L33.6046 269.429C33.3183 269.111 33.791 268.63 34.0591 268.975C37.392 272.685 40.8295 276.31 44.3715 279.85C47.9135 283.39 51.5358 286.83 55.2383 290.171C58.947 293.517 62.7419 296.766 66.6233 299.919C70.5864 303.135 74.6268 306.279 78.7036 309.331C82.3395 312.057 86.1117 314.691 90.3794 316.295C90.8975 316.49 91.4202 316.667 91.9474 316.831C92.361 316.958 92.1883 317.608 91.7701 317.481L91.7838 317.476Z" fill="#DD4D32"/>
<path opacity="0.38" d="M35.4906 270.714C35.3568 269.266 34.8771 267.871 34.0917 266.646C33.3064 265.422 32.2384 264.404 30.9775 263.678C29.9595 263.11 28.5687 262.796 27.7188 263.591C27.4288 263.909 27.2388 264.305 27.1725 264.73C27.1062 265.155 27.1666 265.59 27.3462 265.981C27.7189 266.757 28.2778 267.43 28.9732 267.939C30.9369 269.566 33.196 270.8 35.627 271.573" fill="#DD4D32"/>
<path opacity="0.38" d="M38.2493 274.149C39.4673 273.359 40.0082 271.878 40.2763 270.443C40.499 269.443 40.499 268.407 40.2763 267.408C40.1618 266.91 39.933 266.446 39.608 266.052C39.283 265.658 38.8708 265.345 38.4038 265.137C38.2664 265.065 38.1093 265.039 37.9561 265.064C37.8029 265.088 37.6618 265.162 37.5539 265.273C37.0031 265.789 36.6767 266.5 36.6449 267.254C36.6133 268.004 36.7039 268.754 36.913 269.475C37.331 271.138 37.9268 272.751 38.6901 274.286" fill="#DD4D32"/>
<path opacity="0.38" d="M44.5394 280.104C45.0289 279.897 45.4621 279.576 45.8029 279.168C46.8073 278.132 47.8663 276.997 48.0753 275.57C48.1435 274.842 48.0615 274.108 47.8345 273.413C47.5209 272.318 46.98 271.191 45.9665 270.664C45.6349 270.475 45.2468 270.409 44.8711 270.478C44.651 270.545 44.4492 270.662 44.2814 270.82C44.1135 270.977 43.9841 271.171 43.9031 271.387C43.7475 271.824 43.6766 272.286 43.694 272.749C43.5969 275.23 43.8821 277.71 44.5394 280.104Z" fill="#DD4D32"/>
<path opacity="0.38" d="M51.4888 287.29C51.6206 287.404 51.8206 287.29 51.9433 287.195C53.2248 286.25 54.2688 285.02 54.9928 283.602C55.7195 282.171 55.9206 280.532 55.5609 278.968C55.4976 278.612 55.3616 278.274 55.1614 277.973C54.9613 277.672 54.7012 277.415 54.3974 277.219C53.9717 277.035 53.4985 276.991 53.046 277.093C52.5935 277.195 52.1851 277.438 51.8797 277.787C51.285 278.507 50.925 279.392 50.848 280.322C50.5117 282.789 51.0752 285.282 51.6342 287.708" fill="#DD4D32"/>
<path opacity="0.38" d="M59.3012 294.504C59.9901 294.213 60.5881 293.742 61.0328 293.141C62.2145 291.746 63.3053 290.207 63.7825 288.444C64.2597 286.682 64.0734 284.651 62.9144 283.234C62.7046 282.932 62.4224 282.688 62.0936 282.524C61.7649 282.359 61.4001 282.28 61.0328 282.293C60.4795 282.412 59.9921 282.737 59.6693 283.202C58.2513 284.974 58.2013 287.463 58.4286 289.725C58.5702 291.139 58.7918 292.543 59.0921 293.931" fill="#DD4D32"/>
<path opacity="0.38" d="M69.3545 302.535C70.8728 301.326 72.11 299.801 72.9804 298.067C73.8507 296.333 74.3333 294.43 74.3948 292.491C74.4312 291.001 74.0176 289.239 72.6314 288.689C72.1718 288.54 71.681 288.516 71.2091 288.619C70.7371 288.722 70.301 288.948 69.9453 289.275C69.2418 289.943 68.7355 290.792 68.4818 291.728C67.4592 294.967 68.0955 298.469 68.7409 301.808" fill="#DD4D32"/>
<path opacity="0.38" d="M44.2216 280.499C41.9901 279.522 39.4312 279.79 37.0179 280.145C36.4362 280.236 35.759 280.39 35.5091 280.931C35.4283 281.184 35.4209 281.455 35.4876 281.712C35.5544 281.969 35.6926 282.202 35.8863 282.384C36.53 283.066 37.4127 283.473 38.3496 283.52C39.2804 283.561 40.2094 283.406 41.0765 283.066C42.4623 282.578 43.6957 281.735 44.6533 280.622" fill="#DD4D32"/>
<path opacity="0.38" d="M38.1177 273.936C35.8816 272.959 33.3228 273.227 30.914 273.586C30.3277 273.672 29.6505 273.827 29.4051 274.367C29.3227 274.62 29.314 274.891 29.38 275.148C29.446 275.406 29.584 275.639 29.7778 275.821C30.4216 276.503 31.3042 276.91 32.2411 276.957C33.1722 277.003 34.1022 276.848 34.968 276.503C36.3538 276.015 37.5873 275.172 38.5449 274.059" fill="#DD4D32"/>
<path opacity="0.38" d="M51.4159 287.164C50.0069 286.498 48.4652 286.159 46.9066 286.174C45.348 286.189 43.813 286.557 42.417 287.25C41.8034 287.559 41.1716 287.999 40.9989 288.663C40.9404 288.957 40.9586 289.262 41.0517 289.547C41.1448 289.833 41.3098 290.09 41.5307 290.293C41.9813 290.694 42.5357 290.96 43.1305 291.061C44.4972 291.31 45.9071 291.152 47.1846 290.607C48.4541 290.061 49.6352 289.329 50.6887 288.435C51.1519 288.132 51.498 287.68 51.6704 287.154" fill="#DD4D32"/>
<path opacity="0.38" d="M59.2107 294.05C56.4838 293.105 53.4978 293.655 50.7163 294.391C49.6392 294.672 48.4439 295.067 47.9258 296.044C47.2531 297.257 47.994 298.897 49.212 299.555C50.43 300.214 51.9389 300.078 53.2569 299.619C55.7248 298.756 57.7381 296.848 59.1061 294.622" fill="#DD4D32"/>
<path opacity="0.38" d="M68.8639 301.887C66.7778 301.201 64.4735 301.473 62.4056 302.209C60.3376 302.945 58.4652 304.131 56.6108 305.303C55.7019 305.871 54.7156 306.588 54.6292 307.651C54.6209 308.016 54.7033 308.377 54.8691 308.702C55.0349 309.027 55.2789 309.306 55.5791 309.514C56.1865 309.922 56.8865 310.172 57.6153 310.241C61.3512 310.749 65.1371 308.76 67.4413 305.78C68.4276 304.512 69.2047 302.959 69.0457 301.36" fill="#DD4D32"/>
<path opacity="0.38" d="M80.7534 311.639C80.8671 311.83 81.1579 311.694 81.3215 311.544C82.7225 310.197 83.7809 308.535 84.4087 306.696C85.0364 304.857 85.2152 302.895 84.9302 300.973C84.8395 300.234 84.5982 299.521 84.2212 298.879C83.5368 297.949 82.5858 297.249 81.4943 296.871C81.2476 296.712 80.9479 296.657 80.6608 296.718C80.3737 296.78 80.1226 296.952 79.9626 297.198C79.9357 297.239 79.9114 297.282 79.8899 297.326C78.3946 299.292 77.9038 301.909 78.2037 304.362C78.5727 306.818 79.4605 309.167 80.808 311.253" fill="#DD4D32"/>
<path opacity="0.38" d="M81.4395 311.598C79.793 310.934 77.9951 310.739 76.2446 311.034C74.5029 311.33 72.7969 311.806 71.1543 312.456C69.9317 312.91 68.6728 313.392 67.782 314.337C66.8912 315.282 66.5049 316.835 67.2457 317.903C67.9865 318.97 69.4136 319.147 70.6816 319.12C73.1867 319.124 75.6372 318.39 77.7263 317.008C79.7578 315.577 81.2486 313.274 81.3622 310.789" fill="#DD4D32"/>
</g>
<g opacity="0.38">
<path opacity="0.38" d="M112.922 281.648C110.127 278.014 108.377 273.735 106.923 269.41C106.159 267.139 105.468 264.813 104.759 262.51C103.987 259.988 103.229 257.46 102.487 254.929C101.124 250.117 99.8752 245.262 98.742 240.365C97.6088 235.468 96.6089 230.535 95.7423 225.565C94.8697 220.608 94.1274 215.631 93.5154 210.634C93.4426 210.03 93.3699 209.421 93.3017 208.817C93.2517 208.385 93.9153 208.267 93.9653 208.699C94.541 213.662 95.2439 218.608 96.0741 223.535C96.9043 228.462 97.8633 233.364 98.951 238.239C100.042 243.115 101.254 247.96 102.587 252.775C103.95 257.691 105.437 262.578 106.982 267.439C108.345 271.754 109.918 276.097 112.468 279.877C112.777 280.331 113.104 280.785 113.44 281.239C113.704 281.58 113.181 282.012 112.918 281.666L112.922 281.648Z" fill="#DD4D32"/>
<path opacity="0.38" d="M94.1106 210.947C94.8404 209.689 95.2572 208.274 95.326 206.821C95.3948 205.368 95.1136 203.92 94.506 202.598C94.0061 201.544 93.0562 200.481 91.9018 200.636C91.4809 200.728 91.0963 200.941 90.7958 201.25C90.4952 201.558 90.2919 201.948 90.2111 202.371C90.0708 203.221 90.1378 204.092 90.4065 204.91C91.0634 207.374 92.19 209.687 93.7243 211.724" fill="#DD4D32"/>
<path opacity="0.38" d="M94.3697 215.34C95.8195 215.403 97.1285 214.499 98.1738 213.491C98.9372 212.81 99.5409 211.969 99.9417 211.029C100.137 210.556 100.22 210.045 100.183 209.535C100.147 209.024 99.9928 208.53 99.7327 208.09C99.653 207.956 99.5403 207.845 99.4054 207.767C99.2627 207.704 99.105 207.684 98.9509 207.708C98.1993 207.8 97.5146 208.185 97.0467 208.78C96.5883 209.375 96.2278 210.039 95.9786 210.747C95.3552 212.344 94.9071 214.004 94.6424 215.698" fill="#DD4D32"/>
<path opacity="0.38" d="M96.0378 223.83C96.5574 223.943 97.0965 223.931 97.6103 223.794C99.0284 223.535 100.551 223.221 101.537 222.167C102.014 221.614 102.373 220.97 102.592 220.273C102.969 219.201 103.178 217.966 102.66 216.953C102.502 216.604 102.222 216.325 101.873 216.167C101.653 216.094 101.419 216.074 101.19 216.107C100.96 216.14 100.742 216.226 100.551 216.357C100.172 216.627 99.846 216.962 99.5874 217.348C98.0793 219.314 96.8822 221.5 96.0378 223.83Z" fill="#DD4D32"/>
<path opacity="0.38" d="M97.5556 233.715C97.592 233.883 97.8147 233.92 98.0101 233.91C99.6081 233.886 101.178 233.49 102.596 232.752C104.017 232.004 105.131 230.783 105.746 229.3C105.898 228.973 105.983 228.618 105.994 228.257C106.005 227.896 105.942 227.537 105.809 227.201C105.568 226.804 105.207 226.494 104.778 226.316C104.349 226.138 103.874 226.101 103.423 226.211C102.521 226.451 101.715 226.964 101.114 227.678C99.4099 229.495 98.4237 231.853 97.4784 234.156" fill="#DD4D32"/>
<path opacity="0.38" d="M99.733 244.136C100.469 244.294 101.234 244.25 101.946 244.008C103.719 243.554 105.491 242.927 106.909 241.773C108.327 240.62 109.345 238.848 109.218 237.022C109.254 236.696 109.203 236.366 109.07 236.066C108.938 235.766 108.728 235.506 108.463 235.313C108.198 235.12 107.887 235 107.56 234.966C107.234 234.932 106.904 234.985 106.605 235.118C104.419 235.745 102.937 237.749 101.81 239.72C101.106 240.955 100.473 242.229 99.9148 243.536" fill="#DD4D32"/>
<path opacity="0.38" d="M103.287 256.486C105.226 256.378 107.118 255.851 108.832 254.94C110.547 254.029 112.043 252.757 113.218 251.212C114.127 250.022 114.795 248.341 113.981 247.096C113.693 246.708 113.307 246.403 112.862 246.213C112.417 246.023 111.93 245.955 111.45 246.015C110.489 246.152 109.585 246.552 108.836 247.169C106.109 249.218 104.614 252.443 103.21 255.536" fill="#DD4D32"/>
<path opacity="0.38" d="M95.5653 223.976C94.3064 221.887 92.0657 220.624 89.8933 219.52C89.3661 219.252 88.7253 218.989 88.2117 219.284C87.9992 219.444 87.8359 219.66 87.7403 219.908C87.6447 220.156 87.6207 220.426 87.6708 220.687C87.8035 221.619 88.2923 222.462 89.0343 223.041C89.7705 223.612 90.6216 224.018 91.5295 224.231C92.94 224.636 94.4328 224.661 95.8562 224.303" fill="#DD4D32"/>
<path opacity="0.38" d="M94.3883 215.091C93.1294 213.001 90.8887 211.738 88.7163 210.634C88.1891 210.366 87.5482 210.103 87.0346 210.398C86.8222 210.558 86.6589 210.774 86.5633 211.023C86.4677 211.271 86.4436 211.541 86.4938 211.802C86.6265 212.733 87.1152 213.576 87.8573 214.155C88.5946 214.725 89.4453 215.131 90.3524 215.345C91.763 215.75 93.2558 215.775 94.6792 215.418" fill="#DD4D32"/>
<path opacity="0.38" d="M97.5649 233.569C96.8024 232.211 95.7415 231.043 94.4623 230.154C93.1831 229.265 91.7187 228.678 90.1795 228.436C89.5023 228.331 88.7343 228.322 88.2071 228.767C87.9879 228.973 87.8254 229.231 87.7354 229.518C87.6455 229.804 87.631 230.109 87.6935 230.403C87.8291 230.989 88.1267 231.526 88.5525 231.952C89.5213 232.948 90.7621 233.637 92.1202 233.932C93.4722 234.223 94.86 234.31 96.2378 234.191C96.7904 234.21 97.3331 234.042 97.7786 233.714" fill="#DD4D32"/>
<path opacity="0.38" d="M99.9282 243.703C98.2602 241.359 95.5015 240.069 92.8064 239.065C91.7656 238.675 90.5748 238.311 89.5704 238.797C88.3205 239.402 87.9751 241.164 88.5887 242.404C89.2022 243.644 90.5112 244.412 91.8474 244.798C94.3607 245.525 97.1058 245.134 99.5146 244.108" fill="#DD4D32"/>
<path opacity="0.38" d="M103.264 255.669C101.96 253.907 99.9236 252.794 97.8102 252.199C95.6968 251.604 93.4835 251.486 91.2928 251.368C90.2293 251.308 89.0204 251.318 88.3159 252.135C88.0969 252.427 87.9543 252.769 87.9011 253.13C87.8479 253.491 87.8859 253.86 88.0114 254.202C88.2669 254.888 88.6922 255.497 89.2476 255.974C91.9745 258.549 96.2422 259.122 99.8463 258.027C101.382 257.573 102.919 256.741 103.709 255.347" fill="#DD4D32"/>
<path opacity="0.38" d="M107.309 270.505C107.309 270.723 107.609 270.787 107.827 270.755C109.755 270.472 111.586 269.731 113.168 268.595C114.749 267.458 116.035 265.959 116.917 264.223C117.268 263.569 117.485 262.85 117.553 262.111C117.536 260.961 117.171 259.843 116.508 258.904C116.387 258.66 116.197 258.456 115.963 258.318C115.63 258.193 115.261 258.202 114.936 258.345C112.577 259.085 110.663 260.934 109.482 263.106C108.364 265.322 107.727 267.749 107.614 270.228" fill="#DD4D32"/>
<path opacity="0.38" d="M107.891 270.882C106.93 269.391 105.578 268.192 103.982 267.416C102.39 266.652 100.724 266.054 99.0099 265.631C97.7555 265.286 96.442 264.954 95.1695 265.213C93.8969 265.472 92.6834 266.508 92.6698 267.807C92.6561 269.106 93.7151 270.078 94.765 270.791C96.8028 272.246 99.2248 273.068 101.728 273.153C104.218 273.153 106.764 272.145 108.295 270.183" fill="#DD4D32"/>
</g>
<g opacity="0.38">
<path opacity="0.38" d="M251.96 289.889C252.655 285.347 254.523 281.122 256.65 277.093C257.773 274.962 258.963 272.864 260.14 270.756C261.431 268.458 262.727 266.159 264.058 263.883C266.585 259.553 269.226 255.29 271.98 251.096C274.734 246.901 277.613 242.768 280.615 238.695C283.594 234.633 286.677 230.654 289.864 226.757L291.028 225.344C291.305 225.012 291.85 225.407 291.573 225.744C288.385 229.593 285.299 233.521 282.315 237.527C279.331 241.534 276.452 245.622 273.68 249.792C270.901 253.95 268.239 258.176 265.694 262.47C263.09 266.859 260.586 271.31 258.141 275.789C255.973 279.764 253.914 283.898 252.95 288.349C252.835 288.889 252.735 289.434 252.65 289.985C252.587 290.412 251.914 290.33 251.982 289.903L251.96 289.889Z" fill="#DD4D32"/>
<path opacity="0.38" d="M290.028 227.401C291.441 227.056 292.75 226.378 293.846 225.422C294.943 224.466 295.793 223.262 296.327 221.909C296.745 220.824 296.854 219.402 295.941 218.675C295.582 218.437 295.162 218.311 294.732 218.311C294.302 218.311 293.881 218.437 293.523 218.675C292.809 219.158 292.224 219.809 291.818 220.569C290.494 222.749 289.602 225.162 289.191 227.678" fill="#DD4D32"/>
<path opacity="0.38" d="M287.032 230.631C287.991 231.717 289.55 232.039 290.996 232.094C292.018 232.176 293.045 232.03 294.004 231.667C294.481 231.48 294.907 231.186 295.251 230.807C295.594 230.428 295.844 229.974 295.981 229.482C296.022 229.333 296.022 229.176 295.981 229.027C295.928 228.886 295.837 228.762 295.718 228.668C295.131 228.188 294.378 227.959 293.623 228.032C292.875 228.11 292.146 228.309 291.464 228.623C289.879 229.277 288.37 230.103 286.964 231.085" fill="#DD4D32"/>
<path opacity="0.38" d="M282.051 237.723C282.329 238.177 282.71 238.558 283.165 238.835C284.333 239.68 285.615 240.562 287.055 240.543C287.786 240.508 288.501 240.321 289.155 239.994C290.191 239.54 291.228 238.822 291.605 237.723C291.744 237.368 291.752 236.975 291.627 236.614C291.528 236.404 291.381 236.22 291.198 236.077C291.015 235.933 290.801 235.834 290.573 235.787C290.122 235.706 289.66 235.706 289.21 235.787C286.738 236.061 284.324 236.713 282.051 237.723Z" fill="#DD4D32"/>
<path opacity="0.38" d="M275.957 245.639C275.866 245.785 275.993 245.966 276.121 246.094C277.242 247.228 278.613 248.085 280.125 248.597C281.647 249.107 283.301 249.067 284.797 248.483C285.14 248.368 285.456 248.184 285.725 247.942C285.994 247.7 286.211 247.405 286.36 247.075C286.479 246.627 286.453 246.152 286.286 245.72C286.119 245.287 285.818 244.919 285.428 244.667C284.63 244.183 283.702 243.956 282.77 244.018C280.279 244.045 277.893 244.967 275.571 245.871" fill="#DD4D32"/>
<path opacity="0.38" d="M269.939 254.42C270.33 255.062 270.89 255.584 271.557 255.928C273.112 256.896 274.793 257.745 276.611 257.963C278.429 258.181 280.42 257.709 281.638 256.346C281.906 256.095 282.108 255.78 282.223 255.431C282.338 255.082 282.363 254.709 282.297 254.348C282.095 253.824 281.706 253.393 281.206 253.139C279.243 251.994 276.77 252.312 274.566 252.867C273.18 253.211 271.814 253.634 270.476 254.134" fill="#DD4D32"/>
<path opacity="0.38" d="M263.476 265.527C264.891 266.858 266.579 267.863 268.423 268.475C270.267 269.086 272.222 269.288 274.152 269.066C275.634 268.884 277.334 268.221 277.656 266.767C277.737 266.291 277.689 265.802 277.518 265.35C277.347 264.898 277.059 264.5 276.684 264.196C275.921 263.596 275.007 263.22 274.043 263.11C270.689 262.565 267.312 263.71 264.103 264.832" fill="#DD4D32"/>
<path opacity="0.38" d="M281.62 237.464C282.261 235.115 281.62 232.621 280.915 230.291C280.743 229.723 280.493 229.078 279.924 228.928C279.661 228.886 279.392 228.918 279.146 229.021C278.901 229.124 278.688 229.293 278.534 229.509C277.956 230.249 277.684 231.183 277.775 232.117C277.87 233.043 278.165 233.937 278.638 234.738C279.321 236.038 280.336 237.135 281.579 237.918" fill="#DD4D32"/>
<path opacity="0.38" d="M287.237 230.454C287.878 228.101 287.237 225.612 286.533 223.277C286.364 222.714 286.11 222.069 285.542 221.914C285.283 221.876 285.019 221.91 284.778 222.013C284.537 222.115 284.33 222.282 284.178 222.496C283.597 223.232 283.324 224.165 283.415 225.099C283.511 226.026 283.805 226.921 284.278 227.724C284.964 229.022 285.978 230.119 287.219 230.904" fill="#DD4D32"/>
<path opacity="0.38" d="M276.07 245.548C276.524 244.058 276.634 242.484 276.392 240.946C276.15 239.407 275.563 237.943 274.675 236.663C274.275 236.1 273.766 235.541 273.066 235.468C272.766 235.453 272.467 235.515 272.198 235.649C271.929 235.782 271.699 235.983 271.53 236.231C271.202 236.735 271.022 237.32 271.007 237.921C270.957 239.309 271.318 240.68 272.044 241.864C272.768 243.041 273.664 244.103 274.702 245.017C275.071 245.43 275.569 245.706 276.116 245.798" fill="#DD4D32"/>
<path opacity="0.38" d="M270.385 254.257C270.926 251.436 269.93 248.556 268.808 245.912C268.353 244.89 267.808 243.782 266.767 243.391C265.467 242.91 263.949 243.877 263.476 245.181C263.004 246.485 263.358 247.957 264.004 249.188C265.217 251.504 267.399 253.212 269.808 254.244" fill="#DD4D32"/>
<path opacity="0.38" d="M264.058 264.945C264.426 262.787 263.826 260.548 262.795 258.613C261.694 256.711 260.383 254.939 258.886 253.33C258.195 252.526 257.336 251.644 256.273 251.717C255.91 251.76 255.564 251.893 255.266 252.104C254.969 252.315 254.729 252.598 254.568 252.925C254.25 253.584 254.105 254.312 254.146 255.042C254.187 258.813 256.709 262.269 259.995 264.127C261.395 264.913 263.045 265.454 264.604 265.063" fill="#DD4D32"/>
<path opacity="0.38" d="M256.127 278.151C255.959 278.292 256.127 278.56 256.305 278.696C257.841 279.887 259.641 280.692 261.553 281.045C263.465 281.397 265.434 281.286 267.294 280.722C268.012 280.527 268.682 280.185 269.262 279.718C270.079 278.91 270.635 277.875 270.857 276.747C270.924 276.604 270.959 276.448 270.96 276.29C270.961 276.132 270.928 275.975 270.864 275.831C270.799 275.687 270.704 275.558 270.586 275.453C270.467 275.349 270.327 275.271 270.176 275.225C268.003 274.035 265.349 273.931 262.958 274.585C260.584 275.304 258.391 276.52 256.523 278.151" fill="#DD4D32"/>
<path opacity="0.38" d="M256.268 278.801C256.683 277.075 256.612 275.269 256.064 273.581C255.519 271.903 254.8 270.286 253.918 268.757C253.3 267.612 252.632 266.436 251.564 265.7C250.496 264.964 248.905 264.791 247.956 265.7C247.006 266.608 247.047 268.026 247.251 269.275C247.614 271.752 248.698 274.068 250.369 275.934C251.208 276.857 252.246 277.578 253.404 278.042C254.562 278.506 255.81 278.702 257.054 278.614" fill="#DD4D32"/>
</g>
<path d="M202.638 218.161C189.181 218.729 174.615 222.79 164.766 231.97C163.934 232.747 163.111 233.601 162.748 234.696C162.216 236.272 162.748 237.985 163.266 239.57C169.088 258.031 169.396 277.788 164.152 296.421C162.789 301.263 161.025 306.046 160.553 311.057C160.08 316.067 161.08 321.505 164.543 325.139C166.081 326.671 167.87 327.928 169.833 328.855C180.609 334.306 193.258 334.092 205.32 333.592C212.755 333.284 220.268 332.897 227.426 330.867C234.584 328.836 241.461 324.989 245.81 318.956C250.301 312.728 251.719 304.82 252.273 297.152C253.573 279.767 251.21 262.338 250.882 244.912C250.787 239.847 250.882 234.623 252.873 229.954C243.683 223.594 232.698 219.742 221.741 217.566C219.391 220.696 216.087 222.108 212.196 222.322C208.306 222.535 205.32 221.041 202.652 218.166" fill="#DD4D32"/>
<path d="M166.256 308.858C166.711 303.861 163.129 298.051 164.397 293.209C167.624 280.903 173.701 268.938 172.392 256.228C175.155 257.59 177.659 259.439 179.082 262.169C180.255 264.413 180.555 267.025 180.586 269.565C180.641 274.643 179.677 279.681 179.491 284.755C179.305 289.829 179.946 295.203 182.786 299.332C186.086 304.129 191.776 306.55 197.33 308.036C201.075 308.99 204.868 309.748 208.692 310.307C213.078 310.997 217.536 311.579 221.936 311.011C226.335 310.443 230.73 308.631 233.607 305.192C238.193 299.741 238.052 291.828 238.879 284.691C239.793 276.847 242.151 269.239 245.833 262.251C246.933 260.166 248.224 258.067 250.205 256.845C250.887 269.565 258.259 282.938 257.381 295.634C256.854 303.289 249.114 310.552 244.969 316.78C240.952 322.817 234.602 326.66 227.99 328.695C221.377 330.73 214.446 331.116 207.578 331.421C196.439 331.92 184.754 332.125 174.805 326.678C172.971 325.737 171.318 324.481 169.919 322.967C166.738 319.292 165.82 313.868 166.256 308.858Z" fill="#FFA748"/>
<path d="M247.269 226.491C243.115 244.961 246.697 266.757 251.31 285.118C252.673 290.569 252.391 296.551 250.437 299.327C248.41 302.198 244.92 303.915 241.724 305.382C234.307 308.803 229.149 312.832 223.486 318.719C221.213 321.077 219.136 323.716 218.155 326.855C217.173 329.994 217.459 333.646 219.55 336.167C221.545 338.579 224.84 339.574 227.972 339.574C231.103 339.574 234.153 338.702 237.202 337.989C242.307 336.794 247.501 336.017 252.732 335.663C257.277 335.359 261.863 335.359 266.212 334.082C272.407 332.265 277.729 327.863 280.988 322.299C284.199 316.65 285.546 310.132 284.837 303.674C284.487 300.235 283.619 296.86 282.719 293.531C279.002 279.703 273.88 267.592 269.185 254.065C267.262 248.527 263.731 242.254 260.345 237.489C256.959 232.724 253.05 227.495 247.269 226.505" fill="#DD4D32"/>
<path d="M245.756 261.665C243.247 250.254 244.138 237.63 246.819 226.369C246.96 225.783 247.86 226.033 247.728 226.619C245.818 234.648 245.053 242.906 245.456 251.149C245.565 254.598 245.96 258.032 246.637 261.415C246.769 262.001 245.865 262.251 245.728 261.66L245.756 261.665Z" fill="white"/>
<path d="M211.701 326.983C211.701 326.983 224.072 323.912 228.699 326.561C233.325 329.209 240.356 333.079 240.147 338.003V340.02C240.147 340.02 206.97 340.988 204.288 338.003" fill="#E8A17E"/>
<path d="M174.742 225.102C168.67 225.807 162.016 232.875 157.835 238.989C153.653 245.103 150.776 252.013 147.954 258.867L132.083 297.366C130.442 301.345 128.793 305.356 127.993 309.585C127.33 313.102 127.27 316.706 127.815 320.242C128.27 323.136 129.152 326.034 130.961 328.332C133.519 331.585 137.555 333.238 141.414 334.692C149.595 337.795 157.953 340.702 166.665 341.302C170.103 341.483 173.549 341.483 176.987 341.302C186.486 340.956 196.025 340.602 205.374 338.871C206.056 338.798 206.711 338.563 207.283 338.185C207.809 337.707 208.212 337.109 208.456 336.441C209.398 334.388 210.337 332.333 211.273 330.277C211.801 329.132 212.337 327.919 212.237 326.643C212.101 324.953 210.873 323.586 209.615 322.436C206.314 319.382 202.538 316.886 198.434 315.045C190.008 311.271 180.386 310.326 172.474 305.57C171.498 305.022 170.604 304.341 169.815 303.548C166.897 300.45 167.088 295.467 168.706 291.542C170.324 287.617 171.487 283.87 173.096 279.931C176.669 271.173 178.455 265.463 178.65 257.977C178.927 247.32 178.132 235.178 174.728 225.075" fill="#DD4D32"/>
<path d="M206.833 320.338C205.751 321.882 204.837 323.537 204.106 325.275C202.16 329.702 201.002 334.433 200.684 339.257C200.643 339.857 199.707 339.862 199.748 339.257C200.071 334.406 201.215 329.645 203.129 325.175C203.889 323.297 204.86 321.511 206.024 319.852C206.374 319.37 207.188 319.852 206.829 320.306L206.833 320.338Z" fill="#FFA748"/>
<path d="M178.614 262.17C179.396 249.959 178.455 236.777 174.292 225.229C174.087 224.662 174.992 224.416 175.201 224.98C179.391 236.595 180.346 249.891 179.559 262.17C179.523 262.769 178.587 262.774 178.623 262.17H178.614Z" fill="white"/>
<path d="M40.1628 342.923H479.65C480.41 342.923 481.027 343.54 481.027 344.3V349.624C481.027 350.384 480.41 351 479.65 351H40.1628C39.4023 351 38.7857 350.384 38.7857 349.624V344.3C38.7857 343.54 39.4023 342.923 40.1628 342.923Z" fill="#345D95"/>
<path d="M154.417 339.175H304.812C304.938 339.175 305.039 339.277 305.039 339.402V342.7C305.039 342.826 304.938 342.927 304.812 342.927H154.417C154.292 342.927 154.19 342.826 154.19 342.7V339.402C154.19 339.277 154.292 339.175 154.417 339.175Z" fill="white"/>
<path d="M238.843 342.927H367.541L373.758 253.616H247.642L238.843 342.927Z" fill="white"/>
<path d="M243.22 342.927H371.917L378.135 253.616H252.019L243.22 342.927Z" fill="#C5E1F9"/>
<path opacity="0.27" d="M310.68 305.951C306.435 305.951 302.994 302.512 302.994 298.269C302.994 294.027 306.435 290.588 310.68 290.588C314.924 290.588 318.365 294.027 318.365 298.269C318.365 302.512 314.924 305.951 310.68 305.951Z" fill="white"/>
<path opacity="0.07" d="M377.058 269.065L371.918 342.864H243.22L244.938 325.393C312.688 316.653 359.337 283.629 377.058 269.065Z" fill="white"/>
</svg>
