<svg width="250" height="250" viewBox="0 0 250 250" fill="none" xmlns="http://www.w3.org/2000/svg">
<path d="M144.2 196C144.2 196 183.13 197.82 207.755 153.825C232.38 109.83 203.405 69.3598 158.645 60.6148C113.885 51.8698 91.5849 19.0348 51.6899 44.1698C11.7949 69.3048 33.9649 203.165 144.2 196Z" fill="#DD4D32"/>
<path opacity="0.4" d="M144.2 196C144.2 196 183.13 197.82 207.755 153.825C232.38 109.83 203.405 69.3598 158.645 60.6148C113.885 51.8698 91.5849 19.0348 51.6899 44.1698C11.7949 69.3048 33.9649 203.165 144.2 196Z" fill="white"/>
<path d="M125.005 215.61C176.809 215.61 218.805 213.006 218.805 209.795C218.805 206.583 176.809 203.98 125.005 203.98C73.2006 203.98 31.205 206.583 31.205 209.795C31.205 213.006 73.2006 215.61 125.005 215.61Z" fill="#DD4D32"/>
<path opacity="0.7" d="M125.005 215.61C176.809 215.61 218.805 213.006 218.805 209.795C218.805 206.583 176.809 203.98 125.005 203.98C73.2006 203.98 31.205 206.583 31.205 209.795C31.205 213.006 73.2006 215.61 125.005 215.61Z" fill="white"/>
<path d="M145.54 56.6199L145.27 58.9099L146.51 59.3499C146.528 60.1348 146.637 60.9151 146.835 61.6749L145.76 62.4549L146.665 64.5799L147.97 64.3349C148.377 65.0054 148.86 65.6262 149.41 66.1849L148.865 67.4049L150.715 68.7849L151.715 67.9349C152.402 68.3136 153.133 68.6091 153.89 68.8149L154.03 70.1399L156.315 70.4149L156.76 69.1699C157.545 69.1519 158.325 69.0428 159.085 68.8449L159.87 69.9149L162 68.9999L161.765 67.6999C162.434 67.2929 163.053 66.8097 163.61 66.2599L164.83 66.8049L166.21 64.9549L165.355 63.9549C165.735 63.2696 166.03 62.541 166.235 61.7849L167.56 61.6449L167.835 59.3549L166.59 58.9099C166.574 58.1264 166.465 57.3475 166.265 56.5899L167.345 55.8049L166.435 53.6799L165.135 53.9199C164.726 53.2511 164.241 52.632 163.69 52.0749L164.23 50.8599L162.365 49.4999L161.365 50.3549C160.681 49.9804 159.956 49.6852 159.205 49.4749L159.065 48.1499L156.775 47.8799L156.33 49.1199C155.546 49.1392 154.768 49.25 154.01 49.4499L153.225 48.3749L151.1 49.2799L151.34 50.5799C150.674 50.9808 150.057 51.4573 149.5 51.9999L148.285 51.4599L146.9 53.3099L147.755 54.3099C147.377 54.9975 147.081 55.7276 146.875 56.4849L145.54 56.6199ZM150.855 58.4549C150.989 57.329 151.454 56.2681 152.191 55.4065C152.928 54.545 153.904 53.9215 154.996 53.6149C156.087 53.3084 157.246 53.3326 158.323 53.6846C159.401 54.0365 160.35 54.7003 161.051 55.5919C161.751 56.4836 162.171 57.563 162.258 58.6935C162.345 59.824 162.094 60.9549 161.538 61.9429C160.982 62.9309 160.145 63.7316 159.133 64.2438C158.121 64.7559 156.981 64.9564 155.855 64.8199V64.8199C154.349 64.6372 152.976 63.8645 152.039 62.6712C151.102 61.478 150.676 59.9616 150.855 58.4549Z" stroke="#263238" stroke-width="1.57112" stroke-linejoin="round"/>
<path d="M85.8051 112.97L85.5601 115.045L86.6851 115.445C86.7008 116.156 86.7998 116.862 86.9801 117.55L85.9801 118.26L86.8001 120.185L87.9801 119.96C88.3493 120.566 88.7872 121.128 89.2851 121.635L88.7851 122.74L90.5001 124L91.4051 123.225C92.0272 123.57 92.6886 123.838 93.3751 124.025L93.5001 125.225L95.5751 125.475L95.9751 124.345C96.6859 124.33 97.3925 124.231 98.0801 124.05L98.7901 125.025L100.71 124.2L100.5 123C101.107 122.631 101.669 122.193 102.175 121.695L103.28 122.195L104.53 120.525L103.755 119.61C104.099 118.989 104.367 118.329 104.555 117.645L105.755 117.515L106 115.44L104.875 115.04C104.859 114.329 104.76 113.623 104.58 112.935L105.58 112.225L104.755 110.3L103.58 110.515C103.207 109.911 102.766 109.352 102.265 108.85L102.765 107.745L101.05 106.5L100.14 107.275C99.5206 106.933 98.8627 106.666 98.1801 106.48L98.0551 105.28L95.9801 105.03L95.5801 106.16C94.8693 106.175 94.1627 106.274 93.4751 106.455L92.7651 105.5L90.8401 106.32L91.0551 107.5C90.4482 107.869 89.8861 108.307 89.3801 108.805L88.2751 108.305L87.0251 109.98L87.8001 110.89C87.4573 111.513 87.1888 112.174 87.0001 112.86L85.8051 112.97ZM90.6201 114.63C90.742 113.611 91.1633 112.651 91.8307 111.871C92.4982 111.091 93.3818 110.527 94.37 110.249C95.3581 109.972 96.4063 109.994 97.3821 110.312C98.3579 110.63 99.2175 111.23 99.8521 112.037C100.487 112.843 100.868 113.82 100.948 114.843C101.027 115.867 100.802 116.891 100.3 117.786C99.7974 118.681 99.0411 119.407 98.1263 119.872C97.2115 120.337 96.1792 120.521 95.1601 120.4C93.7933 120.236 92.5474 119.536 91.6962 118.454C90.8449 117.372 90.4579 115.997 90.6201 114.63Z" fill="#263238"/>
<path d="M191.54 163.875V159.17L188.915 158.575C188.693 156.989 188.283 155.435 187.695 153.945L189.695 152.1L187.335 148L184.755 148.815C183.767 147.556 182.636 146.417 181.385 145.42L182.2 142.815L178.115 140.46L176.29 142.425C174.805 141.826 173.254 141.404 171.67 141.17L171.07 138.52H166.365L165.765 141.15C164.179 141.371 162.624 141.78 161.135 142.37L159.29 140.37L155.215 142.72L156.01 145.3C154.751 146.286 153.612 147.415 152.615 148.665L150.015 147.86L147.665 151.93L149.635 153.765C149.036 155.248 148.615 156.798 148.38 158.38L145.73 158.985V163.69L148.355 164.29C148.58 165.874 148.99 167.426 149.575 168.915L147.575 170.765L149.93 174.85L152.505 174.055C153.495 175.31 154.63 176.445 155.885 177.435L155.08 180.04L159.17 182.395L160.995 180.395C162.471 180.995 164.014 181.418 165.59 181.655L166.19 184.305H170.9L171.495 181.68C173.083 181.452 174.638 181.039 176.13 180.45L177.975 182.45L182.06 180.095L181.265 177.52C182.525 176.535 183.664 175.406 184.66 174.155L187.26 174.96L189.615 170.87L187.64 169.04C188.239 167.554 188.662 166.004 188.9 164.42L191.54 163.875ZM183.405 161.445C183.405 164.366 182.539 167.222 180.916 169.651C179.293 172.08 176.986 173.973 174.287 175.091C171.588 176.209 168.619 176.501 165.754 175.931C162.888 175.361 160.257 173.955 158.191 171.889C156.125 169.823 154.719 167.192 154.149 164.326C153.579 161.461 153.871 158.492 154.989 155.793C156.107 153.094 158 150.787 160.429 149.164C162.858 147.541 165.714 146.675 168.635 146.675C172.552 146.675 176.309 148.231 179.079 151.001C181.849 153.771 183.405 157.528 183.405 161.445Z" fill="white"/>
<path d="M109.79 47.0752H97.67V49.8702H109.79V47.0752Z" fill="#DD4D32"/>
<path d="M105.635 51.1147H97.67V53.9097H105.635V51.1147Z" fill="#DD4D32"/>
<path d="M102.255 55.1548H97.67V57.9498H102.255V55.1548Z" fill="#DD4D32"/>
<path opacity="0.2" d="M109.79 47.0752H97.67V49.8702H109.79V47.0752Z" fill="black"/>
<path opacity="0.2" d="M105.635 51.1147H97.67V53.9097H105.635V51.1147Z" fill="black"/>
<path opacity="0.2" d="M102.255 55.1548H97.67V57.9498H102.255V55.1548Z" fill="black"/>
<path d="M80.735 78.0352H76.625V86.4551H80.735V78.0352Z" fill="#DD4D32"/>
<path d="M86.6701 80.9302H82.5601V86.4602H86.6701V80.9302Z" fill="#DD4D32"/>
<path d="M92.61 83.2749H88.5V86.4599H92.61V83.2749Z" fill="#DD4D32"/>
<path opacity="0.2" d="M80.735 78.0352H76.625V86.4551H80.735V78.0352Z" fill="black"/>
<path opacity="0.2" d="M86.6701 80.9302H82.5601V86.4602H86.6701V80.9302Z" fill="black"/>
<path opacity="0.2" d="M92.61 83.2749H88.5V86.4599H92.61V83.2749Z" fill="black"/>
<path d="M125.47 92.83H75.705C75.0219 92.8313 74.3453 92.6979 73.7139 92.4374C73.0824 92.1769 72.5086 91.7945 72.0251 91.3119C71.5417 90.8294 71.1581 90.2563 70.8964 89.6253C70.6347 88.9944 70.5 88.318 70.5 87.635V46.55C70.5026 45.173 71.0508 43.8532 72.0245 42.8795C72.9982 41.9058 74.318 41.3576 75.695 41.355H125.46C126.143 41.3543 126.819 41.4882 127.45 41.7489C128.081 42.0096 128.655 42.3921 129.138 42.8745C129.622 43.3569 130.005 43.9298 130.267 44.5604C130.529 45.191 130.664 45.8671 130.665 46.55V87.635C130.665 89.0128 130.118 90.3341 129.143 91.3084C128.169 92.2826 126.848 92.83 125.47 92.83ZM75.705 41.83C74.4487 41.8326 73.2446 42.3329 72.3562 43.2212C71.4679 44.1096 70.9676 45.3137 70.965 46.57V87.655C70.9676 88.9113 71.4679 90.1154 72.3562 91.0037C73.2446 91.8921 74.4487 92.3923 75.705 92.395H125.47C126.726 92.3923 127.93 91.8921 128.819 91.0037C129.707 90.1154 130.207 88.9113 130.21 87.655V46.55C130.207 45.2937 129.707 44.0896 128.819 43.2012C127.93 42.3129 126.726 41.8126 125.47 41.81L75.705 41.83Z" fill="#263238"/>
<path d="M124.83 78.2651H107.085V78.7201H124.83V78.2651Z" fill="#263238"/>
<path d="M124.83 80.1699H107.085V80.6249H124.83V80.1699Z" fill="#263238"/>
<path d="M124.83 82.0698H107.085V82.5248H124.83V82.0698Z" fill="#263238"/>
<path d="M124.83 83.9697H107.085V84.4247H124.83V83.9697Z" fill="#263238"/>
<path d="M124.83 85.8701H107.085V86.3251H124.83V85.8701Z" fill="#263238"/>
<path d="M93.8251 47.2651H76.0801V47.7201H93.8251V47.2651Z" fill="#263238"/>
<path d="M93.8251 49.165H76.0801V49.62H93.8251V49.165Z" fill="#263238"/>
<path d="M93.8251 51.0649H76.0801V51.5199H93.8251V51.0649Z" fill="#263238"/>
<path d="M93.8251 52.9648H76.0801V53.4198H93.8251V52.9648Z" fill="#263238"/>
<path d="M93.8251 54.8652H76.0801V55.3202H93.8251V54.8652Z" fill="#263238"/>
<path d="M121.325 62.6149L124.505 64.2849L124.14 55.3149L116.555 60.1149L119.735 61.7799L117.34 66.3349C116.918 66.3344 116.508 66.4753 116.175 66.7349L111.95 64.7799V64.7549C111.968 64.2452 111.785 63.7488 111.44 63.3733C111.095 62.9977 110.616 62.7731 110.106 62.7481C109.597 62.7231 109.098 62.8998 108.718 63.2398C108.338 63.5798 108.107 64.0559 108.075 64.5649C108.07 64.6282 108.07 64.6917 108.075 64.7549C108.078 65.0324 108.137 65.3064 108.25 65.5599L102.75 71.5599C102.574 71.5045 102.39 71.4759 102.205 71.4749C102.109 71.475 102.014 71.4851 101.92 71.5049L94 61.4499C94.1809 60.985 94.1753 60.4682 93.9844 60.0073C93.7934 59.5464 93.4317 59.1771 92.975 58.9764C92.5182 58.7758 92.0016 58.7593 91.533 58.9305C91.0643 59.1016 90.6799 59.4471 90.46 59.8949C90.3505 60.1368 90.2942 60.3994 90.295 60.6649C90.301 60.8636 90.3347 61.0605 90.395 61.2499L81.37 70.4999C81.011 70.3704 80.6217 70.35 80.2511 70.4411C79.8805 70.5323 79.5451 70.731 79.2872 71.0123C79.0292 71.2936 78.8602 71.6449 78.8014 72.022C78.7426 72.3991 78.7967 72.7852 78.9567 73.1317C79.1168 73.4781 79.3757 73.7695 79.701 73.9692C80.0263 74.1688 80.4033 74.2679 80.7847 74.2538C81.1661 74.2397 81.5348 74.1132 81.8445 73.8901C82.1541 73.667 82.3909 73.3573 82.525 72.9999C82.6007 72.7864 82.6396 72.5615 82.64 72.3349C82.6405 72.176 82.6186 72.0178 82.575 71.8649L91.7 62.4999C91.879 62.5594 92.0663 62.5898 92.255 62.5899C92.3742 62.5907 92.4932 62.579 92.61 62.5549L100.485 72.5549C100.238 73.0111 100.182 73.5468 100.329 74.0443C100.477 74.5417 100.816 74.9601 101.272 75.2074C101.729 75.4547 102.264 75.5107 102.762 75.363C103.259 75.2153 103.678 74.8761 103.925 74.4199C104.065 74.1662 104.145 73.8842 104.16 73.5949C104.165 73.53 104.165 73.4648 104.16 73.3999C104.157 73.1977 104.123 72.9971 104.06 72.8049L109.69 66.6749C109.797 66.6948 109.906 66.7049 110.015 66.7049C110.4 66.7048 110.776 66.5899 111.095 66.3749L115.395 68.3749C115.403 68.6317 115.462 68.8844 115.568 69.1182C115.675 69.352 115.827 69.5622 116.016 69.7366C116.204 69.911 116.426 70.0461 116.667 70.134C116.908 70.2219 117.165 70.2608 117.422 70.2485C117.678 70.2363 117.93 70.173 118.162 70.0624C118.394 69.9519 118.601 69.7963 118.772 69.6046C118.943 69.413 119.075 69.1892 119.158 68.9463C119.242 68.7034 119.277 68.4463 119.26 68.1899C119.241 67.8308 119.122 67.4843 118.915 67.1899L121.325 62.6149Z" fill="#263238"/>
<path d="M125.585 98.135C124.802 98.1363 124.052 98.4482 123.499 99.0023C122.946 99.5563 122.635 100.307 122.635 101.09V126.695C122.635 127.477 122.946 128.228 123.499 128.781C124.052 129.334 124.803 129.645 125.585 129.645H156.585C157.368 129.645 158.119 129.334 158.673 128.781C159.227 128.228 159.539 127.478 159.54 126.695V101.075C159.539 100.292 159.227 99.5418 158.673 98.9887C158.119 98.4356 157.368 98.125 156.585 98.125L125.585 98.135Z" stroke="#263238" stroke-linejoin="round"/>
<path d="M127.435 101.625H125.08V101.94H127.435V101.625Z" fill="#263238"/>
<path d="M127.435 104.195H125.08V104.51H127.435V104.195Z" fill="#263238"/>
<path d="M127.435 106.765H125.08V107.08H127.435V106.765Z" fill="#263238"/>
<path d="M127.435 109.34H125.08V109.655H127.435V109.34Z" fill="#263238"/>
<path d="M127.345 104.195H124.99V104.51H127.345V104.195Z" fill="#263238"/>
<path d="M127.435 111.91H125.08V112.225H127.435V111.91Z" fill="#263238"/>
<path d="M142.88 125.82C145.115 125.866 147.313 125.248 149.196 124.045C151.079 122.841 152.563 121.106 153.459 119.058C154.356 117.011 154.625 114.744 154.232 112.543C153.84 110.343 152.803 108.309 151.254 106.698C149.705 105.087 147.712 103.972 145.529 103.494C143.346 103.016 141.07 103.196 138.989 104.012C136.908 104.828 135.116 106.243 133.84 108.078C132.564 109.913 131.861 112.085 131.82 114.32C131.764 117.311 132.897 120.202 134.971 122.358C137.044 124.515 139.889 125.76 142.88 125.82ZM143.275 106.55C144.857 106.582 146.394 107.082 147.692 107.988C148.989 108.893 149.989 110.163 150.565 111.637C151.141 113.111 151.266 114.723 150.926 116.268C150.586 117.813 149.795 119.223 148.654 120.319C147.513 121.415 146.072 122.148 144.514 122.425C142.956 122.702 141.351 122.511 139.902 121.876C138.453 121.24 137.224 120.19 136.372 118.856C135.52 117.523 135.083 115.967 135.115 114.385C135.158 112.264 136.042 110.247 137.573 108.778C139.103 107.308 141.154 106.507 143.275 106.55Z" fill="#DD4D32"/>
<path opacity="0.2" d="M142.88 125.82C145.115 125.866 147.313 125.248 149.196 124.045C151.079 122.841 152.563 121.106 153.459 119.058C154.356 117.011 154.625 114.744 154.232 112.543C153.84 110.343 152.803 108.309 151.254 106.698C149.705 105.087 147.712 103.972 145.529 103.494C143.346 103.016 141.07 103.196 138.989 104.012C136.908 104.828 135.116 106.243 133.84 108.078C132.564 109.913 131.861 112.085 131.82 114.32C131.764 117.311 132.897 120.202 134.971 122.358C137.044 124.515 139.889 125.76 142.88 125.82ZM143.275 106.55C144.857 106.582 146.394 107.082 147.692 107.988C148.989 108.893 149.989 110.163 150.565 111.637C151.141 113.111 151.266 114.723 150.926 116.268C150.586 117.813 149.795 119.223 148.654 120.319C147.513 121.415 146.072 122.148 144.514 122.425C142.956 122.702 141.351 122.511 139.902 121.876C138.453 121.24 137.224 120.19 136.372 118.856C135.52 117.523 135.083 115.967 135.115 114.385C135.158 112.264 136.042 110.247 137.573 108.778C139.103 107.308 141.154 106.507 143.275 106.55Z" fill="black"/>
<path d="M135 122.61C136.063 123.682 137.327 124.535 138.72 125.119C140.113 125.703 141.608 126.007 143.118 126.014C144.628 126.02 146.125 125.729 147.523 125.157C148.921 124.585 150.192 123.743 151.265 122.68C151.304 122.636 151.326 122.579 151.326 122.52C151.326 122.461 151.304 122.404 151.265 122.36L148.92 120C148.899 119.978 148.874 119.961 148.847 119.949C148.82 119.937 148.79 119.93 148.76 119.93C148.699 119.933 148.642 119.956 148.595 119.995C147.858 120.734 146.977 121.316 146.007 121.704C145.038 122.091 143.999 122.277 142.955 122.25H142.4C140.703 122.155 139.084 121.503 137.795 120.395C137.68 120.29 137.56 120.185 137.45 120.075C136.133 118.76 135.323 117.021 135.163 115.167C135.002 113.313 135.503 111.461 136.575 109.94C136.585 109.926 136.594 109.911 136.6 109.895C136.65 109.825 136.705 109.765 136.765 109.695C137.534 108.721 138.526 107.946 139.657 107.436C140.789 106.926 142.026 106.696 143.265 106.765C143.294 106.765 143.324 106.76 143.351 106.75C143.379 106.739 143.404 106.723 143.426 106.702C143.447 106.682 143.464 106.658 143.476 106.631C143.488 106.603 143.494 106.574 143.495 106.545L143.56 103.23C143.561 103.17 143.539 103.111 143.498 103.067C143.457 103.023 143.4 102.997 143.34 102.995C141.051 102.956 138.803 103.602 136.883 104.849C134.963 106.095 133.459 107.887 132.564 109.993C131.668 112.1 131.421 114.426 131.855 116.674C132.289 118.921 133.384 120.988 135 122.61Z" fill="#263238"/>
<path d="M143.345 103C146.462 103.003 149.449 104.244 151.651 106.45C153.853 108.655 155.089 111.645 155.088 114.761C155.086 117.878 153.847 120.866 151.642 123.069C149.438 125.272 146.449 126.51 143.333 126.51C140.216 126.51 137.227 125.272 135.023 123.069C132.818 120.866 131.579 117.878 131.578 114.761C131.576 111.645 132.812 108.655 135.014 106.45C137.216 104.244 140.203 103.003 143.32 103H143.345ZM142.885 125.585C145.074 125.63 147.228 125.025 149.073 123.846C150.918 122.667 152.372 120.967 153.251 118.962C154.13 116.957 154.395 114.735 154.012 112.58C153.629 110.424 152.615 108.43 151.098 106.85C149.581 105.271 147.631 104.177 145.492 103.706C143.354 103.235 141.124 103.41 139.084 104.206C137.045 105.003 135.287 106.387 134.034 108.183C132.781 109.979 132.089 112.106 132.045 114.295C131.986 117.23 133.095 120.068 135.127 122.186C137.16 124.304 139.95 125.528 142.885 125.59V125.585ZM143.28 106.315C144.904 106.348 146.481 106.862 147.812 107.791C149.144 108.721 150.17 110.024 150.761 111.537C151.351 113.049 151.48 114.703 151.131 116.289C150.782 117.875 149.97 119.321 148.799 120.446C147.628 121.57 146.149 122.322 144.55 122.607C142.951 122.891 141.304 122.694 139.817 122.043C138.33 121.391 137.069 120.312 136.195 118.944C135.321 117.575 134.872 115.979 134.905 114.355C134.95 112.178 135.857 110.108 137.428 108.601C138.998 107.093 141.103 106.271 143.28 106.315ZM142.955 122.27C144.489 122.301 145.997 121.877 147.289 121.051C148.582 120.225 149.6 119.035 150.216 117.63C150.832 116.225 151.017 114.669 150.749 113.159C150.48 111.649 149.77 110.252 148.707 109.146C147.645 108.039 146.278 107.273 144.78 106.943C143.282 106.613 141.72 106.735 140.291 107.293C138.863 107.851 137.632 108.821 136.754 110.079C135.876 111.337 135.391 112.826 135.36 114.36C135.32 116.415 136.097 118.402 137.521 119.884C138.946 121.367 140.9 122.223 142.955 122.265V122.27Z" fill="#263238"/>
<path d="M84.835 139.065V169.395" stroke="#263238" stroke-width="0.879169" stroke-linecap="round" stroke-linejoin="round"/>
<path d="M89.71 150.51H87.135V167.875H89.71V150.51Z" fill="#263238"/>
<path d="M93.3901 157.595H90.8151V167.87H93.3901V157.595Z" fill="#DD4D32"/>
<path d="M97.715 144.895H95.14V167.875H97.715V144.895Z" fill="white" stroke="#263238" stroke-width="0.879169" stroke-linejoin="round"/>
<path d="M104.895 141.58H102.32V167.87H104.895V141.58Z" fill="#263238"/>
<path d="M108.58 161.37H106.005V167.875H108.58V161.37Z" fill="#DD4D32"/>
<path d="M112.905 152.35H110.33V167.875H112.905V152.35Z" fill="white" stroke="#263238" stroke-width="0.879169" stroke-linejoin="round"/>
<path d="M123.395 154.725H120.82V167.87H123.395V154.725Z" fill="#263238"/>
<path d="M127.08 144.525H124.505V167.87H127.08V144.525Z" fill="#DD4D32"/>
<path d="M131.405 149.68H128.83V167.87H131.405V149.68Z" fill="white" stroke="#263238" stroke-width="0.879169" stroke-linejoin="round"/>
<path d="M82.0701 163.855H83.5101" stroke="#263238" stroke-width="0.879169" stroke-linecap="round" stroke-linejoin="round"/>
<path d="M82.0701 160.11H83.5101" stroke="#263238" stroke-width="0.879169" stroke-linecap="round" stroke-linejoin="round"/>
<path d="M82.0701 156.37H83.5101" stroke="#263238" stroke-width="0.879169" stroke-linecap="round" stroke-linejoin="round"/>
<path d="M82.0701 152.625H83.5101" stroke="#263238" stroke-width="0.879169" stroke-linecap="round" stroke-linejoin="round"/>
<path d="M82.0701 148.88H83.5101" stroke="#263238" stroke-width="0.879169" stroke-linecap="round" stroke-linejoin="round"/>
<path d="M82.0701 145.135H83.5101" stroke="#263238" stroke-width="0.879169" stroke-linecap="round" stroke-linejoin="round"/>
<path d="M82.0701 141.39H83.5101" stroke="#263238" stroke-width="0.879169" stroke-linecap="round" stroke-linejoin="round"/>
<path d="M83.13 167.875H133.21" stroke="#263238" stroke-width="0.879169" stroke-linecap="round" stroke-linejoin="round"/>
<path opacity="0.3" d="M93.3901 157.595H90.8151V167.87H93.3901V157.595Z" fill="black"/>
<path opacity="0.3" d="M108.58 161.37H106.005V167.875H108.58V161.37Z" fill="black"/>
<path opacity="0.3" d="M127.08 144.525H124.505V167.87H127.08V144.525Z" fill="black"/>
<path d="M80.025 134.855C79.1621 134.856 78.335 135.2 77.7249 135.81C77.1147 136.42 76.7713 137.247 76.77 138.11V167.865C76.7713 168.728 77.1145 169.556 77.7245 170.167C78.3345 170.778 79.1617 171.122 80.025 171.125H135.25C136.114 171.122 136.941 170.778 137.552 170.167C138.163 169.556 138.507 168.729 138.51 167.865V138.1C138.509 137.236 138.165 136.407 137.554 135.796C136.943 135.185 136.114 134.841 135.25 134.84L80.025 134.855Z" stroke="#263238" stroke-linejoin="round"/>
<path d="M36.3251 201.37C36.3251 201.37 37.4801 209.08 34.6851 209.87C31.8901 210.66 29.9501 209.62 29.6001 208.465C29.2501 207.31 31.7251 199.06 31.7251 199.06L36.3251 201.37Z" fill="white"/>
<path d="M84.94 203.075L97.09 205.955C97.09 205.955 98.01 206.455 97.91 207.28C97.81 208.105 92.265 210.22 90.71 210.485C89.155 210.75 80.18 211.92 78.905 210.825C77.63 209.73 80.325 201 80.325 201L84.94 203.075Z" fill="white"/>
<path d="M62.94 62.4602C62.94 62.4602 64.65 65.0402 64.675 66.3452C64.7 67.6502 64.54 69.1402 65.34 69.9102C66.14 70.6802 66.755 71.5202 66.425 71.9102C66.095 72.3002 65.46 73.0602 65.46 73.0602C65.46 73.0602 66.285 77.4552 65.215 78.2502C64.145 79.0452 60.93 78.2502 60.93 78.2502V81.0902C60.93 81.0902 56.36 79.5902 53.205 79.8702L52.645 73.7852C52.645 73.7852 59.5 60.6052 62.94 62.4602Z" fill="white"/>
<path d="M91.05 80.44C91.05 80.44 90.64 77.32 92.16 75.44C92.16 75.44 90.34 75.13 90.56 74.47C90.78 73.81 93.56 74.675 93.56 74.675L92.81 73.175C92.81 73.175 90.185 72.305 90.51 71.49C90.835 70.675 94.685 72.68 94.685 72.68C94.685 72.68 92.4 70.77 92.72 69.975C93.04 69.18 95.365 69.195 96.6051 73.315L97.235 72.53C97.235 72.53 97.4601 67.84 98.1051 67.585C98.1051 67.585 99.1051 68.135 99.1051 70.83C99.1051 70.83 100.105 72.035 99.4701 73.055C98.8351 74.075 97.34 76.37 96.07 77.23C94.8 78.09 94.805 81.445 94.805 81.445L91.05 80.44Z" fill="white"/>
<path d="M50.81 54.7948L51.385 54.0248C51.385 54.0248 57.82 51.1548 57.66 50.2598C57.5 49.3648 53.855 50.5998 53.16 50.1248C53.16 50.1248 53.825 41.6548 53.16 41.3798C52.495 41.1048 51.755 45.3548 51.755 45.3548C51.755 45.3548 50.82 40.9948 50.1 41.1198C49.38 41.2448 49.68 45.6198 49.68 45.6198C49.68 45.6198 48.305 42.8148 47.77 43.0748C47.235 43.3348 48.035 46.7548 48.035 46.7548C48.035 46.7548 47.035 45.5798 46.635 45.9348C46.7668 47.7014 47.2513 49.4237 48.06 50.9998L46.67 53.3498L50.81 54.7948Z" fill="white"/>
<path d="M90.3551 80.46L94.7901 81.08C94.7901 81.08 91.5451 108.58 90.5901 111.975C89.6351 115.37 88.7751 117.81 85.5151 117.975C82.2551 118.14 70.6401 108.375 70.6401 108.375L70.1001 121.875L70.8551 127.475C70.8551 127.475 56.6501 134.94 42.2051 128.445L42.5301 121.875L37.3251 91.825L33.2301 77.555L46.4451 52.5L51.2351 55L42.7851 77.805L45.1501 85.42L47.7951 84.36L50.7201 80.63C50.7201 80.63 55.6801 78.055 61.9551 81.63L62.9551 84.76C62.9551 84.76 70.3151 85.315 82.7401 102.54L90.3551 80.46Z" fill="#DD4D32"/>
<path opacity="0.2" d="M58.65 80.46L59.21 84.31C59.21 84.31 63.34 87.05 65 88C65 88 69.06 113.64 66.055 118.685L62.89 123.64C62.89 123.64 66.125 123.64 67.615 121.375C67.615 121.375 65.76 127.565 60.95 129.23C60.95 129.23 68.335 128.46 70.875 127.48L70.12 121.88L71.335 90.655C71.335 90.655 72.48 88.565 62.96 84.82L61.555 81.445L58.65 80.46Z" fill="black"/>
<path d="M62.9401 62.8101C62.9401 62.8101 64.4901 65.0801 64.6751 66.3451C64.8601 67.6101 64.31 69.0051 65.34 69.9101C66.37 70.8151 66.8401 71.4101 66.4251 71.9101C66.0101 72.4101 65.4601 73.0601 65.4601 73.0601C65.4601 73.0601 65.88 77.3451 65.215 78.2501C64.55 79.1551 60.9301 78.2501 60.9301 78.2501V81.0901" stroke="#263238" stroke-linecap="round" stroke-linejoin="round"/>
<path d="M60.93 72.8698C60.93 72.8698 59.48 69.1248 58.395 70.0298C57.31 70.9348 58.275 75.8847 60.93 74.7997" stroke="#263238" stroke-linecap="round" stroke-linejoin="round"/>
<path d="M60.5351 72C60.5351 72 62.2601 71.86 61.1701 67.815C60.0801 63.77 62.4401 64.315 64.9751 63.165C67.5101 62.015 68.1151 59.905 67.5701 58.64C67.0251 57.375 66.1201 56.705 62.9201 57.31C62.9201 57.31 59.4201 53.265 56.0401 57.735C56.0401 57.735 48.4301 57.615 46.3801 61.235C44.3301 64.855 47.0451 74.095 51.0301 77.175C55.0151 80.255 58.9101 77.79 59.7201 74.895C59.7201 74.895 57.0051 73.43 58.3951 70.05C58.3951 70.03 59.6601 69.58 60.5351 72Z" fill="#263238"/>
<path d="M36.9301 89.5449C36.9301 89.5449 55.345 76.1899 71.395 89.5449L70.1 121.855L70.855 127.455C70.855 127.455 57.2851 133.81 42.2051 128.425L42.5301 121.855L36.9301 89.5449Z" stroke="#263238" stroke-linecap="round" stroke-linejoin="round"/>
<path d="M47.55 84.6898L50.72 80.6498C50.72 80.6498 56.935 78.4998 61.955 81.6498L62.955 84.7798" stroke="#263238" stroke-linecap="round" stroke-linejoin="round"/>
<path d="M71.395 89.5449L87.43 107.985" stroke="#263238" stroke-linecap="round" stroke-linejoin="round"/>
<path d="M70.655 108C70.655 108 81.28 117.885 85.515 118C89.75 118.115 90.455 113 90.455 113L94.79 81.1L90.355 80.48L82.725 102.595" stroke="#263238" stroke-linecap="round" stroke-linejoin="round"/>
<path d="M94.7151 80.9998C94.7151 80.9998 95.2701 77.3948 96.7151 76.5748C98.1601 75.7548 99.8751 72.5748 99.3251 71.6598C98.7751 70.7448 97.0951 73.7198 95.5801 74.2898C94.0651 74.8598 92.8351 77.6598 92.6251 78.8748" stroke="#263238" stroke-linecap="round" stroke-linejoin="round"/>
<path d="M98.8601 71.5299C98.8601 71.5299 98.8601 67.3649 98.0951 67.5599C97.3301 67.7549 97.2251 73.0299 97.2251 73.0299" stroke="#263238" stroke-linecap="round" stroke-linejoin="round"/>
<path d="M96.6651 73.565C96.6651 73.565 96.1651 71.23 94.7901 70.09C93.4151 68.95 92.5551 69.565 92.7101 69.95C92.8651 70.335 95.2101 73.45 95.1551 74.51" stroke="#263238" stroke-linecap="round" stroke-linejoin="round"/>
<path d="M94.285 72.4098C94.285 72.4098 90.51 70.6798 90.5 71.7148C90.49 72.7498 92.8 73.1498 92.8 73.1498L93.55 74.6498C93.55 74.6498 90.37 73.6498 90.55 74.4448C90.73 75.2398 92.15 75.4148 92.15 75.4148C92.15 75.4148 90.605 76.9448 91.04 80.4148" stroke="#263238" stroke-linecap="round" stroke-linejoin="round"/>
<path d="M68.67 127.83L69.635 134.59C69.635 134.59 78.52 161.245 79.87 166.455C81.22 171.665 81.995 183.455 82.37 188.86C82.745 194.265 85.87 203.36 85.87 203.36C85.87 203.36 85.485 207.03 78.92 206.45C78.92 206.45 76.215 195.635 73.32 189.26C70.425 182.885 70 173.215 70 173.215L55.9 147.335C55.9 147.335 53.015 162.405 51.075 168C49.075 173.77 35.44 205.785 36.395 203.54C36.395 203.54 34.465 204.7 30.395 201.8C30.395 201.8 33.29 192.145 34.06 186.93C34.83 181.715 38.89 169.74 38.89 169.74C38.89 169.74 39.855 147.145 41.39 140.19C41.39 140.19 40.39 132.53 42.525 127.12C50.9873 129.884 60.0702 130.131 68.67 127.83Z" fill="#263238"/>
<path d="M48.175 142.795L54.5051 144.635L55.425 146.88" stroke="white" stroke-linecap="round" stroke-linejoin="round"/>
<path d="M79.0601 205.66C79.0601 205.66 78.2051 209.945 78.9051 210.825C79.2751 211.285 80.3751 211.2 80.9051 211.21C82.1251 211.235 83.3501 211.155 84.5701 211.075C87.0101 210.915 89.5101 210.94 91.8651 210.185C93.849 209.589 95.7442 208.73 97.5001 207.63C98.4601 206.99 97.5001 205.955 97.5001 205.955L85.8751 203.345" stroke="#263238" stroke-linecap="round" stroke-linejoin="round"/>
<path d="M79.0001 209.315C79.0001 209.315 92.0651 211.46 97.5001 205.955" stroke="#263238" stroke-linecap="round" stroke-linejoin="round"/>
<path d="M30.9001 201.37C30.9001 201.37 29.4001 206.515 29.6201 208.135C29.8401 209.755 31.4651 210.135 33.3651 210.09C35.2651 210.045 36.0451 209.195 36.3251 207.91C36.6051 206.625 36.3251 202.47 36.3251 202.47" stroke="#263238" stroke-linecap="round" stroke-linejoin="round"/>
<path d="M29.6001 207.35L36.3251 207.91" stroke="#263238" stroke-linecap="round" stroke-linejoin="round"/>
<path d="M47.155 52.66C47.725 51.62 48.06 50.985 48.06 50.985C48.06 50.985 46.205 46.5 46.67 45.95C47.135 45.4 48.21 46.95 48.21 46.95C48.21 46.95 47.11 43.385 47.805 43.08C48.5 42.775 49.74 46.08 49.74 46.08C49.74 46.08 49.415 41.305 50.135 41.08C50.855 40.855 51.72 45.62 51.72 45.62C51.72 45.62 52.65 41.38 53.22 41.34C53.79 41.3 53.22 50.085 53.22 50.085C54.37 50.65 57.75 49.27 57.72 50.385C57.69 51.5 51.22 54.065 51.22 54.065C51.1068 54.2118 51.008 54.3692 50.925 54.535" stroke="#263238" stroke-linecap="round" stroke-linejoin="round"/>
<path d="M36.9301 89.5451L33.2301 77.5551L46.4451 52.5151L51.2351 55.0201L42.7851 77.8251L45.1501 85.4401" stroke="#263238" stroke-linecap="round" stroke-linejoin="round"/>
<path d="M37.3601 75.6602C37.3601 75.6602 42.1001 75.6202 42.7851 77.8252C40.7087 77.7098 38.6518 78.2789 36.9301 79.4452" stroke="#263238" stroke-linecap="round" stroke-linejoin="round"/>
<path d="M53.02 80.1298V76.6548" stroke="#263238" stroke-linecap="round" stroke-linejoin="round"/>
<path opacity="0.2" d="M71.3151 99.2148L72.5001 107.1C72.5001 107.1 73.4701 101.955 74.0751 101.955C74.6801 101.955 74.0751 107.985 74.0751 107.985C74.0751 107.985 84.0151 116.985 88.3151 117.035C88.3151 117.035 85.9251 118.715 83.5301 117.465C81.1351 116.215 70.6351 107.965 70.6351 107.965L71.3151 99.2148Z" fill="black"/>
<path opacity="0.2" d="M50.3851 54.5752L41.2951 76.6552C41.2951 76.6552 38.1301 76.6052 36.9301 79.4452L41.7901 78.5752L43.4251 86.0752L45.1501 85.4202L42.7851 77.8052L51.2351 55.0002L50.3851 54.5752Z" fill="black"/>
<path d="M175.655 93.4052L172.075 85.7603L158.005 95.0552L169.615 115.625L178.67 110.485L175.655 93.4052Z" fill="white"/>
<path d="M187.25 159.53C187.25 159.53 189.525 165.845 189.86 168.92C190.195 171.995 189.17 184.945 189.39 188.515C189.61 192.085 191.54 202.74 191.54 202.74C191.54 202.74 182.075 209.62 179.07 207.405C179.07 207.405 185.74 202.005 186.415 199.855L184.255 185.26L182.11 168C182.11 168 181.565 164.395 180.805 162.54C180.045 160.685 180.16 156.75 180.16 156.75L187.25 159.53Z" fill="white"/>
<path d="M187.05 158.97C187.05 158.97 189.51 165.62 190.085 170.395C190.66 175.17 188.93 186 189.5 191.215C190.07 196.43 190.655 199.315 191.665 202.06L191.165 210.115H189.87L189.37 205.545C189.37 205.545 187.34 204.7 186.11 207.625C184.88 210.55 180.335 210.935 178.18 209.24C178.18 209.24 178.18 207.93 179.8 206.775C181.42 205.62 185.65 202.01 186.42 199.855C186.42 199.855 184.11 184.855 183.57 179.995C183.03 175.135 182.185 166.3 181.105 163.45C180.025 160.6 180.03 156.525 180.03 156.525" stroke="#263238" stroke-linecap="round" stroke-linejoin="round"/>
<path d="M191.17 200.55C191.17 200.55 184.825 207.45 179.5 207.405" stroke="#263238" stroke-linecap="round" stroke-linejoin="round"/>
<path d="M179.07 207.405C179.95 207.503 180.841 207.392 181.67 207.08C183.105 206.58 188.27 204.08 190.81 200.925L191.59 201.81L191.18 209.93L189.875 210.115L189.375 205.545C189.375 205.545 187.705 204.78 186.63 206.66C185.555 208.54 184.78 209.83 182.9 210.245C181.02 210.66 178.185 209.245 178.185 209.245C178.185 209.245 177.69 208.5 179.07 207.405Z" fill="#263238"/>
<path d="M191.675 159.745C192.271 161.938 192.996 164.093 193.845 166.2C194.98 168.805 204.785 195.15 204.785 195.15C204.785 195.15 205.53 209.41 209.705 209.365C213.88 209.32 209.54 199.4 209.54 199.4L207 193.965C207 193.965 206.03 178 204.83 172.13L199.72 158.365L191.675 159.745Z" fill="white"/>
<path d="M199.775 158.825C199.775 158.825 203.97 168.37 204.835 172.13C205.7 175.89 206.57 192.805 207.005 193.965C207.44 195.125 214.38 207.41 210.185 209.87C205.99 212.33 205 195.7 205 195.7C205 195.7 195.315 168.8 193.865 166.2C192.415 163.6 190.83 156.075 190.83 156.075L199.775 158.825Z" stroke="#263238" stroke-linecap="round" stroke-linejoin="round"/>
<path d="M211 203.565C211 203.565 210.71 206.895 209.61 207.365C208.51 207.835 206.08 204.08 206.08 204.08" stroke="#263238" stroke-linecap="round" stroke-linejoin="round"/>
<path d="M206.09 204.655C206.09 204.655 207.59 210.335 209.59 210.095C211.59 209.855 211.95 206.7 211.005 204.265C211.005 204.265 210.67 206.765 209.615 207.365C208.55 207.38 206.09 204.655 206.09 204.655Z" fill="#263238"/>
<path d="M188.385 109.175C188.385 109.175 193.44 116.075 196.945 127.175C200.45 138.275 200.09 159.535 200.09 159.535C200.09 159.535 187.045 163.73 174.4 158.4L176.715 110.5C176.715 110.5 184.85 110.65 188.385 109.175Z" fill="#263238"/>
<path d="M181.855 59.1353C181.855 59.1353 177.925 62.8153 177.465 65.2253C177.086 66.9121 176.477 68.5389 175.655 70.0602C176.078 70.7 176.697 71.1844 177.42 71.4403C177.42 71.4403 177.675 76.3752 179.11 76.7552L182.54 75.8552L182.905 77.9702L187.825 76.1002V73.2502L191.575 70.8003L190.24 64.3952L184.14 61.5453L181.855 59.1353Z" fill="white"/>
<path d="M176.69 110.115L176.255 103.195C176.255 103.195 173.055 97.1951 174.07 95.0151C175.19 92.6201 181.92 83.7501 181.92 83.7501L181.26 78.9101L190.69 74.8701L191.14 78.9101L190 79.7551L191.265 82.4651C191.265 82.4651 191.345 81.6601 193.535 85.7451C195.725 89.8301 203.975 104.365 204.625 107.155C205.275 109.945 191.795 119.775 187.245 122.095C187.245 122.095 186.72 120.97 181.315 125.095C179.94 124.855 178.04 123.62 177.635 122.855C177.23 122.09 179.19 120.27 179.19 120.27C179.19 120.27 180.37 118.04 182.455 119.825H184.675L197.38 108L190.94 98.5751L188.385 109.16C188.385 109.16 180.12 111.67 176.69 110.115Z" fill="white"/>
<path d="M181.26 78.9101L181.935 83.8551L191.14 78.9101L190.69 74.8701L181.26 78.9101Z" stroke="#263238" stroke-linecap="round" stroke-linejoin="round"/>
<path d="M181.935 83.8555C181.935 83.8555 173.56 94.1005 173.785 96.1205C174.01 98.1405 176.255 103.195 176.255 103.195L176.715 110.495C176.715 110.495 183.49 110.68 188.385 109.175L190.94 98.5905" stroke="#263238" stroke-linecap="round" stroke-linejoin="round"/>
<path d="M197.38 108L184.405 88.4401C184.405 88.4401 183.13 83.94 186.2 82.335C189.27 80.73 191.94 82.765 192.895 83.835C193.85 84.905 204.15 104.75 204.63 107.135C205.11 109.52 194.23 119.06 187.935 121.635C187.935 121.635 185.07 123.355 185.07 119.825L197.38 108Z" stroke="#263238" stroke-linecap="round" stroke-linejoin="round"/>
<path d="M191.14 82.4654L189.925 79.5654" stroke="#263238" stroke-linecap="round" stroke-linejoin="round"/>
<path d="M185.07 119.845H182.46C182.46 119.845 180.425 118.025 179.46 119.845C178.495 121.665 177.275 122.025 177.64 122.875C178.005 123.725 180.095 125.42 181.32 125.115C182.545 124.81 186 122 186 122" stroke="#263238" stroke-linecap="round" stroke-linejoin="round"/>
<path d="M180.915 60.4302C180.915 60.4302 177.85 63.1102 177.51 64.5952C177.17 66.0802 177.315 68.5952 175.655 70.0602C175.655 70.0602 175.74 71.2602 177.42 71.4402C177.42 71.4402 178.28 76.1752 179.11 76.7552C179.94 77.3352 185.02 74.7152 187.01 73.6352C187.518 73.2871 187.887 72.7723 188.055 72.1802" stroke="#263238" stroke-linecap="round" stroke-linejoin="round"/>
<path d="M178.535 72.8855C179.475 72.7269 180.322 72.2265 180.915 71.4805" stroke="#263238" stroke-linecap="round" stroke-linejoin="round"/>
<path d="M178.535 66.0353C178.535 66.0353 179.745 65.3303 180.41 66.5003" stroke="#263238" stroke-linecap="round" stroke-linejoin="round"/>
<path d="M179.365 68.5502C179.365 68.9552 179.25 69.2852 179.065 69.2952C178.88 69.3052 178.71 68.9852 178.69 68.5852C178.67 68.1852 178.805 67.8452 178.99 67.8352C179.175 67.8252 179.345 68.1452 179.365 68.5502Z" fill="#263238"/>
<path d="M182.54 75.855L182.945 78.19" stroke="#263238" stroke-linecap="round" stroke-linejoin="round"/>
<path d="M186.47 68.2402C186.47 68.2402 187.22 66.7852 188.055 67.6352C188.89 68.4852 190.475 72.4152 186.2 71.4802C186.2 71.4802 185.915 73.8802 188.055 74.4802C190.195 75.0802 194.26 71.7702 194.395 66.1252C194.53 60.4802 189.08 56.6702 186.2 57.7602C186.2 57.7602 182.025 51.2152 177.885 54.0052C173.745 56.7952 176.535 61.0902 175.655 62.0602C174.775 63.0302 172.895 62.1202 172.835 64.7252C172.775 67.3302 177.13 67.0652 177.13 67.0652L177.655 64.1952L181.26 60.4302C181.26 60.4302 180.41 63.1502 181.855 65.5152C183.16 67.6452 186.47 68.2402 186.47 68.2402Z" fill="#263238"/>
<path d="M194.395 66.1253C194.395 66.1253 196.395 66.5753 196.175 69.2803C195.955 71.9853 191.44 78.6353 191.78 82.4653L203.435 104.185C203.435 104.185 208.68 103.185 208.435 97.7853C208.19 92.3853 201.79 87.8353 203.025 83.8553C204.26 79.8753 209.11 69.7403 202.24 63.9303C195.37 58.1203 184.66 67.0253 184.66 67.0253L189.905 65.3353L194.395 66.1253Z" fill="#263238"/>
<path d="M175.205 92.9602L172.075 85.7603L158.005 95.0552L169.615 115.625L176.655 111.75" stroke="#263238" stroke-linecap="round" stroke-linejoin="round"/>
<path d="M162.385 105.23C162.385 105.23 161.625 103.66 162.64 102.795C163.655 101.93 167.14 99.365 167.14 99.995C167.163 100.148 167.154 100.304 167.112 100.453C167.071 100.602 166.999 100.741 166.9 100.86C165.9 102.2 163.505 104.36 163.66 104.535C163.66 104.535 168.03 101.635 168.45 101.91C168.555 101.98 168.495 102.355 168.13 102.72C166.932 103.786 165.668 104.775 164.345 105.68C164.345 105.68 168.955 103.895 169.55 104.18C169.72 104.26 169.685 104.52 169.15 104.845C167.812 105.573 166.435 106.227 165.025 106.805L166.18 108.735C166.18 108.735 164 109.115 162.385 105.23Z" fill="white" stroke="#263238" stroke-linecap="round" stroke-linejoin="round"/>
<path d="M187.505 72.8853L187.825 76.1003" stroke="#263238" stroke-linejoin="round"/>
</svg>
