<svg width="262" height="262" viewBox="0 0 262 262" fill="none" xmlns="http://www.w3.org/2000/svg">
<path d="M241.716 149.864C246.464 134.355 248.987 118.251 249.209 102.033C249.471 85.3385 247.637 67.2867 236.633 54.7736C225.828 42.5382 208.489 38.3567 192.177 37.644C185.569 37.3611 178.82 37.5497 172.548 39.6457C159.883 43.8796 151.006 55.109 139.772 62.3297C118.083 76.2681 88.7813 74.6175 67.9314 89.782C62.5936 93.7321 57.9474 98.5394 54.1816 104.009C38.9856 125.781 37.7961 155.942 49.3975 179.826C60.9988 203.71 84.3011 221.044 110.087 227.416C135.873 233.788 163.698 229.58 187.592 217.984C215.432 204.47 232.771 178.6 241.716 149.864Z" fill="#DD4D32"/>
<path opacity="0.7" d="M241.716 149.864C246.464 134.355 248.987 118.251 249.209 102.033C249.471 85.3385 247.637 67.2867 236.633 54.7736C225.828 42.5382 208.489 38.3567 192.177 37.644C185.569 37.3611 178.82 37.5497 172.548 39.6457C159.883 43.8796 151.006 55.109 139.772 62.3297C118.083 76.2681 88.7813 74.6175 67.9314 89.782C62.5936 93.7321 57.9474 98.5394 54.1816 104.009C38.9856 125.781 37.7961 155.942 49.3975 179.826C60.9988 203.71 84.3011 221.044 110.087 227.416C135.873 233.788 163.698 229.58 187.592 217.984C215.432 204.47 232.771 178.6 241.716 149.864Z" fill="white"/>
<path d="M203.249 49.4187V158.652C203.25 159.425 203.098 160.19 202.803 160.905C202.507 161.619 202.074 162.268 201.527 162.814C200.981 163.361 200.332 163.794 199.617 164.09C198.903 164.385 198.138 164.537 197.365 164.536H51.6926C50.9186 164.539 50.1516 164.389 49.4359 164.094C48.7201 163.8 48.0696 163.366 47.5218 162.82C46.974 162.273 46.5396 161.623 46.2437 160.908C45.9478 160.192 45.7962 159.426 45.7976 158.652V49.4187C45.7969 48.6462 45.9485 47.8811 46.2436 47.1672C46.5388 46.4533 46.9718 45.8046 47.5178 45.2581C48.0638 44.7116 48.7121 44.278 49.4258 43.9823C50.1394 43.6865 50.9044 43.5342 51.6769 43.5342H197.349C198.123 43.5315 198.89 43.6817 199.606 43.9762C200.322 44.2708 200.973 44.7039 201.522 45.2506C202.07 45.7974 202.505 46.4471 202.801 47.1624C203.098 47.8777 203.25 48.6444 203.249 49.4187Z" fill="white"/>
<path d="M203.249 52.7935V158.641C203.251 159.415 203.1 160.182 202.805 160.897C202.511 161.613 202.077 162.263 201.531 162.811C200.984 163.358 200.335 163.793 199.62 164.089C198.905 164.385 198.138 164.537 197.364 164.536H51.6925C51.1393 164.538 50.5888 164.46 50.0576 164.306L203.249 52.7935Z" fill="#263238"/>
<path opacity="0.9" d="M203.249 52.7935V158.641C203.251 159.415 203.1 160.182 202.805 160.897C202.511 161.613 202.077 162.263 201.531 162.811C200.984 163.358 200.335 163.793 199.62 164.089C198.905 164.385 198.138 164.537 197.364 164.536H51.6925C51.1393 164.538 50.5888 164.46 50.0576 164.306L203.249 52.7935Z" fill="white"/>
<path d="M162.864 111.927L170.824 108.342L169.126 98.8528L160.344 98.1506C159.244 95.2201 157.766 92.4457 155.948 89.8976L158.693 85.2498L160.449 82.2682L153.637 75.5086L146.013 80.0884C141.634 77.0666 136.66 75.0156 131.424 74.0728L129.229 65.3325H119.608L117.376 74.1357C114.402 74.7343 111.506 75.6659 108.74 76.9129L101.829 70.9603L93.9427 76.3313L97.2229 84.8463C95.1371 87.007 93.3325 89.4226 91.8519 92.0356L82.7763 91.1186L79.5117 100.179L86.984 105.277C86.6208 107.404 86.4455 109.559 86.46 111.717C86.397 112.605 86.397 113.496 86.46 114.384L78.5266 118.838L81.0418 128.118H90.0022C90.8613 129.965 91.8671 131.74 93.01 133.426C93.5969 134.289 94.2169 135.129 94.8702 135.947L91.0031 143.938L98.4072 150.147L105.549 144.797C108.265 146.366 111.166 147.59 114.185 148.439L115.615 157.074L125.236 157.929L128.118 149.786C131.26 149.473 134.355 148.796 137.34 147.768L143.445 153.868L151.803 149.047L149.502 140.726C151.931 138.69 154.093 136.355 155.937 133.777L164.405 135.297L168.482 126.567L161.827 121.201C162.549 118.163 162.897 115.049 162.864 111.927ZM140.883 111.927C140.882 115.708 139.572 119.372 137.174 122.296C134.776 125.22 131.439 127.222 127.731 127.963C124.022 128.703 120.172 128.136 116.835 126.357C113.499 124.578 110.881 121.698 109.429 118.207C107.977 114.715 107.779 110.828 108.87 107.208C109.96 103.587 112.272 100.456 115.411 98.3484C118.551 96.2403 122.323 95.2852 126.087 95.6457C129.852 96.0061 133.374 97.6598 136.057 100.325C136.35 100.619 136.638 100.923 136.9 101.242C139.452 104.178 140.865 107.932 140.883 111.822V111.927Z" fill="#DD4D32" stroke="#263238" stroke-width="1.02934" stroke-miterlimit="10"/>
<path opacity="0.2" d="M161.827 121.175L168.482 126.541L164.405 135.271L155.937 133.751C154.093 136.329 151.931 138.664 149.502 140.7L151.803 149.021L143.445 153.841L137.34 147.768C134.353 148.806 131.254 149.492 128.108 149.812L125.236 157.929L115.621 157.075L114.19 148.439C111.171 147.59 108.27 146.366 105.555 144.797L98.4124 150.147L91.0083 143.938L94.844 135.947C94.1907 135.129 93.5707 134.289 92.9838 133.426L110.601 120.52C112.473 123.547 115.281 125.881 118.599 127.169C121.917 128.456 125.564 128.626 128.988 127.654C132.412 126.682 135.425 124.62 137.572 121.781C139.718 118.942 140.881 115.481 140.883 111.921V111.817C140.865 107.927 139.452 104.173 136.9 101.237L158.714 85.2446L155.969 89.8925C157.78 92.4434 159.251 95.2195 160.344 98.1508L169.084 98.8529L170.824 108.343L162.885 111.927C162.909 115.041 162.553 118.147 161.827 121.175Z" fill="black"/>
<path d="M195.934 86.7015L196.332 86.5181C196.555 86.4205 196.739 86.2504 196.853 86.0355C196.967 85.8205 197.005 85.5733 196.961 85.3339L196.877 84.8466C196.838 84.6068 196.719 84.3874 196.539 84.2238C196.359 84.0602 196.129 83.9621 195.887 83.9453L195.405 83.9086C195.217 83.8962 195.036 83.8351 194.878 83.7312C194.721 83.6274 194.594 83.4845 194.509 83.3165C194.378 83.0388 194.242 82.7925 194.09 82.5148C193.994 82.3508 193.944 82.1646 193.944 81.975C193.944 81.7855 193.994 81.5992 194.09 81.4353L194.336 81.0161C194.458 80.8063 194.507 80.562 194.476 80.3212C194.445 80.0805 194.335 79.8569 194.163 79.6852L193.817 79.3393C193.649 79.1597 193.423 79.0449 193.179 79.0152C192.934 78.9855 192.687 79.0428 192.481 79.1769L192.057 79.4284C191.893 79.5237 191.706 79.5738 191.517 79.5738C191.327 79.5738 191.141 79.5237 190.977 79.4284C190.289 79.0328 189.551 78.7331 188.782 78.5376C188.593 78.4881 188.421 78.3884 188.285 78.2491C188.148 78.1097 188.052 77.936 188.006 77.7464L187.88 77.2224C187.825 76.98 187.687 76.7645 187.49 76.6126C187.293 76.4606 187.049 76.3817 186.801 76.3892H186.319C186.071 76.3814 185.828 76.4596 185.631 76.6105C185.435 76.7614 185.296 76.9757 185.239 77.2171L185.103 77.7411C185.056 77.9265 184.961 78.0962 184.828 78.2332C184.694 78.3703 184.527 78.4698 184.343 78.5219C184.071 78.5952 183.819 78.6791 183.552 78.7734C183.371 78.8398 183.175 78.8563 182.985 78.8213C182.795 78.7863 182.618 78.701 182.473 78.5743L182.038 78.2022C181.856 78.0441 181.628 77.9509 181.387 77.9376C181.147 77.9243 180.91 77.9917 180.712 78.1289L180.329 78.3856C180.124 78.5237 179.972 78.7279 179.899 78.9643C179.825 79.2007 179.835 79.455 179.926 79.6852L180.12 80.2092C180.189 80.3879 180.21 80.5819 180.181 80.7714C180.152 80.9609 180.073 81.1393 179.952 81.2886C179.779 81.493 179.617 81.7078 179.465 81.9279C179.358 82.0911 179.208 82.2212 179.031 82.3036C178.854 82.386 178.658 82.4174 178.464 82.3942L177.94 82.3418C177.697 82.3152 177.453 82.3717 177.246 82.5021C177.039 82.6325 176.883 82.8291 176.803 83.0597L176.63 83.5366C176.546 83.7608 176.539 84.0066 176.61 84.2352C176.682 84.4638 176.827 84.6623 177.023 84.7994L177.521 85.1505C177.676 85.2604 177.8 85.4094 177.879 85.5824C177.958 85.7554 177.99 85.9463 177.971 86.1356C177.942 86.4176 177.928 86.701 177.93 86.9845C177.924 87.1685 177.873 87.3483 177.782 87.5082C177.69 87.6681 177.561 87.8031 177.406 87.9015L176.882 88.1792C176.665 88.2963 176.495 88.4837 176.4 88.7105C176.305 88.9373 176.29 89.1899 176.358 89.4263L176.483 89.8979C176.545 90.1349 176.685 90.3439 176.882 90.4906C177.078 90.6372 177.318 90.7128 177.563 90.7049H178.087C178.276 90.7018 178.463 90.7486 178.629 90.8406C178.794 90.9326 178.933 91.0665 179.03 91.2289C179.177 91.4856 179.334 91.7529 179.496 91.9782C179.604 92.1348 179.669 92.3171 179.683 92.5067C179.698 92.6962 179.662 92.8863 179.58 93.0576L179.36 93.5135C179.251 93.7324 179.22 93.9817 179.272 94.2206C179.323 94.4595 179.454 94.6739 179.643 94.8288L180.015 95.1432C180.201 95.3026 180.435 95.3941 180.68 95.4027C180.925 95.4113 181.165 95.3364 181.362 95.1903L181.744 94.9231C181.899 94.8119 182.08 94.7437 182.27 94.7253C182.459 94.7069 182.651 94.739 182.824 94.8183C183.096 94.9493 183.374 95.0698 183.662 95.1746C183.84 95.2405 183.997 95.3524 184.118 95.4987C184.238 95.645 184.318 95.8207 184.349 96.0078L184.427 96.4741C184.466 96.7151 184.586 96.9357 184.767 97.0995C184.948 97.2634 185.179 97.3607 185.423 97.3754L185.915 97.4226C186.157 97.4439 186.398 97.3837 186.602 97.2517C186.805 97.1197 186.958 96.9234 187.037 96.6942L187.189 96.2698C187.253 96.0883 187.365 95.9272 187.512 95.8029C187.66 95.6786 187.837 95.5956 188.027 95.5624C188.333 95.5159 188.635 95.4511 188.934 95.3685C189.118 95.3161 189.313 95.3153 189.498 95.3661C189.683 95.4169 189.85 95.5174 189.982 95.6567L190.301 95.9816C190.47 96.1547 190.691 96.2664 190.931 96.2987C191.17 96.331 191.413 96.2821 191.622 96.1597L192.051 95.9134C192.267 95.7966 192.436 95.61 192.531 95.3843C192.626 95.1587 192.642 94.9073 192.575 94.6716L192.455 94.2471C192.398 94.0594 192.394 93.8598 192.442 93.6698C192.49 93.4797 192.589 93.3062 192.727 93.1677C192.952 92.9487 193.166 92.7178 193.367 92.476C193.489 92.3228 193.653 92.2073 193.838 92.1424C194.023 92.0776 194.223 92.0661 194.415 92.1092L194.844 92.1878C195.083 92.2403 195.332 92.2078 195.55 92.0958C195.767 91.9839 195.938 91.7996 196.034 91.5747L196.238 91.1293C196.345 90.9084 196.374 90.6573 196.319 90.418C196.263 90.1787 196.128 89.9655 195.934 89.8141L195.609 89.5521C195.46 89.4343 195.345 89.2792 195.275 89.1025C195.205 88.9259 195.183 88.7339 195.211 88.546C195.263 88.225 195.296 87.9014 195.311 87.5766C195.329 87.389 195.396 87.2095 195.506 87.056C195.615 86.9024 195.763 86.7802 195.934 86.7015ZM192.062 86.9845C192.062 88.0665 191.741 89.1241 191.14 90.0238C190.539 90.9234 189.684 91.6246 188.685 92.0386C187.685 92.4527 186.585 92.561 185.524 92.3499C184.463 92.1388 183.488 91.6178 182.723 90.8528C181.958 90.0877 181.437 89.1129 181.226 88.0517C181.015 86.9906 181.123 85.8906 181.537 84.891C181.951 83.8914 182.652 83.037 183.552 82.4359C184.452 81.8348 185.509 81.5139 186.591 81.5139C188.035 81.5125 189.421 82.0837 190.444 83.1023C191.468 84.1209 192.046 85.5038 192.051 86.9478L192.062 86.9845Z" fill="#DD4D32" stroke="#263238" stroke-width="1.02934" stroke-miterlimit="10"/>
<path d="M203.249 49.4187V49.7174H45.7976V49.4187C45.7969 48.6462 45.9485 47.8811 46.2436 47.1672C46.5388 46.4533 46.9717 45.8046 47.5178 45.2581C48.0638 44.7116 48.7121 44.278 49.4258 43.9823C50.1394 43.6865 50.9044 43.5342 51.6769 43.5342H197.349C198.123 43.5315 198.89 43.6817 199.606 43.9762C200.322 44.2708 200.973 44.7039 201.522 45.2506C202.07 45.7974 202.505 46.4471 202.801 47.1624C203.098 47.8777 203.25 48.6444 203.249 49.4187Z" fill="#263238"/>
<path d="M203.249 49.4187V158.652C203.25 159.425 203.098 160.19 202.803 160.905C202.507 161.619 202.074 162.268 201.527 162.814C200.981 163.361 200.332 163.794 199.617 164.09C198.903 164.385 198.138 164.537 197.365 164.536H51.6926C50.9188 164.538 50.1521 164.388 49.4367 164.093C48.7212 163.798 48.071 163.365 47.5233 162.818C46.9756 162.271 46.5413 161.622 46.2451 160.907C45.949 160.192 45.7969 159.426 45.7976 158.652V49.4187C45.7969 48.6462 45.9485 47.8811 46.2436 47.1672C46.5388 46.4533 46.9717 45.8046 47.5178 45.2581C48.0638 44.7116 48.7121 44.278 49.4258 43.9823C50.1394 43.6865 50.9044 43.5342 51.6769 43.5342H197.349C198.123 43.5315 198.89 43.6817 199.606 43.9762C200.322 44.2708 200.973 44.7039 201.522 45.2506C202.07 45.7974 202.505 46.4471 202.801 47.1624C203.098 47.8777 203.25 48.6444 203.249 49.4187V49.4187Z" stroke="#263238" stroke-width="1.02934" stroke-linecap="round" stroke-linejoin="round"/>
<path d="M45.7976 49.4189H203.249" stroke="#263238" stroke-width="1.02934" stroke-linecap="round" stroke-linejoin="round"/>
<path d="M58.9239 46.6361C58.9239 46.8724 58.8538 47.1034 58.7225 47.2999C58.5912 47.4964 58.4047 47.6495 58.1863 47.7399C57.968 47.8303 57.7278 47.854 57.4961 47.8079C57.2643 47.7618 57.0514 47.648 56.8844 47.4809C56.7173 47.3138 56.6035 47.101 56.5574 46.8692C56.5113 46.6375 56.5349 46.3972 56.6254 46.1789C56.7158 45.9606 56.8689 45.774 57.0654 45.6428C57.2619 45.5115 57.4929 45.4414 57.7291 45.4414C58.046 45.4414 58.3499 45.5673 58.5739 45.7913C58.798 46.0154 58.9239 46.3193 58.9239 46.6361Z" fill="#DD4D32"/>
<path d="M64.5779 46.6365C64.5757 46.8733 64.5034 47.104 64.3699 47.2995C64.2364 47.495 64.0478 47.6465 63.8281 47.7346C63.6084 47.8228 63.3675 47.8437 63.1359 47.7947C62.9043 47.7457 62.6925 47.629 62.5273 47.4594C62.3621 47.2898 62.2511 47.075 62.2082 46.8422C62.1654 46.6094 62.1926 46.3691 62.2866 46.1518C62.3805 45.9345 62.5369 45.75 62.7359 45.6217C62.9348 45.4935 63.1674 45.4272 63.4041 45.4313C63.7191 45.4369 64.0192 45.5666 64.2391 45.7923C64.4589 46.018 64.5807 46.3215 64.5779 46.6365Z" fill="#DD4D32"/>
<path d="M70.2161 46.6361C70.2161 46.8724 70.146 47.1034 70.0148 47.2999C69.8835 47.4964 69.6969 47.6495 69.4786 47.7399C69.2603 47.8303 69.0201 47.854 68.7883 47.8079C68.5566 47.7618 68.3437 47.648 68.1766 47.4809C68.0095 47.3138 67.8957 47.101 67.8496 46.8692C67.8035 46.6375 67.8272 46.3972 67.9176 46.1789C68.008 45.9606 68.1612 45.774 68.3576 45.6428C68.5541 45.5115 68.7851 45.4414 69.0214 45.4414C69.1783 45.4414 69.3336 45.4723 69.4786 45.5323C69.6235 45.5924 69.7552 45.6804 69.8662 45.7913C69.9771 45.9023 70.0651 46.034 70.1252 46.1789C70.1852 46.3239 70.2161 46.4792 70.2161 46.6361Z" fill="#DD4D32"/>
<path d="M149.67 111.927C149.67 116.873 148.203 121.709 145.455 125.822C142.707 129.935 138.801 133.14 134.231 135.033C129.661 136.926 124.632 137.422 119.78 136.456C114.929 135.491 110.472 133.109 106.975 129.612C103.477 126.114 101.095 121.657 100.13 116.806C99.1647 111.954 99.66 106.926 101.553 102.355C103.446 97.7854 106.652 93.8792 110.765 91.1311C114.878 88.3829 119.713 86.916 124.66 86.916V86.916C131.266 86.9159 137.604 89.5293 142.289 94.1858C146.975 98.8422 149.629 105.163 149.67 111.769V111.927Z" stroke="#263238" stroke-width="4.11736" stroke-miterlimit="10"/>
<path d="M242.507 55.5439H153.49C150.243 55.5439 147.611 58.1762 147.611 61.4232V81.1833C147.611 84.4303 150.243 87.0625 153.49 87.0625H242.507C245.754 87.0625 248.387 84.4303 248.387 81.1833V61.4232C248.387 58.1762 245.754 55.5439 242.507 55.5439Z" fill="white" stroke="#263238" stroke-width="1.02934" stroke-miterlimit="10"/>
<path d="M165.249 71.1646H233.93" stroke="#263238" stroke-width="1.02934" stroke-miterlimit="10"/>
<path d="M163.105 71.1642L173.952 63.519H201.578L212.849 71.1642" stroke="#263238" stroke-width="1.02934" stroke-miterlimit="10"/>
<path d="M214.987 71.1642C214.987 71.5883 214.861 72.0028 214.625 72.3554C214.389 72.7079 214.054 72.9826 213.663 73.1447C213.271 73.3067 212.839 73.3489 212.424 73.2658C212.008 73.1826 211.626 72.978 211.326 72.6777C211.027 72.3775 210.823 71.9951 210.741 71.5791C210.659 71.163 210.702 70.7319 210.865 70.3404C211.028 69.9489 211.304 69.6145 211.657 69.3796C212.01 69.1448 212.425 69.02 212.849 69.021C213.416 69.0224 213.96 69.2488 214.361 69.6506C214.762 70.0523 214.987 70.5967 214.987 71.1642Z" fill="#DD4D32" stroke="#263238" stroke-width="1.02934" stroke-miterlimit="10"/>
<path d="M173.952 65.6623C175.136 65.6623 176.096 64.7028 176.096 63.5191C176.096 62.3355 175.136 61.376 173.952 61.376C172.769 61.376 171.809 62.3355 171.809 63.5191C171.809 64.7028 172.769 65.6623 173.952 65.6623Z" fill="#DD4D32" stroke="#263238" stroke-width="1.02934" stroke-miterlimit="10"/>
<path d="M203.715 63.5193C203.717 63.9436 203.592 64.3587 203.356 64.7119C203.121 65.0652 202.787 65.3407 202.395 65.5035C202.003 65.6664 201.572 65.7093 201.156 65.6268C200.739 65.5442 200.357 65.34 200.057 65.04C199.757 64.7399 199.553 64.3576 199.47 63.9413C199.388 63.5251 199.43 63.0938 199.593 62.7019C199.756 62.3101 200.032 61.9755 200.385 61.7404C200.738 61.5053 201.153 61.3803 201.578 61.3814C202.144 61.3827 202.687 61.6084 203.088 62.0091C203.488 62.4097 203.714 62.9527 203.715 63.5193Z" fill="#DD4D32" stroke="#263238" stroke-width="1.02934" stroke-miterlimit="10"/>
<path d="M163.105 71.1646L173.952 78.8097H224.864L233.929 71.1646" stroke="#263238" stroke-width="1.02934" stroke-miterlimit="10"/>
<path d="M192.68 78.8097C192.68 79.2336 192.554 79.6479 192.319 80.0004C192.083 80.3528 191.749 80.6275 191.357 80.7897C190.966 80.9519 190.535 80.9944 190.119 80.9117C189.703 80.829 189.321 80.6249 189.022 80.3251C188.722 80.0254 188.518 79.6435 188.435 79.2278C188.352 78.8121 188.395 78.3811 188.557 77.9895C188.719 77.5979 188.994 77.2632 189.346 77.0277C189.699 76.7922 190.113 76.6665 190.537 76.6665C191.105 76.6665 191.65 76.8923 192.052 77.2942C192.454 77.6961 192.68 78.2413 192.68 78.8097Z" fill="#DD4D32" stroke="#263238" stroke-width="1.02934" stroke-miterlimit="10"/>
<path d="M176.096 78.8097C176.096 79.2336 175.97 79.6479 175.734 80.0004C175.499 80.3528 175.164 80.6275 174.773 80.7897C174.381 80.9519 173.95 80.9944 173.534 80.9117C173.119 80.829 172.737 80.6249 172.437 80.3251C172.137 80.0254 171.933 79.6435 171.851 79.2278C171.768 78.8121 171.81 78.3811 171.972 77.9895C172.135 77.5979 172.409 77.2632 172.762 77.0277C173.114 76.7922 173.529 76.6665 173.953 76.6665C174.521 76.6665 175.066 76.8923 175.468 77.2942C175.87 77.6961 176.096 78.2413 176.096 78.8097Z" fill="#DD4D32" stroke="#263238" stroke-width="1.02934" stroke-miterlimit="10"/>
<path d="M227.007 78.8097C227.007 79.2336 226.882 79.6479 226.646 80.0004C226.411 80.3528 226.076 80.6275 225.684 80.7897C225.293 80.9519 224.862 80.9944 224.446 80.9117C224.03 80.829 223.648 80.6249 223.349 80.3251C223.049 80.0254 222.845 79.6435 222.762 79.2278C222.679 78.8121 222.722 78.3811 222.884 77.9895C223.046 77.5979 223.321 77.2632 223.673 77.0277C224.026 76.7922 224.44 76.6665 224.864 76.6665C225.433 76.6665 225.978 76.8923 226.38 77.2942C226.781 77.6961 227.007 78.2413 227.007 78.8097Z" fill="#DD4D32" stroke="#263238" stroke-width="1.02934" stroke-miterlimit="10"/>
<path d="M233.93 73.3073C235.113 73.3073 236.073 72.3478 236.073 71.1642C236.073 69.9805 235.113 69.021 233.93 69.021C232.746 69.021 231.786 69.9805 231.786 71.1642C231.786 72.3478 232.746 73.3073 233.93 73.3073Z" fill="#DD4D32" stroke="#263238" stroke-width="1.02934" stroke-miterlimit="10"/>
<path d="M165.249 71.1642C165.249 71.5883 165.123 72.0028 164.887 72.3554C164.651 72.7079 164.316 72.9826 163.924 73.1447C163.533 73.3067 163.101 73.3489 162.686 73.2658C162.27 73.1826 161.888 72.978 161.588 72.6777C161.289 72.3775 161.085 71.9951 161.003 71.5791C160.921 71.163 160.964 70.7319 161.127 70.3404C161.29 69.9489 161.566 69.6145 161.919 69.3796C162.272 69.1448 162.687 69.02 163.111 69.021C163.678 69.0224 164.222 69.2488 164.623 69.6506C165.024 70.0523 165.249 70.5967 165.249 71.1642Z" fill="#DD4D32" stroke="#263238" stroke-width="1.02934" stroke-miterlimit="10"/>
<path d="M100.645 121.935H49.361C46.1139 121.935 43.4817 124.567 43.4817 127.814V179.098C43.4817 182.345 46.1139 184.977 49.361 184.977H100.645C103.892 184.977 106.524 182.345 106.524 179.098V127.814C106.524 124.567 103.892 121.935 100.645 121.935Z" fill="white" stroke="#263238" stroke-width="1.02934" stroke-miterlimit="10"/>
<path d="M67.1192 157.928L58.9553 173.8H95.9602" stroke="#263238" stroke-width="1.02934" stroke-linecap="round" stroke-linejoin="round"/>
<path d="M95.9603 133.95L78.6892 145.431L95.9603 150.629" stroke="#263238" stroke-width="1.02934" stroke-linecap="round" stroke-linejoin="round"/>
<path d="M100.042 129.868H91.8782V138.032H100.042V129.868Z" fill="#DD4D32" stroke="#263238" stroke-width="1.02934" stroke-miterlimit="10"/>
<path d="M100.042 146.547H91.8782V154.711H100.042V146.547Z" fill="#DD4D32" stroke="#263238" stroke-width="1.02934" stroke-miterlimit="10"/>
<path d="M82.7711 141.349H74.6072V149.513H82.7711V141.349Z" fill="#DD4D32" stroke="#263238" stroke-width="1.02934" stroke-miterlimit="10"/>
<path d="M71.2013 153.846H63.0374V162.01H71.2013V153.846Z" fill="#DD4D32" stroke="#263238" stroke-width="1.02934" stroke-miterlimit="10"/>
<path d="M63.0372 169.713H54.8733V177.877H63.0372V169.713Z" fill="#DD4D32" stroke="#263238" stroke-width="1.02934" stroke-miterlimit="10"/>
<path d="M100.042 169.713H91.8782V177.877H100.042V169.713Z" fill="#DD4D32" stroke="#263238" stroke-width="1.02934" stroke-miterlimit="10"/>
<path d="M70.7506 97.228H19.4667C16.2196 97.228 13.5874 99.8603 13.5874 103.107V154.391C13.5874 157.638 16.2196 160.27 19.4667 160.27H70.7506C73.9976 160.27 76.6299 157.638 76.6299 154.391V103.107C76.6299 99.8603 73.9976 97.228 70.7506 97.228Z" fill="white" stroke="#263238" stroke-width="1.02934" stroke-miterlimit="10"/>
<path d="M62.1935 103.328H20.2578V106.576H62.1935V103.328Z" fill="#DD4D32"/>
<path d="M44.4876 108.678H20.2578V111.927H44.4876V108.678Z" fill="#DD4D32"/>
<path d="M34.3691 114.027H20.2578V117.276H34.3691V114.027Z" fill="#DD4D32"/>
<path d="M43.4815 119.373H20.2578V122.621H43.4815V119.373Z" fill="#DD4D32"/>
<path d="M56.461 124.722H20.2578V127.971H56.461V124.722Z" fill="#DD4D32"/>
<path d="M44.4876 130.067H20.2578V133.316H44.4876V130.067Z" fill="#DD4D32"/>
<path d="M37.1621 135.417H20.2578V138.666H37.1621V135.417Z" fill="#DD4D32"/>
<path d="M47.6263 140.767H20.2578V144.016H47.6263V140.767Z" fill="#DD4D32"/>
<path d="M53.4375 146.112H20.2578V149.361H53.4375V146.112Z" fill="#DD4D32"/>
<path d="M62.1935 151.462H20.2578V154.711H62.1935V151.462Z" fill="#DD4D32"/>
<path opacity="0.3" d="M62.1935 103.328H20.2578V106.576H62.1935V103.328Z" fill="black"/>
<path opacity="0.3" d="M44.4876 108.678H20.2578V111.927H44.4876V108.678Z" fill="black"/>
<path opacity="0.3" d="M34.3691 114.027H20.2578V117.276H34.3691V114.027Z" fill="black"/>
<path opacity="0.3" d="M43.4815 119.373H20.2578V122.621H43.4815V119.373Z" fill="black"/>
<path opacity="0.3" d="M56.461 124.722H20.2578V127.971H56.461V124.722Z" fill="black"/>
<path opacity="0.3" d="M44.4876 130.067H20.2578V133.316H44.4876V130.067Z" fill="black"/>
<path opacity="0.3" d="M37.1621 135.417H20.2578V138.666H37.1621V135.417Z" fill="black"/>
<path opacity="0.3" d="M47.6263 140.767H20.2578V144.016H47.6263V140.767Z" fill="black"/>
<path opacity="0.3" d="M53.4375 146.112H20.2578V149.361H53.4375V146.112Z" fill="black"/>
<path opacity="0.3" d="M62.1935 151.462H20.2578V154.711H62.1935V151.462Z" fill="black"/>
<path d="M47.2596 91.6997H62.5185C63.2551 91.6997 63.9614 91.9923 64.4823 92.5131C65.0031 93.034 65.2957 93.7404 65.2957 94.4769V97.2384H44.4824V94.4769C44.4824 93.7404 44.775 93.034 45.2958 92.5131C45.8167 91.9923 46.5231 91.6997 47.2596 91.6997Z" fill="white" stroke="#263238" stroke-width="1.02934" stroke-miterlimit="10"/>
<path d="M36.9421 91.6997H52.0228C52.7844 91.6997 53.5147 92.0023 54.0532 92.5408C54.5918 93.0793 54.8943 93.8097 54.8943 94.5712V97.2437H34.0601V94.5712C34.0601 94.1933 34.1347 93.819 34.2796 93.4699C34.4246 93.1209 34.6371 92.8038 34.9048 92.5371C35.1726 92.2703 35.4904 92.059 35.84 91.9153C36.1896 91.7716 36.5641 91.6983 36.9421 91.6997Z" fill="#DD4D32" stroke="#263238" stroke-width="1.02934" stroke-miterlimit="10"/>
<path d="M25.346 91.6997H40.7935C41.5055 91.6969 42.1896 91.9768 42.6955 92.4778C43.2014 92.9788 43.4879 93.6601 43.4921 94.3721V97.2279H22.6631V94.3721C22.6672 93.6628 22.9516 92.9839 23.4541 92.4833C23.9566 91.9828 24.6367 91.7011 25.346 91.6997Z" fill="white" stroke="#263238" stroke-width="1.02934" stroke-miterlimit="10"/>
<path d="M221.746 207.263H233.206" stroke="#263238" stroke-width="1.02934" stroke-linecap="round" stroke-linejoin="round"/>
<path d="M41.2231 207.263H215.715" stroke="#263238" stroke-width="1.02934" stroke-linecap="round" stroke-linejoin="round"/>
<path d="M218.602 200.551C218.602 200.551 220.63 198.89 221.599 200.703C222.433 202.275 220.436 204.03 218.157 204.03V205.356C218.157 205.356 223.04 205.487 223.397 201.373C223.753 197.26 218.581 198.397 218.581 198.397L218.602 200.551Z" fill="#DD4D32" stroke="#263238" stroke-width="1.02934" stroke-linecap="round" stroke-linejoin="round"/>
<path d="M218.435 207.237H208.657L207.189 194.959H219.902L218.435 207.237Z" fill="#DD4D32" stroke="#263238" stroke-width="1.02934" stroke-linecap="round" stroke-linejoin="round"/>
<path d="M219.881 194.373H207.211C206.84 194.373 206.54 194.673 206.54 195.043V195.106C206.54 195.477 206.84 195.777 207.211 195.777H219.881C220.251 195.777 220.552 195.477 220.552 195.106V195.043C220.552 194.673 220.251 194.373 219.881 194.373Z" fill="white" stroke="#263238" stroke-width="1.02934" stroke-linecap="round" stroke-linejoin="round"/>
<path d="M211.885 193.036C211.885 193.036 216.381 190.338 214.913 187.241C213.446 184.144 208.484 182.106 208.484 177.285C208.484 173.135 212.896 171.599 215.778 169.949" stroke="#263238" stroke-width="1.02934" stroke-linecap="round" stroke-linejoin="round"/>
<path d="M213.362 172.878C212.775 173.275 212.273 173.785 211.883 174.377C211.494 174.969 211.225 175.632 211.093 176.328C210.96 177.025 210.967 177.74 211.112 178.434C211.257 179.128 211.537 179.786 211.937 180.371" stroke="#263238" stroke-width="1.02934" stroke-linecap="round" stroke-linejoin="round"/>
<path d="M215.81 185.113C216.711 186.843 216.96 188.838 216.512 190.736" stroke="#263238" stroke-width="1.02934" stroke-linecap="round" stroke-linejoin="round"/>
<path d="M95.368 206.246C95.368 206.246 95.1636 202.725 92.0563 201.483C88.949 200.241 87.2879 200.755 80.3554 202.62C75.9836 203.764 71.5063 204.457 66.9934 204.69V206.262L95.368 206.246Z" fill="white" stroke="#263238" stroke-width="1.02934" stroke-linecap="round" stroke-linejoin="round"/>
<path d="M95.2686 206.246C95.2686 206.246 95.4729 202.725 98.5802 201.483C101.688 200.241 103.343 200.755 110.281 202.62C114.66 203.766 119.144 204.46 123.664 204.69V206.262L95.2686 206.246Z" fill="white" stroke="#263238" stroke-width="1.02934" stroke-linecap="round" stroke-linejoin="round"/>
<path d="M124.791 205.623H66.2808V206.76H124.791V205.623Z" fill="#263238" stroke="#263238" stroke-width="1.02934" stroke-linecap="round" stroke-linejoin="round"/>
<path d="M96.7776 206.183C97.0561 205.353 97.5067 204.59 98.0999 203.945C98.6931 203.301 99.4156 202.788 100.22 202.442" stroke="#263238" stroke-width="1.02934" stroke-linecap="round" stroke-linejoin="round"/>
<path d="M98.5488 205.932C98.9623 205.219 99.5238 204.603 100.195 204.126C100.867 203.649 101.633 203.321 102.442 203.165C104.376 202.809 106.346 203.474 108.169 204.213C109.993 204.952 113.184 205.932 115.133 205.932" stroke="#263238" stroke-width="1.02934" stroke-linecap="round" stroke-linejoin="round"/>
<path d="M78.2856 205.612C80.223 205.403 82.1222 204.927 83.9291 204.197C85.0176 203.686 86.142 203.256 87.2932 202.908C88.4577 202.565 89.7103 202.691 90.7831 203.259C91.2444 203.559 91.6504 203.937 91.983 204.376C92.4453 204.96 92.8277 205.603 93.1201 206.288" stroke="#263238" stroke-width="1.02934" stroke-linecap="round" stroke-linejoin="round"/>
<path d="M88.9858 204.03C89.6235 204.113 90.2126 204.415 90.6522 204.884C91.0774 205.354 91.4483 205.871 91.7578 206.424" stroke="#263238" stroke-width="1.02934" stroke-linecap="round" stroke-linejoin="round"/>
<path d="M139.698 205.68C137.558 206.661 135.24 207.196 132.886 207.252C129.26 207.252 121.882 199.759 121.882 199.759C121.882 199.759 121.615 198.952 122.192 195.934C122.768 192.916 128.186 165.222 128.186 165.222C128.186 165.222 128.825 158.777 132.488 154.821C136.151 150.865 143.34 149.455 143.34 149.455C143.34 149.455 159.238 142.533 168.157 144.671C177.065 148.208 186.796 151.803 190.044 154.59C193.293 157.378 201.279 179.742 204.046 191.228C204.046 191.228 197.952 204.177 192.266 207.813C186.581 211.45 172.878 210.265 172.878 210.265L139.698 205.68Z" fill="#DD4D32"/>
<path opacity="0.3" d="M137.681 183.175L135.381 152.652C133.875 153.262 132.54 154.229 131.491 155.469C130.443 156.71 129.711 158.187 129.36 159.773C128.171 165.233 120.976 198.837 121.867 199.77C122.758 200.703 127.448 204.722 127.448 204.722C127.448 204.722 132.504 209.045 137.681 206.461C142.858 203.878 137.681 183.175 137.681 183.175Z" fill="black"/>
<path opacity="0.3" d="M160.507 155.482C160.239 156.393 159.092 156.687 158.138 156.697C155.398 156.727 152.74 155.759 150.661 153.973C150.283 153.642 143.54 157.808 142.764 158.222C141.538 158.882 140.338 159.606 139.096 160.219C137.933 160.79 136.832 161.073 136.073 162.226C135.569 163.075 135.19 163.993 134.946 164.95C133.311 170.306 131.587 175.645 130.099 181.037C128.81 185.706 127.075 190.873 127.149 195.772C127.15 196.123 127.174 196.473 127.222 196.82C128.27 203.082 139.704 205.681 139.704 205.681C139.704 205.681 135.659 208.159 132.892 207.253C130.125 206.346 123.659 202.647 121.621 199.188L127.233 169.844C127.233 169.844 127.165 155.696 137.362 151.504C147.559 147.312 151.562 146.668 151.562 146.668L160.507 155.482Z" fill="black"/>
<path opacity="0.3" d="M198.135 201.64C198.135 201.64 202.589 196.72 204.03 191.239C204.03 191.239 197.218 168.738 195.447 164.515C193.676 160.292 190.81 155.497 188.803 153.443L185.543 199.754L184.857 209.5C184.857 209.5 188.525 209.652 191.066 208.452C193.608 207.252 198.135 201.64 198.135 201.64Z" fill="black"/>
<path d="M184.857 209.516L188.802 153.448C188.802 153.448 169.697 144.54 164.698 143.692C159.7 142.843 135.423 152.411 135.423 152.411L138.954 206.184" stroke="#263238" stroke-width="1.02934" stroke-linecap="round" stroke-linejoin="round"/>
<path d="M150.419 116.328L148.46 125.734C148.46 125.734 145.945 123.957 145.41 125.964C144.876 127.971 146.51 130.733 149.67 130.885C149.67 130.885 150.53 135.145 153.338 138.037C154.66 139.448 156.06 140.785 157.53 142.041C157.53 142.041 158.636 149.183 162.246 149.455C165.857 149.728 166.559 146.479 167.287 141.962C167.287 141.962 170.405 136.554 171.317 133.63C171.317 133.63 175.142 130.963 172.59 127.07C172.59 127.07 173.853 117.758 171.657 116.186C169.462 114.614 154.25 115.416 150.419 116.328Z" fill="white"/>
<path d="M162.068 150.199C162.068 150.199 160.858 156.299 160.103 156.451C159.349 156.603 156.362 153.752 153.752 150.199C151.143 146.647 151.546 146.641 151.546 146.641C151.546 146.641 152.757 141.978 153.752 141.296C154.748 140.615 158.337 140.699 158.337 140.699L166.197 140.4C166.197 140.4 168.817 140.028 170.436 141.071C172.056 142.114 172.842 146.641 172.842 146.641C172.842 146.641 168.126 155.334 164.279 156.451C163.422 154.411 162.684 152.324 162.068 150.199Z" fill="white"/>
<path d="M136.303 195.997L137.346 181.367" stroke="#263238" stroke-width="1.02934" stroke-miterlimit="10"/>
<path d="M172.842 119.022C172.842 119.022 168.377 120.751 164.431 120.421C164.431 120.421 160.266 124.613 154.931 122.124C154.931 122.124 150.121 135.15 161.151 143.671C158.361 142.6 155.865 140.882 153.869 138.659C151.873 136.435 150.434 133.769 149.67 130.88C149.67 130.88 146.526 131.367 145.41 126.688C145.41 126.688 144.504 124.88 148.638 124.869L148.46 115.804L159.081 117.937L166.706 116.821L172.842 119.022Z" fill="#DD4D32"/>
<path opacity="0.4" d="M172.841 119.022C172.841 119.022 168.377 120.751 164.431 120.421C164.431 120.421 160.265 124.613 154.931 122.124C154.931 122.124 151.043 136.072 160.695 143.435C160.695 143.435 151.939 140.401 149.665 130.859C149.665 130.859 146.552 130.529 145.405 126.667C145.405 126.667 144.498 124.859 148.633 124.848L148.454 115.783L159.076 117.916L166.7 116.8L172.841 119.022Z" fill="white"/>
<path d="M160.7 137.078C161.046 137.358 161.409 137.617 161.785 137.854C162.031 138.011 162.403 138.137 162.576 137.906C162.635 137.812 162.666 137.703 162.665 137.592C162.823 135.019 162.22 132.42 162.587 129.868" stroke="#263238" stroke-width="1.02934" stroke-linecap="round" stroke-linejoin="round"/>
<path d="M164.279 128.406C164.279 128.406 165.558 125.587 168.854 128.118" stroke="#263238" stroke-width="2.05868" stroke-linecap="round" stroke-linejoin="round"/>
<path d="M160.135 128.904C160.135 128.904 157.724 125.907 154.737 128.999" stroke="#263238" stroke-width="2.05868" stroke-linecap="round" stroke-linejoin="round"/>
<path d="M156.88 141.59C156.88 141.59 158.164 149.277 162.692 149.513C166.36 149.702 167.083 143.345 167.224 141.071" stroke="#263238" stroke-width="1.02934" stroke-linecap="round" stroke-linejoin="round"/>
<path d="M149.078 126.588C149.078 126.588 147.082 124.204 145.73 125.367C144.378 126.53 146.406 131.655 149.67 130.88" stroke="#263238" stroke-width="1.02934" stroke-linecap="round" stroke-linejoin="round"/>
<path d="M157.724 138.032C158.709 139.22 160.057 140.052 161.56 140.401" stroke="#263238" stroke-width="1.02934" stroke-linecap="round" stroke-linejoin="round"/>
<path d="M157.504 133.573C157.791 133.573 158.023 133.08 158.023 132.472C158.023 131.865 157.791 131.372 157.504 131.372C157.218 131.372 156.985 131.865 156.985 132.472C156.985 133.08 157.218 133.573 157.504 133.573Z" fill="#263238"/>
<path d="M166.433 132.473C166.433 133.081 166.197 133.573 165.909 133.573C165.621 133.573 165.385 133.081 165.385 132.473C165.385 131.865 165.616 131.367 165.909 131.367C166.202 131.367 166.433 131.865 166.433 132.473Z" fill="#263238"/>
<path d="M162.215 149.45C162.215 149.45 160.957 156.299 160.119 156.451C159.281 156.603 152.83 150.755 151.562 146.641C151.562 146.641 152.924 141.265 154.182 141.071C154.774 140.977 155.455 140.888 155.995 140.82" stroke="#263238" stroke-width="1.02934" stroke-linecap="round" stroke-linejoin="round"/>
<path d="M162.215 149.45C162.215 149.45 163.431 156.299 164.279 156.451C165.128 156.603 171.574 150.755 172.842 146.642C172.842 146.642 171.301 141.302 170.132 140.851C169.387 140.572 168.619 140.354 167.837 140.202" stroke="#263238" stroke-width="1.02934" stroke-linecap="round" stroke-linejoin="round"/>
<path d="M150.289 132.604C151.117 134.04 152.144 128.983 151.709 127.364C151.415 126.316 150.844 125.299 150.792 124.22C150.739 122.994 151.316 121.846 151.766 120.698C152.217 119.551 152.453 118.183 151.766 117.156C154.146 118.839 156.94 119.841 159.846 120.054C160.588 120.158 161.343 120.097 162.058 119.876C162.412 119.759 162.73 119.553 162.982 119.278C163.233 119.003 163.409 118.667 163.494 118.304C166.218 118.65 168.917 119.006 171.631 118.634C173.911 118.325 177.453 117.748 178.621 115.422C180.335 112.026 175.923 108.5 173.319 107.31C167.031 104.433 158.531 103.946 152.851 108.463C152.268 108.968 151.658 109.441 151.022 109.878C149.77 110.664 146.919 111.272 145.919 112.367C144.577 113.839 146.259 125.21 146.259 125.21C146.259 125.21 148.449 124.194 149.351 127.584C149.98 129.868 149.45 131.158 150.289 132.604Z" fill="#263238"/>
<path d="M170.892 117.9C170.855 118.041 170.831 118.185 170.819 118.33C170.76 119.62 170.914 120.91 171.275 122.15C171.416 122.705 171.62 123.245 171.71 123.811C171.919 125.158 171.919 126.457 172.915 127.552C172.915 127.552 174.822 120.882 174.052 116.113C173.963 115.589 173.79 114.174 172.946 114.431C172.328 114.62 171.898 115.678 171.626 116.192C171.322 116.734 171.076 117.306 170.892 117.9Z" fill="#263238"/>
<path d="M144.566 111.612C145.41 111.027 146.38 110.65 147.398 110.513C148.416 110.377 149.451 110.484 150.419 110.826C151.942 108.114 154.062 105.785 156.618 104.014" stroke="#263238" stroke-width="1.02934" stroke-linecap="round" stroke-linejoin="round"/>
<path opacity="0.47" d="M152.762 110.009C152.762 110.009 163.032 117.313 169.252 115.506C175.472 113.698 173.732 108.348 173.732 108.348" stroke="white" stroke-width="1.02934" stroke-linecap="round" stroke-linejoin="round"/>
<path opacity="0.47" d="M153.752 108.783C153.752 108.783 166.648 114.709 168.817 106.32" stroke="white" stroke-width="1.02934" stroke-linecap="round" stroke-linejoin="round"/>
<path d="M156.88 141.59C156.88 141.59 159.333 146.353 161.256 146.275C163.179 146.196 166.705 141.071 166.705 141.071C166.705 141.071 164.803 143.524 161.916 143.775C160.014 143.943 156.88 141.59 156.88 141.59Z" fill="#263238"/>
<path d="M171.72 176.368L172.118 176.185C172.341 176.086 172.524 175.915 172.638 175.699C172.751 175.483 172.788 175.235 172.742 174.995L172.663 174.513C172.625 174.273 172.506 174.053 172.326 173.889C172.146 173.726 171.916 173.628 171.673 173.612L171.191 173.57C171.001 173.557 170.817 173.493 170.66 173.385C170.502 173.277 170.376 173.129 170.295 172.957C170.164 172.684 170.028 172.433 169.876 172.16C169.78 171.996 169.73 171.81 169.73 171.621C169.73 171.431 169.78 171.245 169.876 171.081L170.122 170.662C170.243 170.451 170.291 170.206 170.26 169.965C170.229 169.723 170.12 169.499 169.949 169.326L169.603 168.985C169.435 168.805 169.209 168.691 168.965 168.661C168.72 168.631 168.473 168.688 168.267 168.822L167.843 169.074C167.679 169.169 167.492 169.219 167.303 169.219C167.113 169.219 166.927 169.169 166.763 169.074C166.075 168.677 165.337 168.375 164.568 168.178C164.38 168.129 164.208 168.03 164.072 167.892C163.935 167.753 163.839 167.581 163.792 167.392L163.666 166.868C163.614 166.624 163.477 166.407 163.279 166.255C163.081 166.103 162.836 166.027 162.587 166.04H162.105C161.856 166.027 161.612 166.102 161.414 166.253C161.216 166.404 161.078 166.62 161.025 166.863L160.889 167.387C160.845 167.573 160.751 167.744 160.617 167.881C160.483 168.017 160.315 168.115 160.129 168.162C159.857 168.241 159.605 168.319 159.333 168.419C159.152 168.484 158.958 168.5 158.769 168.465C158.58 168.43 158.404 168.345 158.259 168.22L157.824 167.848C157.646 167.684 157.417 167.586 157.175 167.572C156.933 167.557 156.694 167.627 156.498 167.769L156.115 168.031C155.905 168.164 155.748 168.368 155.674 168.607C155.6 168.845 155.614 169.102 155.712 169.331L155.906 169.855C155.976 170.033 155.997 170.228 155.968 170.417C155.938 170.607 155.859 170.785 155.738 170.934C155.564 171.14 155.401 171.355 155.251 171.579C155.141 171.739 154.99 171.866 154.814 171.947C154.638 172.029 154.443 172.061 154.25 172.04L153.726 171.993C153.482 171.96 153.235 172.014 153.027 172.145C152.819 172.276 152.664 172.477 152.589 172.711L152.416 173.182C152.332 173.406 152.325 173.652 152.396 173.881C152.468 174.109 152.613 174.308 152.809 174.445L153.333 174.796C153.488 174.908 153.611 175.058 153.69 175.231C153.769 175.405 153.801 175.596 153.784 175.786C153.751 176.066 153.737 176.348 153.742 176.63C153.737 176.814 153.686 176.994 153.595 177.155C153.504 177.315 153.374 177.449 153.218 177.547L152.694 177.83C152.478 177.947 152.309 178.133 152.214 178.359C152.119 178.585 152.103 178.836 152.17 179.072L152.295 179.544C152.356 179.781 152.497 179.991 152.693 180.137C152.889 180.284 153.13 180.359 153.375 180.35H153.899C154.088 180.348 154.275 180.396 154.44 180.488C154.605 180.579 154.744 180.713 154.842 180.874C154.989 181.136 155.141 181.398 155.308 181.624C155.416 181.78 155.481 181.963 155.496 182.152C155.51 182.342 155.475 182.532 155.392 182.703L155.172 183.164C155.064 183.383 155.032 183.633 155.084 183.871C155.135 184.11 155.266 184.325 155.455 184.48L155.827 184.794C156.013 184.952 156.246 185.043 156.49 185.051C156.733 185.06 156.973 184.986 157.169 184.841L157.556 184.569C157.707 184.461 157.883 184.395 158.067 184.378C158.251 184.36 158.436 184.392 158.604 184.469C158.882 184.6 159.16 184.715 159.448 184.825C159.625 184.891 159.782 185.002 159.902 185.147C160.023 185.293 160.103 185.467 160.135 185.653L160.213 186.125C160.254 186.365 160.374 186.585 160.555 186.748C160.735 186.912 160.966 187.01 161.209 187.026L161.701 187.068C161.943 187.091 162.185 187.032 162.389 186.9C162.593 186.767 162.746 186.57 162.823 186.34L162.975 185.921C163.039 185.739 163.15 185.577 163.298 185.453C163.445 185.329 163.623 185.246 163.813 185.213C164.118 185.164 164.421 185.099 164.72 185.019C164.904 184.97 165.097 184.971 165.281 185.02C165.465 185.07 165.633 185.167 165.768 185.302L166.087 185.627C166.256 185.8 166.477 185.912 166.717 185.944C166.956 185.977 167.199 185.928 167.408 185.805L167.837 185.564C168.054 185.447 168.224 185.26 168.319 185.033C168.414 184.806 168.429 184.554 168.361 184.317L168.241 183.898C168.184 183.71 168.18 183.511 168.228 183.321C168.276 183.131 168.375 182.957 168.513 182.819C168.739 182.598 168.952 182.365 169.153 182.122C169.278 181.971 169.441 181.858 169.626 181.793C169.81 181.729 170.009 181.715 170.201 181.755L170.635 181.839C170.874 181.885 171.122 181.849 171.338 181.737C171.554 181.624 171.725 181.442 171.825 181.22L172.029 180.78C172.137 180.559 172.165 180.308 172.11 180.069C172.054 179.83 171.919 179.616 171.725 179.465L171.401 179.198C171.25 179.083 171.133 178.929 171.063 178.752C170.993 178.576 170.972 178.384 171.002 178.197C171.054 177.876 171.087 177.552 171.102 177.227C171.122 177.043 171.19 176.867 171.298 176.717C171.407 176.566 171.552 176.446 171.72 176.368ZM165.228 176.646C165.229 177.21 165.063 177.761 164.75 178.231C164.437 178.7 163.993 179.067 163.472 179.283C162.951 179.5 162.378 179.557 161.824 179.447C161.271 179.338 160.763 179.067 160.363 178.669C159.964 178.27 159.692 177.762 159.582 177.209C159.471 176.656 159.528 176.083 159.743 175.561C159.959 175.04 160.324 174.595 160.793 174.281C161.262 173.968 161.813 173.8 162.377 173.8C163.13 173.799 163.852 174.096 164.385 174.627C164.919 175.157 165.22 175.878 165.223 176.63L165.228 176.646Z" fill="#263238"/>
<path d="M136.413 194.027C135.985 194.498 135.517 194.931 135.014 195.321C133.65 196.643 132.627 198.275 132.032 200.079C131.739 200.913 131.739 201.823 132.032 202.657C132.667 204.229 134.679 205.801 136.287 204.795" stroke="#263238" stroke-width="1.02934" stroke-linecap="round" stroke-linejoin="round"/>
<path d="M136.287 191.26C134.752 191.019 133.243 191.91 132.195 193.047C131.147 194.184 130.419 195.589 129.465 196.809" stroke="#263238" stroke-width="1.02934" stroke-linecap="round" stroke-linejoin="round"/>
<path d="M136.167 207.017C134.123 207.414 132.007 207.188 130.094 206.367C128.881 205.715 127.752 204.92 126.73 203.999L122.747 200.708C122.108 200.184 121.4 199.424 121.662 198.638C121.662 198.638 128.317 163.567 129.36 159.773C130.57 155.398 135.444 152.437 135.444 152.437" stroke="#263238" stroke-width="1.02934" stroke-linecap="round" stroke-linejoin="round"/>
<path d="M186.099 194.404C187.812 195.693 189.123 197.443 189.877 199.45C190.473 201.313 190.872 203.232 191.066 205.178C190.018 205.754 187.922 207.274 186.099 207.274" stroke="#263238" stroke-width="1.02934" stroke-linecap="round" stroke-linejoin="round"/>
<path d="M186.324 191.485C187.938 191.056 189.536 192.156 190.757 193.298C191.978 194.441 193.23 195.766 194.891 195.944" stroke="#263238" stroke-width="1.02934" stroke-linecap="round" stroke-linejoin="round"/>
<path d="M186.633 209.71C189.777 209.38 192.607 207.666 194.871 205.481C197.134 203.296 198.874 200.645 200.598 198.02C201.997 195.892 203.417 193.707 204.03 191.239C204.03 191.239 198.512 172.999 195.447 164.515C192.251 155.696 188.803 153.443 188.803 153.443" stroke="#263238" stroke-width="1.02934" stroke-linecap="round" stroke-linejoin="round"/>
<path d="M186.324 191.486C189.169 189.096 193.534 191.03 196.594 192.633" stroke="#263238" stroke-width="1.02934" stroke-linecap="round" stroke-linejoin="round"/>
<path d="M186.094 181.723H136.413V210.276H186.094V181.723Z" fill="white"/>
<path d="M186.324 210.276H136.167V211.769H186.324V210.276Z" fill="#263238"/>
<path d="M136.167 210.276L186.099 181.723L186.324 210.276H136.167Z" fill="#263238"/>
<path opacity="0.9" d="M136.167 210.276L186.099 181.723L186.324 210.276H136.167Z" fill="white"/>
<path d="M164.917 198.527C166.571 196.873 166.571 194.192 164.917 192.539C163.264 190.885 160.583 190.885 158.93 192.539C157.276 194.192 157.276 196.873 158.93 198.527C160.583 200.18 163.264 200.18 164.917 198.527Z" fill="#263238"/>
<path d="M186.094 181.723H136.413V210.276H186.094V181.723Z" stroke="#263238" stroke-width="1.02934" stroke-linecap="round" stroke-linejoin="round"/>
<path d="M148.848 123.695C148.848 123.695 149.938 133.651 151.321 135.449C152.704 137.246 157.148 143.749 161.99 143.649C166.831 143.55 169.991 137.325 170.782 134.657C171.767 131.28 172.363 127.8 172.559 124.287" stroke="#263238" stroke-width="1.02934" stroke-linecap="round" stroke-linejoin="round"/>
<path d="M171.285 133.62C171.285 133.62 174.874 131.765 172.558 127.06" stroke="#263238" stroke-width="1.02934" stroke-linecap="round" stroke-linejoin="round"/>
</svg>
