<svg width="340" height="340" viewBox="0 0 340 340" fill="none" xmlns="http://www.w3.org/2000/svg">
<path d="M53.6122 179.42C53.6122 179.42 53.8395 221.62 88.2314 250.19C122.623 278.76 171.273 281.405 210.631 284.582C249.989 287.759 280.869 265.794 286.338 232.049C291.806 198.303 261.944 187.994 246.633 149.306C231.322 110.618 233.111 97.9873 199.155 73.8747C165.2 49.762 110.711 63.5954 81.2848 103.791C51.8591 143.987 53.6122 179.42 53.6122 179.42Z" fill="#DD4D32"/>
<path opacity="0.7" d="M53.6122 179.42C53.6122 179.42 53.8395 221.62 88.2314 250.19C122.623 278.76 171.273 281.405 210.631 284.582C249.989 287.759 280.869 265.794 286.338 232.049C291.806 198.303 261.944 187.994 246.633 149.306C231.322 110.618 233.111 97.9873 199.155 73.8747C165.2 49.762 110.711 63.5954 81.2848 103.791C51.8591 143.987 53.6122 179.42 53.6122 179.42Z" fill="white"/>
<path d="M255.261 136.813C254.75 136.574 254.214 136.391 253.663 136.269C250.438 135.497 246.669 134.892 246.669 134.892C246.669 134.892 252.323 129.178 250.169 126.689C248.015 124.2 244.257 128.03 244.257 128.03C244.257 128.03 248.021 117.684 242.648 116.153C237.275 114.621 231.363 126.115 231.363 126.115C231.363 126.115 231.094 121.705 228.408 122.28C225.721 122.854 225.183 128.03 225.183 128.03C225.183 128.03 221.15 125.732 220.079 127.838C219.008 129.944 221.419 134.156 221.419 134.156C221.419 134.156 216.854 131.476 216.315 133.965C216.112 134.9 216.04 135.858 216.1 136.813H255.261Z" stroke="#263238" stroke-width="0.950778" stroke-linecap="round" stroke-linejoin="round"/>
<path d="M292.489 136.813L282.018 135.419C279.286 133.303 275.983 132.052 272.534 131.829L271.338 131.751C271.338 131.751 274.18 128.341 272.475 120.945C270.769 113.55 261.106 119.809 261.106 119.809C261.106 119.809 268.197 113.071 267.06 106.813C265.923 100.554 255.991 105.616 255.991 105.616C255.991 105.616 257.151 88.7435 244.622 89.3119C232.093 89.8803 229.808 109.595 229.808 109.595C229.808 109.595 220.994 98.8792 215.017 112.443C214.133 114.453 213.479 116.557 213.067 118.714L212.815 118.462C212.815 118.462 208.13 112.754 204.439 116.835C200.747 120.916 201.178 127.007 201.178 127.007C201.178 127.007 195.47 124.972 194.046 127.419C192.622 129.867 195.877 132.715 195.877 132.715C195.877 132.715 192.819 131.291 190.576 133.313C189.169 134.587 187.692 135.94 186.776 136.777L292.489 136.813Z" stroke="#263238" stroke-width="0.950778" stroke-linecap="round" stroke-linejoin="round"/>
<path d="M123.282 194.84C122.77 194.601 122.234 194.416 121.684 194.289C118.459 193.524 114.69 192.919 114.69 192.919C114.69 192.919 120.344 187.205 118.19 184.716C116.036 182.227 112.278 186.056 112.278 186.056C112.278 186.056 116.042 175.711 110.669 174.18C105.296 172.648 99.3843 184.142 99.3843 184.142C99.3843 184.142 99.1151 179.732 96.4286 180.306C93.7421 180.881 93.2036 186.056 93.2036 186.056C93.2036 186.056 89.1709 183.759 88.0999 185.865C87.0289 187.971 89.4401 192.183 89.4401 192.183C89.4401 192.183 84.8749 189.503 84.3364 191.992C84.133 192.927 84.0605 193.885 84.121 194.84H123.282Z" stroke="#263238" stroke-width="0.950778" stroke-linecap="round" stroke-linejoin="round"/>
<path d="M160.509 194.839L150.057 193.445C147.321 191.339 144.019 190.1 140.573 189.885L139.376 189.807C139.376 189.807 142.219 186.397 140.513 179.002C138.808 171.606 129.145 177.865 129.145 177.865C129.145 177.865 136.235 171.128 135.098 164.869C133.962 158.611 124.029 163.642 124.029 163.642C124.029 163.642 125.19 146.764 112.661 147.338C100.132 147.912 97.8466 167.621 97.8466 167.621C97.8466 167.621 89.0451 156.905 83.0679 170.445C82.1837 172.456 81.5293 174.559 81.1173 176.716L80.866 176.465C80.866 176.465 76.1811 170.757 72.4894 174.837C68.7977 178.918 69.2285 185.009 69.2285 185.009C69.2285 185.009 63.5205 182.974 62.0905 185.416C60.6605 187.857 63.9453 190.789 63.9453 190.789C63.9453 190.789 60.8878 189.365 58.6441 191.387C57.238 192.661 55.7602 194.014 54.8447 194.851L160.509 194.839Z" stroke="#263238" stroke-width="0.950778" stroke-linecap="round" stroke-linejoin="round"/>
<path d="M289.288 260.702C284.474 260.702 279.814 262.397 276.125 265.489C273.583 262.684 270.047 260.981 266.27 260.742C262.492 260.503 258.77 261.747 255.895 264.209C253.965 262.568 251.695 261.375 249.249 260.715C246.804 260.055 244.242 259.944 241.748 260.39C239.255 260.836 236.89 261.828 234.825 263.295C232.76 264.762 231.044 266.668 229.802 268.876C228.75 268.31 227.568 268.028 226.374 268.056C225.18 268.084 224.013 268.421 222.988 269.035C221.963 269.648 221.115 270.518 220.526 271.557C219.938 272.597 219.629 273.772 219.631 274.966C219.631 275.236 219.647 275.506 219.678 275.774C219.249 275.726 218.818 275.702 218.386 275.702C215.724 275.699 213.149 276.645 211.122 278.371C209.402 276.894 207.209 276.083 204.942 276.085C204.644 276.086 204.346 276.102 204.05 276.133V182.555C204.509 181.69 205.074 180.886 205.731 180.161C206.575 179.412 207.17 178.423 207.438 177.327C207.707 176.231 207.636 175.08 207.235 174.025C206.834 172.971 206.121 172.063 205.193 171.422C204.264 170.782 203.162 170.439 202.034 170.439C200.905 170.439 199.804 170.782 198.875 171.422C197.946 172.063 197.234 172.971 196.833 174.025C196.432 175.08 196.361 176.231 196.629 177.327C196.898 178.423 197.493 179.412 198.336 180.161C198.962 180.851 199.504 181.612 199.952 182.429V277.503C199.199 277.972 198.513 278.539 197.911 279.191C195.757 277.397 193.097 276.321 190.302 276.112C187.507 275.902 184.716 276.571 182.319 278.024C181.663 277.629 180.974 277.29 180.261 277.013V190.512C181.17 186.923 184.03 183.931 184.03 183.931C185.362 182.745 186.302 181.183 186.725 179.451C187.149 177.719 187.036 175.899 186.401 174.233C185.767 172.566 184.641 171.132 183.173 170.12C181.705 169.108 179.964 168.566 178.181 168.566C176.398 168.566 174.658 169.108 173.189 170.12C171.721 171.132 170.596 172.566 169.961 174.233C169.327 175.899 169.214 177.719 169.638 179.451C170.061 181.183 171.001 182.745 172.333 183.931V183.961C172.333 183.961 175.324 187.108 176.174 190.854V276.097C175.911 276.097 175.641 276.097 175.366 276.097C172.219 276.093 169.171 277.196 166.756 279.215C165.418 277.737 163.649 276.719 161.7 276.305C159.75 275.89 157.72 276.1 155.897 276.905V182.555C156.355 181.69 156.92 180.886 157.578 180.161C158.421 179.412 159.016 178.423 159.285 177.327C159.553 176.231 159.482 175.08 159.081 174.025C158.68 172.971 157.968 172.063 157.039 171.422C156.11 170.782 155.009 170.439 153.88 170.439C152.752 170.439 151.65 170.782 150.721 171.422C149.793 172.063 149.08 172.971 148.679 174.025C148.278 175.08 148.207 176.231 148.476 177.327C148.744 178.423 149.339 179.412 150.183 180.161C150.809 180.851 151.351 181.612 151.798 182.429V277.144C149.757 275.988 147.404 275.502 145.071 275.757C142.739 276.011 140.546 276.993 138.802 278.562C138.846 278.342 138.868 278.117 138.868 277.892C138.868 276.996 138.512 276.136 137.878 275.502C137.244 274.868 136.384 274.512 135.488 274.512C135.228 274.513 134.969 274.546 134.716 274.607C134.621 273.635 134.289 272.701 133.749 271.887C133.209 271.072 132.479 270.402 131.62 269.935C130.762 269.468 129.803 269.219 128.826 269.208C127.849 269.198 126.884 269.426 126.016 269.875C124.88 267.502 123.215 265.422 121.148 263.795C119.082 262.167 116.669 261.035 114.097 260.487C111.524 259.938 108.86 259.988 106.309 260.631C103.759 261.274 101.39 262.494 99.3846 264.197C96.5094 261.735 92.7875 260.491 89.01 260.73C85.2324 260.969 81.697 262.672 79.1551 265.477C75.9832 262.813 72.0797 261.17 67.9572 260.763C63.8346 260.357 59.6856 261.207 56.0548 263.202C52.4239 265.196 49.4809 268.242 47.6121 271.939C45.7433 275.636 45.036 279.811 45.583 283.917H309.691C309.803 283.04 309.861 282.157 309.864 281.273C309.863 275.817 307.694 270.584 303.836 266.727C299.977 262.869 294.744 260.702 289.288 260.702Z" fill="#C2C2C2"/>
<path d="M156.16 174.908C156.16 173.628 155.125 171.593 153.838 171.593C152.552 171.593 151.517 173.628 151.517 174.908C151.517 176.188 153.491 178.749 153.838 178.749C154.185 178.749 156.16 176.188 156.16 174.908Z" fill="#DD4D32"/>
<path d="M204.361 174.908C204.361 173.628 203.326 171.593 202.04 171.593C200.753 171.593 199.718 173.628 199.718 174.908C199.718 176.188 201.693 178.749 202.04 178.749C202.387 178.749 204.361 176.188 204.361 174.908Z" fill="#DD4D32"/>
<path d="M154.108 159.633L170.478 145.225V157.449L155.197 164.629L154.108 159.633Z" fill="#263238" stroke="#263238" stroke-width="0.950778" stroke-miterlimit="10"/>
<path d="M157.404 171.492H150.296L148.794 143.592C148.774 143.393 148.774 143.193 148.794 142.994C149.04 140.69 151.188 133.139 153.844 133.139C156.483 133.139 158.631 140.69 158.9 142.994C158.918 143.193 158.918 143.393 158.9 143.592L157.404 171.492Z" fill="white" stroke="#263238" stroke-width="0.950778" stroke-miterlimit="10"/>
<path d="M149.788 138.949H157.925C157.004 136.149 155.532 133.133 153.856 133.133C152.181 133.133 150.709 136.149 149.788 138.949Z" fill="#263238" stroke="#263238" stroke-width="0.950778" stroke-miterlimit="10"/>
<path d="M149.979 165.604L150.296 171.492H157.404L157.722 165.604H149.979Z" fill="#263238" stroke="#263238" stroke-width="0.950778" stroke-miterlimit="10"/>
<path d="M202.075 159.633L185.687 145.225V157.449L200.969 164.629L202.075 159.633Z" fill="#263238" stroke="#263238" stroke-width="0.950778" stroke-miterlimit="10"/>
<path d="M198.779 171.492H205.887L207.389 143.592C207.409 143.393 207.409 143.193 207.389 142.994C207.143 140.69 204.995 133.139 202.339 133.139C199.7 133.139 197.552 140.69 197.283 142.994C197.265 143.193 197.265 143.393 197.283 143.592L198.779 171.492Z" fill="white" stroke="#263238" stroke-width="0.950778" stroke-miterlimit="10"/>
<path d="M206.204 165.604L205.887 171.492H198.779L198.462 165.604H206.204Z" fill="#263238" stroke="#263238" stroke-width="0.950778" stroke-miterlimit="10"/>
<path d="M198.252 138.949H206.39C205.462 136.149 203.996 133.133 202.321 133.133C200.646 133.133 199.186 136.149 198.252 138.949Z" fill="#263238" stroke="#263238" stroke-width="0.950778" stroke-miterlimit="10"/>
<path d="M181.846 175.609C181.808 174.661 181.405 173.764 180.72 173.107C180.036 172.45 179.124 172.083 178.176 172.083C177.227 172.083 176.315 172.45 175.631 173.107C174.947 173.764 174.543 174.661 174.505 175.609C174.505 177.637 177.622 181.682 178.173 181.682C178.603 181.682 181.846 177.625 181.846 175.609Z" fill="#DD4D32"/>
<path d="M187.483 161.668H168.893L164.956 101.284C164.905 100.757 164.905 100.226 164.956 99.6987C165.614 93.6556 171.292 73.8809 178.191 73.8809C185.095 73.8809 190.756 93.6556 191.426 99.6987C191.48 100.226 191.48 100.757 191.426 101.284L187.483 161.668Z" fill="white" stroke="#263238" stroke-width="0.950778" stroke-miterlimit="10"/>
<path d="M178.226 146.763C176.069 146.763 174 145.906 172.475 144.382C170.949 142.857 170.091 140.789 170.089 138.632V104.736C170.091 102.579 170.949 100.511 172.475 98.9862C174 97.4615 176.069 96.605 178.226 96.605C180.382 96.6066 182.45 97.4638 183.974 98.9883C185.499 100.513 186.356 102.58 186.358 104.736V138.632C186.356 140.788 185.499 142.855 183.974 144.379C182.45 145.904 180.382 146.761 178.226 146.763Z" fill="#DD4D32" stroke="#263238" stroke-width="0.950778" stroke-miterlimit="10"/>
<path d="M184.724 170.338H171.645L168.893 161.279H187.507L184.724 170.338Z" fill="#263238" stroke="#263238" stroke-width="0.950778" stroke-miterlimit="10"/>
<path d="M180.297 111.232C183.214 110.07 184.637 106.765 183.476 103.848C182.314 100.932 179.009 99.5086 176.092 100.67C173.175 101.831 171.752 105.137 172.914 108.053C174.075 110.97 177.381 112.393 180.297 111.232Z" fill="#263238"/>
<path d="M183.813 107.535C184.307 104.435 182.195 101.521 179.095 101.027C175.995 100.532 173.081 102.645 172.586 105.745C172.092 108.845 174.205 111.759 177.305 112.253C180.405 112.747 183.319 110.635 183.813 107.535Z" fill="#DD4D32" stroke="#263238" stroke-width="0.950778" stroke-miterlimit="10"/>
<path d="M178.196 101.727C179.574 101.727 180.897 102.261 181.89 103.215C182.883 104.17 183.467 105.472 183.521 106.848C183.521 106.777 183.521 106.705 183.521 106.633C183.475 105.249 182.893 103.938 181.898 102.975C180.902 102.013 179.572 101.475 178.187 101.475C176.803 101.475 175.472 102.013 174.477 102.975C173.482 103.938 172.9 105.249 172.853 106.633C172.853 106.705 172.853 106.777 172.853 106.848C172.906 105.469 173.493 104.163 174.49 103.208C175.486 102.252 176.815 101.721 178.196 101.727Z" fill="#263238"/>
<path d="M182.383 107.321C182.76 105.008 181.19 102.829 178.878 102.452C176.565 102.076 174.385 103.646 174.009 105.958C173.633 108.271 175.203 110.45 177.515 110.827C179.828 111.203 182.007 109.633 182.383 107.321Z" fill="white" stroke="#263238" stroke-width="0.950778" stroke-miterlimit="10"/>
<path d="M178.196 110.481C179.287 110.48 180.336 110.06 181.124 109.307C181.913 108.554 182.382 107.526 182.433 106.436C182.433 106.502 182.433 106.568 182.433 106.633C182.433 107.759 181.986 108.838 181.19 109.633C180.394 110.429 179.315 110.876 178.19 110.876C177.065 110.876 175.986 110.429 175.191 109.633C174.395 108.838 173.948 107.759 173.948 106.633C173.948 106.568 173.948 106.502 173.948 106.436C173.999 107.528 174.469 108.557 175.261 109.311C176.052 110.064 177.104 110.483 178.196 110.481Z" fill="#263238"/>
<path d="M178.196 125.671C181.336 125.671 183.88 123.127 183.88 119.987C183.88 116.848 181.336 114.303 178.196 114.303C175.057 114.303 172.512 116.848 172.512 119.987C172.512 123.127 175.057 125.671 178.196 125.671Z" fill="#263238"/>
<path d="M178.196 126.354C181.336 126.354 183.88 123.809 183.88 120.67C183.88 117.531 181.336 114.986 178.196 114.986C175.057 114.986 172.512 117.531 172.512 120.67C172.512 123.809 175.057 126.354 178.196 126.354Z" fill="#DD4D32" stroke="#263238" stroke-width="0.950778" stroke-miterlimit="10"/>
<path d="M178.196 115.763C179.574 115.764 180.897 116.297 181.89 117.252C182.883 118.207 183.467 119.509 183.521 120.885C183.521 120.813 183.521 120.741 183.521 120.67C183.475 119.286 182.893 117.974 181.898 117.012C180.902 116.049 179.572 115.511 178.187 115.511C176.803 115.511 175.472 116.049 174.477 117.012C173.482 117.974 172.9 119.286 172.853 120.67C172.853 120.741 172.853 120.813 172.853 120.885C172.906 119.505 173.493 118.2 174.49 117.244C175.486 116.289 176.815 115.758 178.196 115.763Z" fill="#263238"/>
<path d="M178.196 124.912C180.539 124.912 182.439 123.012 182.439 120.669C182.439 118.327 180.539 116.427 178.196 116.427C175.854 116.427 173.954 118.327 173.954 120.669C173.954 123.012 175.854 124.912 178.196 124.912Z" fill="white" stroke="#263238" stroke-width="0.950778" stroke-miterlimit="10"/>
<path d="M178.196 124.517C179.287 124.517 180.336 124.096 181.124 123.343C181.913 122.59 182.382 121.562 182.433 120.472C182.433 120.538 182.433 120.604 182.433 120.67C182.433 121.795 181.986 122.874 181.19 123.669C180.394 124.465 179.315 124.912 178.19 124.912C177.065 124.912 175.986 124.465 175.191 123.669C174.395 122.874 173.948 121.795 173.948 120.67C173.948 120.604 173.948 120.538 173.948 120.472C173.999 121.564 174.469 122.594 175.261 123.347C176.052 124.101 177.104 124.52 178.196 124.517Z" fill="#263238"/>
<path d="M180.301 139.306C183.217 138.145 184.64 134.839 183.479 131.922C182.318 129.006 179.012 127.583 176.096 128.744C173.179 129.905 171.756 133.211 172.917 136.128C174.079 139.044 177.384 140.467 180.301 139.306Z" fill="#263238"/>
<path d="M183.816 135.608C184.31 132.508 182.198 129.594 179.098 129.099C175.998 128.605 173.084 130.717 172.59 133.817C172.095 136.918 174.208 139.831 177.308 140.326C180.408 140.82 183.322 138.708 183.816 135.608Z" fill="#DD4D32" stroke="#263238" stroke-width="0.950778" stroke-miterlimit="10"/>
<path d="M178.196 129.8C179.574 129.8 180.897 130.334 181.89 131.289C182.883 132.244 183.467 133.545 183.521 134.922C183.521 134.85 183.521 134.778 183.521 134.706C183.475 133.322 182.893 132.011 181.898 131.048C180.902 130.086 179.572 129.548 178.187 129.548C176.803 129.548 175.472 130.086 174.477 131.048C173.482 132.011 172.9 133.322 172.853 134.706C172.853 134.778 172.853 134.85 172.853 134.922C172.906 133.542 173.493 132.236 174.49 131.281C175.486 130.325 176.815 129.794 178.196 129.8Z" fill="#263238"/>
<path d="M182.384 135.391C182.76 133.078 181.191 130.898 178.878 130.522C176.566 130.146 174.386 131.716 174.01 134.028C173.634 136.341 175.203 138.52 177.516 138.896C179.828 139.273 182.008 137.703 182.384 135.391Z" fill="white" stroke="#263238" stroke-width="0.950778" stroke-miterlimit="10"/>
<path d="M178.196 138.554C179.287 138.554 180.336 138.133 181.124 137.38C181.913 136.627 182.382 135.599 182.433 134.509C182.433 134.575 182.433 134.641 182.433 134.707C182.433 135.832 181.986 136.911 181.19 137.706C180.394 138.502 179.315 138.949 178.19 138.949C177.065 138.949 175.986 138.502 175.191 137.706C174.395 136.911 173.948 135.832 173.948 134.707C173.948 134.641 173.948 134.575 173.948 134.509C173.999 135.601 174.469 136.631 175.261 137.384C176.052 138.138 177.104 138.557 178.196 138.554Z" fill="#263238"/>
<path d="M168.779 85.6857H187.614C185.221 79.3614 181.9 73.4858 178.196 73.4858C174.499 73.5158 171.16 79.3614 168.779 85.6857Z" fill="#263238" stroke="#263238" stroke-width="0.950778" stroke-miterlimit="10"/>
<path d="M253.149 191.764H116.264V280.334H253.149V191.764Z" fill="#263238" stroke="#263238" stroke-width="0.950778" stroke-linecap="round" stroke-linejoin="round"/>
<path d="M253.149 252.889H116.264V280.334H253.149V252.889Z" fill="#6B6B6B" stroke="#263238" stroke-width="0.950778" stroke-linecap="round" stroke-linejoin="round"/>
<path d="M166.613 229.309H119.584V265.34H166.613V229.309Z" fill="#DD4D32" stroke="#263238" stroke-width="0.950778" stroke-linecap="round" stroke-linejoin="round"/>
<path d="M164.71 231.475H121.475V263.168H164.71V231.475Z" fill="white" stroke="#263238" stroke-width="0.950778" stroke-linecap="round" stroke-linejoin="round"/>
<path d="M133.429 258.849L131.293 260.739" stroke="#263238" stroke-width="0.950778" stroke-linecap="round" stroke-linejoin="round"/>
<path d="M163.124 232.54L136.499 256.126" stroke="#263238" stroke-width="0.950778" stroke-linecap="round" stroke-linejoin="round"/>
<path d="M157.058 241.419L141.83 254.911" stroke="#263238" stroke-width="0.950778" stroke-linecap="round" stroke-linejoin="round"/>
<path d="M250.133 229.309H203.105V265.34H250.133V229.309Z" fill="#DD4D32" stroke="#263238" stroke-width="0.950778" stroke-linecap="round" stroke-linejoin="round"/>
<path d="M248.237 231.475H205.001V263.168H248.237V231.475Z" fill="white" stroke="#263238" stroke-width="0.950778" stroke-linecap="round" stroke-linejoin="round"/>
<path d="M216.956 258.849L214.82 260.739" stroke="#263238" stroke-width="0.950778" stroke-linecap="round" stroke-linejoin="round"/>
<path d="M246.645 232.54L220.025 256.126" stroke="#263238" stroke-width="0.950778" stroke-linecap="round" stroke-linejoin="round"/>
<path d="M240.584 241.419L225.356 254.911" stroke="#263238" stroke-width="0.950778" stroke-linecap="round" stroke-linejoin="round"/>
<path d="M205.498 274.92L203.105 271.18L206.844 272.526L206.396 268.936L208.34 271.928L208.49 266.543L209.537 270.133L211.93 263.402L212.229 270.432L215.071 268.787L213.426 271.928L215.52 270.582L215.37 272.826L218.063 271.479L216.268 274.77L205.498 274.92Z" fill="#DD4D32"/>
<path d="M221.204 274.92L218.811 271.18L222.55 272.526L222.102 268.936L224.046 271.928L224.196 266.543L225.243 270.133L227.636 263.402L227.935 270.432L230.777 268.787L229.132 271.928L231.226 270.582L231.077 272.826L233.769 271.479L231.974 274.77L221.204 274.92Z" fill="#DD4D32"/>
<path d="M236.761 274.92L234.367 271.18L238.107 272.526L237.658 268.936L239.603 271.928L239.752 266.543L240.799 270.133L243.193 263.402L243.492 270.432L246.334 268.787L244.689 271.928L246.783 270.582L246.633 272.826L249.326 271.479L247.531 274.77L236.761 274.92Z" fill="#DD4D32"/>
<path d="M120.984 274.92L118.591 271.18L122.33 272.526L121.882 268.936L123.826 271.928L123.976 266.543L125.023 270.133L127.416 263.402L127.715 270.432L130.557 268.787L128.912 271.928L131.006 270.582L130.857 272.826L133.549 271.479L131.754 274.77L120.984 274.92Z" fill="#DD4D32"/>
<path d="M136.69 274.92L134.297 271.18L138.036 272.526L137.588 268.936L139.532 271.928L139.682 266.543L140.729 270.133L143.122 263.402L143.421 270.432L146.263 268.787L144.618 271.928L146.712 270.582L146.563 272.826L149.255 271.479L147.46 274.77L136.69 274.92Z" fill="#DD4D32"/>
<path d="M152.247 274.92L149.854 271.18L153.593 272.526L153.144 268.936L155.089 271.928L155.238 266.543L156.286 270.133L158.679 263.402L158.978 270.432L161.82 268.787L160.175 271.928L162.269 270.582L162.119 272.826L164.812 271.479L163.017 274.77L152.247 274.92Z" fill="#DD4D32"/>
<path d="M253.149 273.986H116.264V280.328H253.149V273.986Z" fill="#6B6B6B" stroke="#263238" stroke-width="0.950778" stroke-linecap="round" stroke-linejoin="round"/>
<path d="M199.359 226.234H169.682V280.329H199.359V226.234Z" fill="#DD4D32" stroke="#263238" stroke-width="0.950778" stroke-linecap="round" stroke-linejoin="round"/>
<path d="M197.008 257.041H171.561V228.866H197.008V257.041ZM197.008 260.033H171.561V277.313H197.008V260.033Z" fill="white" stroke="#263238" stroke-width="0.950778" stroke-linecap="round" stroke-linejoin="round"/>
<path d="M198.515 250.418H197.588V260.297H198.515V250.418Z" fill="#263238" stroke="#263238" stroke-width="0.950778" stroke-linecap="round" stroke-linejoin="round"/>
<path d="M175.492 251.315L174.02 252.62" stroke="#263238" stroke-width="0.950778" stroke-linecap="round" stroke-linejoin="round"/>
<path d="M195.961 233.187L177.604 249.443" stroke="#263238" stroke-width="0.950778" stroke-linecap="round" stroke-linejoin="round"/>
<path d="M191.778 239.301L181.284 248.605" stroke="#263238" stroke-width="0.950778" stroke-linecap="round" stroke-linejoin="round"/>
<path d="M180.213 274.477L179.082 275.482" stroke="#263238" stroke-width="0.950778" stroke-linecap="round" stroke-linejoin="round"/>
<path d="M195.961 260.523L181.84 273.034" stroke="#263238" stroke-width="0.950778" stroke-linecap="round" stroke-linejoin="round"/>
<path d="M192.742 265.232L184.67 272.388" stroke="#263238" stroke-width="0.950778" stroke-linecap="round" stroke-linejoin="round"/>
<path opacity="0.3" d="M253.149 212.615H116.557V230.996H253.149V212.615Z" fill="black"/>
<path d="M255.189 202.001H114.319V228.22H255.189V202.001Z" fill="white" stroke="#263238" stroke-width="0.950778" stroke-linecap="round" stroke-linejoin="round"/>
<path d="M128.332 202.001H121.846V228.22H128.332V202.001Z" fill="#DD4D32" stroke="#263238" stroke-width="0.950778" stroke-linecap="round" stroke-linejoin="round"/>
<path d="M142.075 202.001H135.589V228.22H142.075V202.001Z" fill="#DD4D32" stroke="#263238" stroke-width="0.950778" stroke-linecap="round" stroke-linejoin="round"/>
<path d="M155.825 202.001H149.339V228.22H155.825V202.001Z" fill="#DD4D32" stroke="#263238" stroke-width="0.950778" stroke-linecap="round" stroke-linejoin="round"/>
<path d="M168.904 202.001H162.418V228.22H168.904V202.001Z" fill="#DD4D32" stroke="#263238" stroke-width="0.950778" stroke-linecap="round" stroke-linejoin="round"/>
<path d="M181.984 202.001H175.498V228.22H181.984V202.001Z" fill="#DD4D32" stroke="#263238" stroke-width="0.950778" stroke-linecap="round" stroke-linejoin="round"/>
<path d="M195.057 202.001H188.571V228.22H195.057V202.001Z" fill="#DD4D32" stroke="#263238" stroke-width="0.950778" stroke-linecap="round" stroke-linejoin="round"/>
<path d="M208.137 202.001H201.651V228.22H208.137V202.001Z" fill="#DD4D32" stroke="#263238" stroke-width="0.950778" stroke-linecap="round" stroke-linejoin="round"/>
<path d="M221.216 202.001H214.73V228.22H221.216V202.001Z" fill="#DD4D32" stroke="#263238" stroke-width="0.950778" stroke-linecap="round" stroke-linejoin="round"/>
<path d="M234.296 202.001H227.81V228.22H234.296V202.001Z" fill="#DD4D32" stroke="#263238" stroke-width="0.950778" stroke-linecap="round" stroke-linejoin="round"/>
<path d="M247.369 202.001H240.883V228.22H247.369V202.001Z" fill="#DD4D32" stroke="#263238" stroke-width="0.950778" stroke-linecap="round" stroke-linejoin="round"/>
<path d="M271.027 217.557C271.027 217.557 268.388 212.77 261.453 209.886C254.519 207.002 240.135 202.934 240.35 199.344C240.566 195.754 251.85 200.062 251.85 200.062C251.85 200.062 233.158 190.955 230.759 185.199C228.36 179.443 248.021 185.678 248.021 185.678C248.021 185.678 239.148 168.925 241.547 165.071C243.946 161.218 252.574 168.422 252.574 168.422C252.574 168.422 249.457 147.81 264.541 145.656C279.625 143.502 279.882 159.316 279.882 159.316C279.882 159.316 285.153 149.97 291.148 152.136C297.144 154.302 290.664 166.274 290.664 166.274C290.664 166.274 299.537 159.561 301.93 169.631C304.324 179.701 291.388 190.961 291.388 190.961C291.388 190.961 300.255 188.083 300.734 193.115C301.212 198.147 294.978 201.492 294.978 201.492C294.978 201.492 300.255 202.449 298.334 205.082C296.414 207.714 272.702 213.961 271.027 217.557Z" fill="#DD4D32"/>
<path d="M285.279 193.127C285.279 193.127 276.424 195.227 271.864 202.419L271.697 192.499C272.397 191.302 277.363 183.416 285.279 180.999C285.279 180.999 276.196 183.47 271.667 190.811L271.248 166.28L271.123 196.13C266.665 189.208 258.414 187.197 258.414 187.197C265.833 189.549 270.285 196.693 271.117 198.123L271.075 207.929C266.599 201.096 258.414 199.086 258.414 199.086C265.696 201.396 270.117 208.312 271.063 209.922L270.776 278.287H273.169L272.116 216.216C272.941 214.834 277.567 207.63 285.279 205.267C285.279 205.267 276.681 207.307 272.068 214.242L271.9 204.357C272.78 202.891 277.573 195.478 285.279 193.127Z" fill="#263238"/>
<path d="M280.821 276.48H261.932V280.818H280.821V276.48Z" fill="white" stroke="#263238" stroke-width="0.950778" stroke-linecap="round" stroke-linejoin="round"/>
<path d="M285.213 280.28H86.6516V283.918H285.213V280.28Z" fill="white" stroke="#263238" stroke-width="0.950778" stroke-linecap="round" stroke-linejoin="round"/>
<path d="M40.4966 283.918H314.327" stroke="#263238" stroke-width="0.950778" stroke-miterlimit="10"/>
<path d="M94.8489 321.482C116.057 321.482 133.25 317.715 133.25 313.069C133.25 308.423 116.057 304.657 94.8489 304.657C73.6408 304.657 56.4482 308.423 56.4482 313.069C56.4482 317.715 73.6408 321.482 94.8489 321.482Z" fill="#DD4D32"/>
<path opacity="0.5" d="M94.8489 321.482C116.057 321.482 133.25 317.715 133.25 313.069C133.25 308.423 116.057 304.657 94.8489 304.657C73.6408 304.657 56.4482 308.423 56.4482 313.069C56.4482 317.715 73.6408 321.482 94.8489 321.482Z" fill="white"/>
<path d="M88.2615 227.065C88.2615 227.065 84.1869 239.588 83.2774 245.925C82.368 252.261 80.561 269.918 80.561 269.918C77.3591 273.909 75.2535 278.667 74.4521 283.721C73.3213 291.799 73.6982 302.676 73.6982 302.676C73.6982 302.676 72.7947 304.034 72.7947 304.716C72.7947 305.399 72.9443 306.906 72.9443 306.906C71.2831 308.199 69.6951 309.583 68.1876 311.053C66.5302 312.788 66.8294 315.809 66.8294 316.635C66.8294 317.461 67.8107 318.675 68.3432 318.675C68.8757 318.675 72.4896 317.993 74.3264 316.486C76.1633 314.978 76.2112 311.884 76.6659 310.502C77.1206 309.12 80.1841 305.069 80.1841 305.069C80.6437 305.021 81.0727 304.817 81.3995 304.49C81.7262 304.163 81.9308 303.734 81.9791 303.274C82.1286 301.617 82.5056 298.673 82.6552 298.069C82.8048 297.465 89.147 287.203 90.577 281.017C92.007 274.83 96.4646 265.556 98.0501 261.481C99.6357 257.407 103.028 249.108 103.028 249.108L103.71 248.88C103.71 248.88 102.424 266.83 102.047 272.496C101.67 278.163 101.592 279.587 101.592 287.054C101.592 294.521 104.536 306.799 104.536 306.799V310.646C104.536 310.873 105.134 311.101 106.271 311.172C107.408 311.244 110.735 311.262 111.566 311.771C112.398 312.279 115.791 312.674 119.261 312.525C122.731 312.375 124.544 311.771 124.167 311.089C123.79 310.407 117.831 308.097 116.85 307.469C115.868 306.84 113.589 305.339 113.589 305.339C113.589 305.339 113.744 303.382 113.212 302.473C112.679 301.563 112.458 301.647 112.458 300.678C112.458 299.708 114.648 286.868 115.252 280.759C115.856 274.65 119.099 265.969 119.327 259.483C119.554 252.997 118.95 248.013 118.417 240.618C118.107 236.197 117.325 231.822 116.084 227.568L88.2615 227.065Z" fill="#263238" stroke="#263238" stroke-width="0.950778" stroke-linecap="round" stroke-linejoin="round"/>
<path d="M112.781 227.526L102.292 227.329V229.854H112.781V227.526Z" fill="#595959" stroke="#263238" stroke-width="0.950778" stroke-linecap="round" stroke-linejoin="round"/>
<path d="M114.061 229.853H116.718C116.365 228.417 116.12 227.592 116.12 227.592L114.079 227.55L114.061 229.853Z" fill="#595959" stroke="#263238" stroke-width="0.950778" stroke-linecap="round" stroke-linejoin="round"/>
<path d="M93.3113 229.854H99.7254V227.281L93.3113 227.161V229.854Z" fill="#595959" stroke="#263238" stroke-width="0.950778" stroke-linecap="round" stroke-linejoin="round"/>
<path d="M91.9531 227.131L88.2614 227.065C88.2614 227.065 87.9024 228.154 87.3818 229.854H91.9531V227.131Z" fill="#595959" stroke="#263238" stroke-width="0.950778" stroke-linecap="round" stroke-linejoin="round"/>
<path d="M110.065 227.442H105.84V229.782H110.065V227.442Z" fill="white" stroke="#263238" stroke-width="0.950778" stroke-linecap="round" stroke-linejoin="round"/>
<path d="M126.058 237.327C126.058 237.327 127.416 243.13 127.039 246.679C126.895 248.031 125.076 251.962 124.699 252.189C124.332 252.307 123.936 252.307 123.569 252.189C123.845 251.45 124.071 250.692 124.245 249.921C124.322 249.323 124.4 247.66 124.4 247.66C123.964 248.627 123.458 249.561 122.886 250.454C122.376 250.966 121.791 251.397 121.151 251.734C121.018 251.726 120.888 251.688 120.771 251.623C120.654 251.557 120.553 251.467 120.475 251.357C120.326 251.13 121.074 250.604 121.456 249.772C121.839 248.94 122.438 247.379 122.438 247.379C121.893 248.078 121.293 248.732 120.643 249.335C120.048 249.77 119.385 250.101 118.68 250.316C118.453 250.316 118.004 249.491 118.232 249.413C118.459 249.335 120.344 248.282 120.565 247.905C120.772 247.589 121 247.287 121.247 247.002C120.361 247.359 119.454 247.661 118.531 247.905C118.154 247.905 118.004 247.307 118.004 247.307L120.493 246.026L121.092 244.513C120.784 243.352 120.784 242.131 121.092 240.97C121.618 239.235 121.845 238.027 121.845 238.027L126.058 237.327Z" fill="white" stroke="#263238" stroke-width="0.950778" stroke-linecap="round" stroke-linejoin="round"/>
<path d="M123.419 239.815C123.419 239.815 123.491 242.304 123.945 242.807C124.4 243.31 125.226 243.938 125.226 244.464C125.226 244.991 124.4 248.013 124.628 248.24C124.696 248.33 124.79 248.399 124.896 248.439C125.003 248.478 125.118 248.486 125.229 248.463C125.34 248.439 125.442 248.384 125.523 248.304C125.604 248.224 125.661 248.123 125.687 248.013C126.165 246.36 126.493 244.668 126.668 242.957" fill="white"/>
<path d="M123.419 239.815C123.419 239.815 123.491 242.304 123.945 242.807C124.4 243.31 125.226 243.938 125.226 244.464C125.226 244.991 124.4 248.013 124.628 248.24C124.696 248.33 124.79 248.399 124.896 248.439C125.003 248.478 125.118 248.486 125.229 248.463C125.34 248.439 125.442 248.384 125.523 248.304C125.604 248.224 125.661 248.123 125.687 248.013C126.165 246.36 126.493 244.668 126.668 242.957" stroke="#263238" stroke-width="0.950778" stroke-linecap="round" stroke-linejoin="round"/>
<path d="M119.644 195.976C119.644 195.976 121.684 208.278 121.905 211.975C122.127 215.673 122.133 218.461 122.133 218.461L126.058 237.326L121.833 238.003C121.833 238.003 116.855 227.831 115.85 226.634C114.845 225.438 114.336 223.164 114.719 219.921C115.102 216.678 114.791 198.944 115.545 196.832C115.679 196.43 115.916 196.07 116.233 195.788C116.549 195.507 116.934 195.313 117.349 195.226C117.763 195.14 118.193 195.164 118.596 195.295C118.999 195.427 119.36 195.661 119.644 195.976Z" fill="white" stroke="#263238" stroke-width="0.950778" stroke-linecap="round" stroke-linejoin="round"/>
<path d="M121.307 236.794L125.531 235.663" stroke="#263238" stroke-width="0.950778" stroke-linecap="round" stroke-linejoin="round"/>
<path d="M95.5011 183.609C95.5011 183.609 78.9753 190.466 78.2214 190.789C77.4675 191.112 76.941 190.789 76.564 192.297C76.1871 193.804 69.9226 220.705 70.2098 222.835C70.497 224.965 75.128 243.442 75.128 243.442L80.3395 242.538L80.9378 220.28L83.732 213.184C83.732 213.184 87.4296 222.464 87.3519 223.224C87.2741 223.984 86.3706 225.713 86.9031 226.694C87.1681 227.23 87.5555 227.695 88.034 228.053H116.754C116.754 228.053 118.549 227.454 118.638 226.617C118.581 225.4 118.431 224.19 118.19 222.997C118.19 222.997 120.751 212.885 120.751 205.867C120.751 198.848 119.925 193.045 118.788 191.381C117.651 189.718 113.583 188.06 109.891 186.78C106.199 185.5 103.1 184.291 99.7791 183.992C96.4584 183.693 95.5011 183.609 95.5011 183.609Z" fill="white" stroke="#263238" stroke-width="0.950778" stroke-linecap="round" stroke-linejoin="round"/>
<path d="M108.024 189.263C108.024 189.263 110.585 200.763 110.585 207.213C110.585 213.663 110.758 221.381 111.105 222.608C111.452 223.834 111.985 225.928 110.758 227.328" stroke="#263238" stroke-width="0.950778" stroke-linecap="round" stroke-linejoin="round"/>
<path d="M83.7319 213.178L88.3331 202.013" stroke="#263238" stroke-width="0.950778" stroke-linecap="round" stroke-linejoin="round"/>
<path d="M86.0713 208.051L90.3733 202.618" stroke="#263238" stroke-width="0.950778" stroke-linecap="round" stroke-linejoin="round"/>
<path d="M74.6013 241.096L80.3393 240.492" stroke="#263238" stroke-width="0.950778" stroke-linecap="round" stroke-linejoin="round"/>
<path d="M111.195 185.721L112.93 189.412L109.005 187.228L111.195 185.721Z" fill="white" stroke="#263238" stroke-width="0.950778" stroke-linecap="round" stroke-linejoin="round"/>
<path d="M108.024 189.263L111.195 185.721L108.102 184.207L108.024 189.263Z" fill="white" stroke="#263238" stroke-width="0.950778" stroke-linecap="round" stroke-linejoin="round"/>
<path d="M108.557 160.597C108.557 160.597 110.591 162.859 110.591 163.535C110.575 164.092 110.525 164.648 110.441 165.199C110.441 165.199 113.834 166.856 113.433 167.538C113.032 168.22 112.53 169.495 112.53 169.495C112.53 169.495 115.318 175.61 114.923 176.214C114.528 176.818 110.699 180.51 110.023 182.323C109.346 184.136 107.982 189.263 107.982 189.263L95.0046 182.083C95.0046 182.083 96.5901 179.523 96.6679 177.787C96.7457 176.052 96.9671 174.694 96.6679 173.635C96.3687 172.576 94.7832 169.86 94.6276 167.221C94.472 164.582 97.344 161.489 101.119 159.676C104.895 157.863 108.557 160.597 108.557 160.597Z" fill="white" stroke="#263238" stroke-width="0.950778" stroke-linecap="round" stroke-linejoin="round"/>
<path d="M106.744 171.229C107.185 171.729 107.775 172.073 108.428 172.21C109.08 172.347 109.759 172.27 110.364 171.989" stroke="#263238" stroke-width="0.950778" stroke-linecap="round" stroke-linejoin="round"/>
<path d="M108.425 166.431C108.628 166.868 108.557 167.328 108.275 167.454C107.994 167.58 107.599 167.34 107.396 166.904C107.192 166.467 107.27 166.006 107.551 165.881C107.833 165.755 108.228 165.994 108.425 166.431Z" fill="#263238"/>
<path d="M105.308 166.102C105.523 165.554 105.914 165.094 106.42 164.793C106.926 164.493 107.518 164.37 108.102 164.444" stroke="#263238" stroke-width="1.90156" stroke-linecap="round" stroke-linejoin="round"/>
<path d="M99.5757 173.12C99.5757 173.12 101.538 173.12 101.538 172.061C101.538 171.002 100.03 168.896 100.407 167.837C100.784 166.778 102.591 166.042 101.915 164.893C101.239 163.744 99.8749 163.762 100.635 163.008C101.395 162.255 106.971 163.236 108.856 161.213C110.741 159.191 111.494 156.086 110.136 155.487C108.778 154.889 107.043 156.391 107.043 156.391C107.043 156.391 106.139 154.279 103.423 155.033C100.707 155.787 96.9371 158.73 94.825 161.674C92.7129 164.618 91.953 165.671 92.7847 167.657C93.6164 169.644 96.3328 173.318 97.3858 173.922C98.4389 174.526 99.5757 173.12 99.5757 173.12Z" fill="#263238" stroke="#263238" stroke-width="0.950778" stroke-linecap="round" stroke-linejoin="round"/>
<path d="M100.784 174.101C100.784 174.101 98.6721 171.079 96.8592 171.456C95.0462 171.833 95.501 174.478 96.7096 175.681C97.9182 176.883 100.03 176.058 100.479 175.758C100.479 175.758 102.142 179.755 103.8 179.911C105.457 180.066 110.136 178.02 110.136 178.02" fill="white"/>
<path d="M100.784 174.101C100.784 174.101 98.6721 171.079 96.8592 171.456C95.0462 171.833 95.501 174.478 96.7096 175.681C97.9182 176.883 100.03 176.058 100.479 175.758C100.479 175.758 102.142 179.755 103.8 179.911C105.457 180.066 110.136 178.02 110.136 178.02" stroke="#263238" stroke-width="0.950778" stroke-linecap="round" stroke-linejoin="round"/>
<path d="M105.685 185.188L108.024 189.263L103.501 187.001L105.685 185.188Z" fill="white" stroke="#263238" stroke-width="0.950778" stroke-linecap="round" stroke-linejoin="round"/>
<path d="M95.2738 180.21L105.685 185.188L103.273 191.076L93.6165 183.83L95.2738 180.21Z" fill="white" stroke="#263238" stroke-width="0.950778" stroke-linecap="round" stroke-linejoin="round"/>
<path d="M109.61 230.757C109.61 230.757 110.591 237.1 109.532 240.57" stroke="#5C656A" stroke-width="0.950778" stroke-linecap="round" stroke-linejoin="round"/>
<path d="M106.217 232.193C106.217 232.193 107.198 238.457 106.815 242.831" stroke="#5C656A" stroke-width="0.950778" stroke-linecap="round" stroke-linejoin="round"/>
<path d="M109.7 241.647C109.472 241.874 107.737 242.706 107.306 243.759C106.829 244.767 106.299 245.749 105.721 246.703" stroke="#5C656A" stroke-width="0.950778" stroke-linecap="round" stroke-linejoin="round"/>
<path d="M97.7628 230.38L95.7285 236.567" stroke="#5C656A" stroke-width="0.950778" stroke-linecap="round" stroke-linejoin="round"/>
<path d="M98.5944 230.458L98.1396 240.192" stroke="#5C656A" stroke-width="0.950778" stroke-linecap="round" stroke-linejoin="round"/>
<path d="M114.965 230.38L116.251 235.968" stroke="#5C656A" stroke-width="0.950778" stroke-linecap="round" stroke-linejoin="round"/>
<path d="M114.665 230.536C114.665 230.536 114.139 235.813 114.139 236.041" stroke="#5C656A" stroke-width="0.950778" stroke-linecap="round" stroke-linejoin="round"/>
<path d="M82.6431 252.028H71.8193C71.5972 252.028 71.3841 252.116 71.227 252.273C71.0699 252.43 70.9817 252.643 70.9817 252.865V257.281C70.9817 257.503 71.0699 257.716 71.227 257.873C71.3841 258.031 71.5972 258.119 71.8193 258.119H73.0878C72.8656 258.119 72.6526 258.031 72.4955 257.873C72.3384 257.716 72.2501 257.503 72.2501 257.281V254.397C72.2501 254.175 72.3384 253.962 72.4955 253.805C72.6526 253.648 72.8656 253.56 73.0878 253.56H81.3746C81.5968 253.56 81.8099 253.648 81.967 253.805C82.124 253.962 82.2123 254.175 82.2123 254.397V257.281C82.2123 257.503 82.124 257.716 81.967 257.873C81.8099 258.031 81.5968 258.119 81.3746 258.119H82.6431C82.8653 258.119 83.0783 258.031 83.2354 257.873C83.3925 257.716 83.4808 257.503 83.4808 257.281V252.865C83.4808 252.643 83.3925 252.43 83.2354 252.273C83.0783 252.116 82.8653 252.028 82.6431 252.028Z" fill="#263238" stroke="#263238" stroke-width="0.950778" stroke-linecap="round" stroke-linejoin="round"/>
<path d="M75.1282 243.442C75.1282 243.442 73.5426 249.629 73.8418 250.682C74.1409 251.735 74.9786 252.345 75.0384 252.572C75.093 252.736 75.0927 252.912 75.0376 253.075C74.9825 253.239 74.8757 253.379 74.7333 253.476L74.3563 253.703C74.3563 253.703 74.0572 253.703 74.2845 254.152C74.3765 254.397 74.5441 254.607 74.7632 254.75C75.2598 255.002 75.565 254.493 76.0137 254.427C76.4624 254.361 76.7437 254.852 77.1685 254.822C77.5933 254.792 77.8207 254.367 78.2335 254.403C78.6463 254.439 78.9156 255.187 79.5139 254.924C79.7712 254.804 79.9567 254.547 80.214 254.415C80.5969 254.218 81.1414 254.272 81.4824 253.978C81.7565 253.692 81.9253 253.321 81.9611 252.925C82.0987 252.154 80.3217 242.521 80.3217 242.521L75.1282 243.442Z" fill="white" stroke="#263238" stroke-width="0.950778" stroke-linecap="round" stroke-linejoin="round"/>
<path d="M92.5576 256.198H60.4633C59.1448 256.198 58.0759 257.267 58.0759 258.586V278.977C58.0759 280.295 59.1448 281.364 60.4633 281.364H92.5576C93.876 281.364 94.9449 280.295 94.9449 278.977V258.586C94.9449 257.267 93.876 256.198 92.5576 256.198Z" fill="#DD4D32" stroke="#263238" stroke-width="0.950778" stroke-linecap="round" stroke-linejoin="round"/>
<path d="M58.1594 258.519L75.5947 270.833C76.0665 271.171 76.6325 271.353 77.2132 271.353C77.7938 271.353 78.3599 271.171 78.8317 270.833L94.8489 259.177" stroke="#263238" stroke-width="0.950778" stroke-linecap="round" stroke-linejoin="round"/>
<path d="M78.6762 269.176H75.7085V273.346H78.6762V269.176Z" fill="white" stroke="#263238" stroke-width="0.950778" stroke-linecap="round" stroke-linejoin="round"/>
</svg>
