<svg width="210" height="210" viewBox="0 0 210 210" fill="none" xmlns="http://www.w3.org/2000/svg">
<g clip-path="url(#clip0)">
<path d="M176.159 29.5449C176.159 29.5449 152.795 -1.77083 116.613 0.579327C80.4305 2.92949 50.0381 34.4295 24.8819 59.1292C-0.274227 83.8288 -6.57969 121.471 8.77279 150.403C24.1253 179.336 47.5323 166.479 77.9357 184.8C108.339 203.121 114.228 213.765 147.696 208.394C181.165 203.022 205.964 155.216 201.364 104.987C196.764 54.758 176.159 29.5449 176.159 29.5449Z" fill="#DD4D32"/>
<path opacity="0.7" d="M176.159 29.5449C176.159 29.5449 152.795 -1.77083 116.613 0.579327C80.4305 2.92949 50.0381 34.4295 24.8819 59.1292C-0.274227 83.8288 -6.57969 121.471 8.77279 150.403C24.1253 179.336 47.5323 166.479 77.9357 184.8C108.339 203.121 114.228 213.765 147.696 208.394C181.165 203.022 205.964 155.216 201.364 104.987C196.764 54.758 176.159 29.5449 176.159 29.5449Z" fill="white"/>
<path d="M161.02 37.7407H10.7852V154.919H161.02V37.7407Z" fill="#DD4D32"/>
<path opacity="0.4" d="M161.02 37.7407H10.7852V154.919H161.02V37.7407Z" fill="white"/>
<path d="M151.09 78.1938H65.6648V143.136H151.09V78.1938Z" fill="white" stroke="#263238" stroke-miterlimit="10"/>
<path d="M92.4274 70.6427L90.7825 64.9551H64.0034V147.862H152.752V70.6427H92.4274ZM151.096 143.136H65.6648V78.1935H151.09L151.096 143.136Z" fill="#DD4D32" stroke="#263238" stroke-miterlimit="10"/>
<path d="M134.855 72.7954H92.4165V75.9158H134.855V72.7954Z" fill="white" stroke="#263238" stroke-miterlimit="10"/>
<path d="M67.7208 72.2954L66.498 73.7108L67.7646 75.3434" stroke="#263238" stroke-linecap="round" stroke-linejoin="round"/>
<path d="M66.498 73.7104H69.2176" stroke="#263238" stroke-linecap="round" stroke-linejoin="round"/>
<path d="M74.6569 72.2954L75.8851 73.7108L74.613 75.3434" stroke="#263238" stroke-linecap="round" stroke-linejoin="round"/>
<path d="M75.8851 73.7104H73.1655" stroke="#263238" stroke-linecap="round" stroke-linejoin="round"/>
<path d="M81.7299 73.5197C81.6531 73.1912 81.4908 72.9002 81.2671 72.6896C81.0434 72.4789 80.7693 72.3591 80.4853 72.3479C80.3175 72.3347 80.1491 72.3624 79.9907 72.4302C79.8322 72.498 79.6869 72.6047 79.5641 72.7422C79.4413 72.8805 79.3437 73.047 79.2768 73.232C79.2094 73.4177 79.1748 73.6171 79.1748 73.8192C79.1748 74.0213 79.2094 74.2208 79.2768 74.4064C79.3437 74.5914 79.4413 74.758 79.5641 74.8962C79.6869 75.0345 79.8322 75.1405 79.9907 75.2083C80.1491 75.2761 80.3175 75.3044 80.4853 75.2906C80.7676 75.2912 81.0418 75.1727 81.2584 74.9548" stroke="#263238" stroke-linecap="round" stroke-linejoin="round"/>
<path d="M80.9075 73.6842H81.856V72.3281" stroke="#263238" stroke-linecap="round" stroke-linejoin="round"/>
<path d="M88.2164 73.2039L87.0869 72.1045L86.0122 73.2039V75.5935H88.2164V73.2039Z" stroke="#263238" stroke-linecap="round" stroke-linejoin="round"/>
<path d="M87.52 73.8486H86.6592V75.5076H87.52V73.8486Z" fill="#263238"/>
<path d="M86.0122 73.2036L85.3652 73.9146" stroke="#263238" stroke-linecap="round" stroke-linejoin="round"/>
<path d="M88.2166 73.2036L88.8252 73.8488" stroke="#263238" stroke-linecap="round" stroke-linejoin="round"/>
<path d="M87.8105 67.8979L89.5322 70.0308" stroke="#263238" stroke-linecap="round" stroke-linejoin="round"/>
<path d="M89.5597 67.9307L87.7832 69.9978" stroke="#263238" stroke-linecap="round" stroke-linejoin="round"/>
<path d="M146.589 73.3682H149.994" stroke="#263238" stroke-linecap="round" stroke-linejoin="round"/>
<path d="M146.589 74.29H149.994" stroke="#263238" stroke-linecap="round" stroke-linejoin="round"/>
<path d="M146.589 75.2051H149.994" stroke="#263238" stroke-linecap="round" stroke-linejoin="round"/>
<path d="M146.589 76.127H149.994" stroke="#263238" stroke-linecap="round" stroke-linejoin="round"/>
<path d="M128.725 85.8564H133.013" stroke="#263238" stroke-linecap="round" stroke-linejoin="round"/>
<path d="M123.176 85.8564H126.938" stroke="#263238" stroke-linecap="round" stroke-linejoin="round"/>
<path d="M113.948 85.8564H121.783" stroke="#263238" stroke-linecap="round" stroke-linejoin="round"/>
<path d="M113.948 89.0034H133.013" stroke="#263238" stroke-linecap="round" stroke-linejoin="round"/>
<path d="M130.211 92.1431H133.013" stroke="#263238" stroke-linecap="round" stroke-linejoin="round"/>
<path d="M117.03 92.1431H128.423" stroke="#263238" stroke-linecap="round" stroke-linejoin="round"/>
<path d="M113.948 92.1431H115.445" stroke="#263238" stroke-linecap="round" stroke-linejoin="round"/>
<path d="M113.948 95.2832H133.013" stroke="#263238" stroke-linecap="round" stroke-linejoin="round"/>
<path d="M120.594 121.497H116.355V137.132H120.594V121.497Z" fill="#263238" stroke="#263238" stroke-linecap="round" stroke-linejoin="round"/>
<path d="M126.652 102.953H122.414V137.139H126.652V102.953Z" fill="#DD4D32" stroke="#263238" stroke-miterlimit="10"/>
<path d="M132.711 113.137H128.473V137.139H132.711V113.137Z" fill="#263238" stroke="#263238" stroke-linecap="round" stroke-linejoin="round"/>
<path d="M138.764 102.953H134.526V137.139H138.764V102.953Z" fill="#DD4D32" stroke="#263238" stroke-miterlimit="10"/>
<path d="M144.823 88.042H140.585V137.139H144.823V88.042Z" fill="#263238" stroke="#263238" stroke-linecap="round" stroke-linejoin="round"/>
<path d="M102.944 58.438H17.5183V123.38H102.944V58.438Z" fill="white" stroke="#263238" stroke-miterlimit="10"/>
<path d="M44.2755 50.8941L42.6306 45.1997H15.8569V128.107H104.6V50.8941H44.2755ZM102.944 123.38H17.5457V58.4383H102.971L102.944 123.38Z" fill="#DD4D32" stroke="#263238" stroke-miterlimit="10"/>
<path d="M86.7031 53.04H44.2644V56.1604H86.7031V53.04Z" fill="white" stroke="#263238" stroke-miterlimit="10"/>
<path d="M19.5744 52.5396L18.3462 53.9615L19.6183 55.5941" stroke="#263238" stroke-linecap="round" stroke-linejoin="round"/>
<path d="M18.3462 53.9614H21.0713" stroke="#263238" stroke-linecap="round" stroke-linejoin="round"/>
<path d="M26.5104 52.5396L27.7331 53.9615L26.4666 55.5941" stroke="#263238" stroke-linecap="round" stroke-linejoin="round"/>
<path d="M27.7385 53.9614H25.0134" stroke="#263238" stroke-linecap="round" stroke-linejoin="round"/>
<path d="M33.5836 53.7704C33.5081 53.4432 33.3479 53.1533 33.1261 52.9427C32.9044 52.732 32.6325 52.6115 32.3499 52.5986C32.0256 52.5986 31.7146 52.7533 31.4853 53.0286C31.256 53.3039 31.1272 53.6773 31.1272 54.0667C31.1272 54.4561 31.256 54.8294 31.4853 55.1047C31.7146 55.3801 32.0256 55.5348 32.3499 55.5348C32.6331 55.5346 32.9077 55.4184 33.1285 55.2056" stroke="#263238" stroke-linecap="round" stroke-linejoin="round"/>
<path d="M32.7556 53.935H33.7097V52.5723" stroke="#263238" stroke-linecap="round" stroke-linejoin="round"/>
<path d="M40.0699 53.4478L38.9404 52.355L37.8657 53.4478V55.8374H40.0699V53.4478Z" stroke="#263238" stroke-linecap="round" stroke-linejoin="round"/>
<path d="M39.3682 54.0933H38.5073V55.7522H39.3682V54.0933Z" fill="#263238"/>
<path d="M37.8657 53.4482L37.2188 54.1592" stroke="#263238" stroke-linecap="round" stroke-linejoin="round"/>
<path d="M40.0698 53.4482L40.6784 54.1" stroke="#263238" stroke-linecap="round" stroke-linejoin="round"/>
<path d="M39.6641 48.1484L41.3802 50.2748" stroke="#263238" stroke-linecap="round" stroke-linejoin="round"/>
<path d="M41.4078 48.1816L39.6367 50.2421" stroke="#263238" stroke-linecap="round" stroke-linejoin="round"/>
<path d="M98.4424 53.6128H101.847" stroke="#263238" stroke-linecap="round" stroke-linejoin="round"/>
<path d="M98.4424 54.5342H101.847" stroke="#263238" stroke-linecap="round" stroke-linejoin="round"/>
<path d="M98.4424 55.4556H101.847" stroke="#263238" stroke-linecap="round" stroke-linejoin="round"/>
<path d="M98.4424 56.3774H101.847" stroke="#263238" stroke-linecap="round" stroke-linejoin="round"/>
<path d="M21.9102 117.113V94.6846L27.8538 109.793L32.9036 107.146L38.6169 112.564L48.3493 104.967L54.2929 114.934L58.4546 112.446L62.0185 114.934L66.4762 114.309L72.4144 116.027L78.654 115.401L82.6237 117.113H21.9102Z" fill="#263238"/>
<path d="M84.4714 78.1938H90.9469" stroke="#263238" stroke-linecap="round" stroke-linejoin="round"/>
<path d="M76.0879 78.1938H81.7738" stroke="#263238" stroke-linecap="round" stroke-linejoin="round"/>
<path d="M62.1501 78.1938H73.9935" stroke="#263238" stroke-linecap="round" stroke-linejoin="round"/>
<path d="M62.1501 81.334H90.947" stroke="#263238" stroke-linecap="round" stroke-linejoin="round"/>
<path d="M86.7141 84.4805H90.947" stroke="#263238" stroke-linecap="round" stroke-linejoin="round"/>
<path d="M66.8052 84.4805H84.0219" stroke="#263238" stroke-linecap="round" stroke-linejoin="round"/>
<path d="M62.1501 84.4805H64.4091" stroke="#263238" stroke-linecap="round" stroke-linejoin="round"/>
<path d="M62.1501 87.6206H90.947" stroke="#263238" stroke-linecap="round" stroke-linejoin="round"/>
<path d="M90.9469 92.6763H84.4714" stroke="#263238" stroke-linecap="round" stroke-linejoin="round"/>
<path d="M76.0879 92.6763H81.7738" stroke="#263238" stroke-linecap="round" stroke-linejoin="round"/>
<path d="M62.1501 92.6763H73.9935" stroke="#263238" stroke-linecap="round" stroke-linejoin="round"/>
<path d="M62.1501 95.8164H90.947" stroke="#263238" stroke-linecap="round" stroke-linejoin="round"/>
<path d="M90.947 98.9634H86.7141" stroke="#263238" stroke-linecap="round" stroke-linejoin="round"/>
<path d="M66.8052 98.9634H84.0219" stroke="#263238" stroke-linecap="round" stroke-linejoin="round"/>
<path d="M62.1501 98.9634H64.4091" stroke="#263238" stroke-linecap="round" stroke-linejoin="round"/>
<path d="M62.1501 102.104H90.947" stroke="#263238" stroke-linecap="round" stroke-linejoin="round"/>
<path d="M29.2958 83.368L25.8908 92.5843C23.8622 91.5001 22.2755 89.4929 21.4796 87.0038C20.6837 84.5148 20.7439 81.7486 21.6469 79.3129C22.2969 77.5236 23.3717 76.0042 24.7371 74.945C26.1023 73.8851 27.6976 73.3321 29.3232 73.3552L29.2958 83.368Z" fill="#DD4D32"/>
<g opacity="0.47">
<path opacity="0.47" d="M29.2958 83.368L25.8908 92.5843C23.8622 91.5001 22.2755 89.4929 21.4796 87.0038C20.6837 84.5148 20.7439 81.7486 21.6469 79.3129C22.2969 77.5236 23.3717 76.0042 24.7371 74.945C26.1023 73.8851 27.6976 73.3321 29.3232 73.3552L29.2958 83.368Z" fill="white"/>
</g>
<path d="M29.2958 83.3682L33.2272 92.2487C32.1095 92.9854 30.8633 93.3968 29.5891 93.4495C28.3148 93.5015 27.0481 93.1941 25.8909 92.5516L29.2958 83.3682Z" fill="#263238"/>
<path d="M29.2957 83.3681L35.804 77.022C36.4982 78.0496 37.0163 79.2326 37.3287 80.5011C37.6411 81.7703 37.7416 83.1008 37.6244 84.4167C37.5072 85.7327 37.1747 87.0078 36.6458 88.1684C36.117 89.3297 35.4024 90.354 34.5429 91.1822C34.1275 91.5903 33.6794 91.9471 33.2051 92.2486L29.2957 83.3681Z" fill="#DD4D32"/>
<path d="M29.2957 83.3681V73.3223C30.5459 73.2848 31.7861 73.6001 32.9164 74.2426C34.0468 74.8852 35.0358 75.8371 35.804 77.022L29.2957 83.3681Z" fill="#263238"/>
<path d="M29.2956 88.8581C31.8121 88.8581 33.852 86.4092 33.852 83.3875C33.852 80.3666 31.8121 77.917 29.2956 77.917C26.7792 77.917 24.7393 80.3666 24.7393 83.3875C24.7393 86.4092 26.7792 88.8581 29.2956 88.8581Z" fill="white"/>
<path d="M51.9845 83.3682L48.5796 92.5845C47.5747 92.0486 46.6677 91.2797 45.9104 90.3219C45.1531 89.3647 44.5604 88.2377 44.1663 87.0054C43.7721 85.7723 43.5842 84.4584 43.6133 83.1391C43.6424 81.8192 43.8879 80.5191 44.3357 79.313C44.9833 77.5284 46.0538 76.0123 47.4138 74.9531C48.7738 73.8939 50.3634 73.3382 51.9845 73.3554V83.3682Z" fill="#DD4D32"/>
<g opacity="0.47">
<path opacity="0.47" d="M51.9845 83.3682L48.5796 92.5845C47.5747 92.0486 46.6677 91.2797 45.9104 90.3219C45.1531 89.3647 44.5604 88.2377 44.1663 87.0054C43.7721 85.7723 43.5842 84.4584 43.6133 83.1391C43.6424 81.8192 43.8879 80.5191 44.3357 79.313C44.9833 77.5284 46.0538 76.0123 47.4138 74.9531C48.7738 73.8939 50.3634 73.3382 51.9845 73.3554V83.3682Z" fill="white"/>
</g>
<path d="M51.9846 83.3682L55.9269 92.2487C54.8092 92.9854 53.563 93.3968 52.2888 93.4495C51.0145 93.5015 49.7478 93.1941 48.5906 92.5516L51.9846 83.3682Z" fill="#263238"/>
<path d="M51.9844 83.3681L58.4874 77.0483C59.2638 78.1997 59.8192 79.5433 60.1131 80.9817C60.407 82.4208 60.4322 83.9204 60.1877 85.3726C59.9431 86.8249 59.4343 88.1941 58.6979 89.3824C57.961 90.5713 57.0152 91.5502 55.9268 92.2487L51.9844 83.3681Z" fill="#DD4D32"/>
<path d="M51.9844 83.3681V73.3223C53.2338 73.2848 54.4732 73.6001 55.6027 74.2426C56.7322 74.8852 57.7203 75.8371 58.4874 77.022L51.9844 83.3681Z" fill="#263238"/>
<path d="M51.9846 88.8581C54.5011 88.8581 56.541 86.4092 56.541 83.3875C56.541 80.3666 54.5011 77.917 51.9846 77.917C49.4682 77.917 47.4282 80.3666 47.4282 83.3875C47.4282 86.4092 49.4682 88.8581 51.9846 88.8581Z" fill="white"/>
<path d="M21.614 65.5215H75.4026" stroke="#263238" stroke-linecap="round" stroke-linejoin="round"/>
<path d="M21.614 68.668H85.3981" stroke="#263238" stroke-linecap="round" stroke-linejoin="round"/>
<path d="M141.956 130.345C141.956 130.345 139.296 134.045 139.576 134.716C139.856 135.388 142.098 137.066 142.235 136.033C142.497 134.421 142.681 132.793 142.784 131.155C142.8 129.996 142.937 129.687 141.956 130.345Z" fill="white" stroke="#263238" stroke-linecap="round" stroke-linejoin="round"/>
<path d="M143.359 122.445C143.359 122.445 141.539 127.152 141.396 128.166C141.254 129.18 142.098 130.516 142.098 131.023C142.098 131.53 141.002 133.037 141.002 135.394C141.002 137.751 140.859 143.129 142.542 144.472C144.226 145.815 147.022 144.307 147.022 144.307L149.681 150.528L160.324 143.129L158.783 140.272C158.783 140.272 161.026 133.031 159.331 127.494C157.637 121.958 151.655 121.102 149.248 120.911C146.841 120.72 144.204 120.411 143.359 122.445Z" fill="white"/>
<path d="M158.761 140.252C158.761 140.252 161.004 133.011 159.309 127.475C157.615 121.938 151.633 121.082 149.226 120.891C148.837 120.891 148.437 120.832 148.036 120.812L144.933 123.762C144.933 123.762 142.378 128.153 143.474 129.904C144.571 131.655 145.3 133.419 144.933 136.27C144.566 139.12 142.142 144.051 144.571 144.169C145.07 144.169 145.86 144.275 146.797 144.386L147 144.288L147.055 144.419C150.641 144.854 156.085 145.703 156.085 145.703L156.634 145.67L160.313 143.109L158.761 140.252Z" fill="#DD4D32"/>
<path opacity="0.5" d="M158.761 140.252C158.761 140.252 161.004 133.011 159.309 127.475C157.615 121.938 151.633 121.082 149.226 120.891C148.837 120.891 148.437 120.832 148.036 120.812L144.933 123.762C144.933 123.762 142.378 128.153 143.474 129.904C144.571 131.655 145.3 133.419 144.933 136.27C144.566 139.12 142.142 144.051 144.571 144.169C145.07 144.169 145.86 144.275 146.797 144.386L147 144.288L147.055 144.419C150.641 144.854 156.085 145.703 156.085 145.703L156.634 145.67L160.313 143.109L158.761 140.252Z" fill="white"/>
<path d="M143.359 122.445C143.359 122.445 141.539 127.152 141.396 128.166C141.254 129.18 142.098 130.516 142.098 131.023C142.098 131.53 141.002 133.037 141.002 135.394C141.002 137.751 140.859 143.129 142.542 144.472C144.226 145.815 147.022 144.307 147.022 144.307L149.681 150.528L160.324 143.129L158.783 140.272C158.783 140.272 161.026 133.031 159.331 127.494C157.637 121.958 151.655 121.102 149.248 120.911C146.841 120.72 144.204 120.411 143.359 122.445Z" stroke="#263238" stroke-linecap="round" stroke-linejoin="round"/>
<path d="M157.911 117.218C157.911 117.218 152.73 115.368 148.25 115.533C143.77 115.697 139.285 117.218 139.428 120.075C139.57 122.932 143.765 123.939 143.765 123.939C143.765 123.939 146.15 124.111 145.448 124.947C144.746 125.783 142.926 127.475 144.352 129.489C145.777 131.503 147.148 133.189 146.731 133.86C146.315 134.532 146.868 136.046 147.428 135.545C147.987 135.045 147.148 133.017 148.689 132.346C150.229 131.675 151.77 134.532 151.211 136.381C150.652 138.231 149.67 138.067 150.229 139.41C150.789 140.753 154.292 142.938 156.672 142.938C159.052 142.938 159.753 139.238 162.276 133.353C164.798 127.468 163.104 118.897 157.911 117.218Z" fill="#263238" stroke="#263238" stroke-linecap="round" stroke-linejoin="round"/>
<path d="M144.62 152.023L146.019 155.216L161.426 143.109L159.885 140.924C159.885 140.924 147 149.495 144.62 152.023Z" fill="white" stroke="#263238" stroke-linecap="round" stroke-linejoin="round"/>
<path d="M147.559 152.523C147.559 152.523 144.478 157.566 143.359 160.087C142.241 162.608 137.476 177.407 135.376 182.621C134.149 185.617 133.176 188.753 132.47 191.982H161.843C161.843 191.982 165.204 171.858 165.204 163.115C165.204 154.373 163.526 147.816 162.961 146.138C162.396 144.459 160.302 143.109 160.302 143.109L147.559 152.523Z" fill="white"/>
<path d="M147.559 152.523C147.559 152.523 144.478 157.566 143.359 160.087C142.241 162.608 137.476 177.407 135.376 182.621C134.149 185.617 133.176 188.753 132.47 191.982H161.843C161.843 191.982 165.204 171.858 165.204 163.115C165.204 154.373 163.526 147.816 162.961 146.138C162.396 144.459 160.302 143.109 160.302 143.109L147.559 152.523Z" fill="#BDBDBD" stroke="#263238" stroke-linecap="round" stroke-linejoin="round"/>
<path d="M139.505 171.436C139.505 171.436 146.084 159.067 148.563 155.867C151.041 152.668 163.334 145.097 163.334 145.097L161.393 142.569C161.393 142.569 148.743 150.107 146.786 152.444C144.829 154.781 139.154 168.658 139.505 171.436Z" fill="#BDBDBD" stroke="#263238" stroke-linecap="round" stroke-linejoin="round"/>
<path d="M147.559 152.523C147.559 152.523 144.478 157.566 143.359 160.087C142.241 162.608 137.476 177.407 135.376 182.621C134.149 185.617 133.176 188.753 132.47 191.982H161.843C161.843 191.982 165.204 171.858 165.204 163.115C165.204 154.373 163.526 147.816 162.961 146.138C162.396 144.459 160.302 143.109 160.302 143.109L147.559 152.523Z" stroke="#263238" stroke-linecap="round" stroke-linejoin="round"/>
<path d="M155.68 152.523C155.68 152.523 148.004 158.58 146.858 160.93C145.712 163.28 146.72 166.986 146.72 167.513C146.72 168.04 145.624 169.699 145.624 170.206V171.884L139.593 191.39H153.3C153.3 191.39 159.183 174.241 160.302 170.877C161.42 167.513 161.985 161.463 161.426 158.099" stroke="#263238" stroke-linecap="round" stroke-linejoin="round"/>
<path d="M147.981 166.987C147.981 166.987 151.343 162.273 156.381 161.602" stroke="#263238" stroke-linecap="round" stroke-linejoin="round"/>
<path d="M180.611 132.524C180.611 132.524 170.939 130.2 168.23 132.985C165.522 135.769 167.068 152.734 166.295 157.145C165.522 161.555 163.586 166.203 164.359 170.844C165.132 175.485 166.876 178.744 167.649 181.068C168.422 183.391 167.452 191.982 167.452 191.982H195.7C195.7 191.982 200.728 175.959 200.728 163.879C200.728 151.799 197.63 141.352 192.992 137.402C188.353 133.452 180.611 132.524 180.611 132.524Z" fill="#DD4D32"/>
<path opacity="0.26" d="M170.254 139.778C167.512 145.269 170.621 175.327 171.35 178.184C172.079 181.041 166.783 178.401 168.428 179.935C170.073 181.469 173.176 184.109 173.176 184.109C171.413 183.195 169.612 182.389 167.781 181.693C167.877 182.38 167.927 183.076 167.929 183.773C169.765 185.496 171.696 187.069 173.708 188.48L167.704 189.086C167.578 190.738 167.435 191.969 167.435 191.969H195.684C195.684 191.969 200.712 175.946 200.712 163.866C200.743 158.836 200.157 153.827 198.974 149.001L182.119 140.443C182.119 140.443 172.995 134.295 170.254 139.778Z" fill="black"/>
<path d="M180.611 132.524C180.611 132.524 170.939 130.2 168.23 132.985C165.522 135.769 167.068 152.734 166.295 157.145C165.522 161.555 163.586 166.203 164.359 170.844C165.132 175.485 166.876 178.744 167.649 181.068C168.422 183.391 167.452 191.982 167.452 191.982H195.7C195.7 191.982 200.728 175.959 200.728 163.879C200.728 151.799 197.63 141.352 192.992 137.402C188.353 133.452 180.611 132.524 180.611 132.524Z" stroke="#263238" stroke-linecap="round" stroke-linejoin="round"/>
<path d="M180.392 90.7149C180.392 90.7149 176.137 86.5346 172.074 89.5562C168.011 92.5779 161.047 106.508 161.821 113.479C162.594 120.451 169.563 126.948 164.918 130.668C160.274 134.387 162.018 141.115 164.337 142.978L165.692 143.208C165.692 143.208 165.692 136.474 169.563 134.611C173.434 132.748 179.037 134.38 180.392 136.474C181.746 138.567 179.235 149.245 182.519 152.036C185.803 154.827 190.453 155.288 189.488 158.073C188.523 160.857 185.228 165.275 187.355 169.225C189.482 173.174 194.708 177.124 196.451 175.722C198.195 174.32 195.678 172.707 196.643 171.772C197.608 170.837 205.542 167.592 204.188 163.642C202.834 159.692 199.933 157.599 201.287 155.973C202.642 154.347 207.67 150.404 207.088 144.828C206.507 139.252 195.481 135.072 195.097 129.028C194.713 122.985 201.677 122.294 199.352 108.621C197.027 94.9478 189.894 88.8716 186.423 88.8716C184.315 88.865 182.24 89.4996 180.392 90.7149Z" fill="#263238" stroke="#263238" stroke-linecap="round" stroke-linejoin="round"/>
<path d="M184.153 98.002C187.07 102.86 190.733 110.016 190.859 115.427C191.04 124.44 184.449 128.179 185.546 135.209C186.642 142.24 199.445 143.451 200.377 149.692C201.309 155.933 195.443 153.642 196.896 157.164C198.349 160.686 204.024 163.747 201.66 167.697" stroke="white" stroke-linecap="round" stroke-linejoin="round"/>
<path d="M180.605 92.5713C180.605 92.5713 181.22 93.4139 182.146 94.8227" stroke="white" stroke-linecap="round" stroke-linejoin="round"/>
<path d="M177.705 128.199C178.374 129.041 178.774 129.825 178.774 130.595" stroke="white" stroke-linecap="round" stroke-linejoin="round"/>
<path d="M166.509 101.379C166.509 101.379 163.581 111.05 167.973 117.646C170.314 121.162 173.225 123.736 175.435 125.842" stroke="white" stroke-linecap="round" stroke-linejoin="round"/>
<path d="M192.876 141.45C193.726 141.819 194.653 142.109 195.618 142.464" stroke="white" stroke-linecap="round" stroke-linejoin="round"/>
<path d="M193.967 99.4043C193.967 99.4043 200.191 108.858 197.997 116.988C195.804 125.118 188.479 129.496 188.479 134.762C188.403 136.37 188.849 137.951 189.724 139.173" stroke="white" stroke-linecap="round" stroke-linejoin="round"/>
<path d="M120.002 184.24C120.002 184.24 118.839 185.958 118.839 187.031C118.839 188.105 118.395 190.244 118.932 190.356C119.47 190.468 119.821 188.098 120.358 187.242C120.895 186.386 122.233 186.169 122.145 184.991C122.058 183.812 120.808 182.739 120.002 184.24Z" fill="white" stroke="#263238" stroke-linecap="round" stroke-linejoin="round"/>
<path d="M132.87 185.741C132.87 185.741 127.864 180.699 126.614 180.165C125.364 179.632 122.858 183.062 121.339 186.386C119.821 189.711 120.627 190.461 121.433 190.567C122.239 190.672 125.72 188.855 125.72 188.855C126.955 190.033 128.388 190.873 129.92 191.317C132.333 191.975 135.815 190.244 135.908 188.533C136.001 186.821 132.87 185.741 132.87 185.741Z" fill="white" stroke="#263238" stroke-linecap="round" stroke-linejoin="round"/>
<path d="M179.449 151.319C179.449 151.319 179.64 186.407 178.867 189.198C178.094 191.989 175.386 191.982 170.939 192.213C166.492 192.443 139.406 191.522 139.406 191.522C137.868 191.793 136.316 191.948 134.762 191.982C132.634 191.982 128.955 191.522 127.601 190.356C126.247 189.191 125.09 188.961 124.509 189.198C123.927 189.435 122.381 191.752 121.027 191.752C119.673 191.752 118.121 191.054 119.091 190.824C120.062 190.593 125.282 183.852 126.444 183.852C127.607 183.852 135.919 186.407 137.47 186.176C139.022 185.946 166.684 179.442 166.684 179.442L165.719 143.235C165.719 143.235 164.749 136.961 169.59 134.637" fill="#DD4D32"/>
<path opacity="0.26" d="M171.739 138.12C171.123 138.491 170.607 139.067 170.253 139.779C167.512 145.269 170.621 175.327 171.35 178.184C172.079 181.041 166.783 178.401 168.428 179.935C170.073 181.469 173.176 184.109 173.176 184.109C173.176 184.109 164.222 179.501 166.596 182.351C168.97 185.202 173.724 188.493 173.724 188.493L142.471 191.62C149.698 191.857 167.397 192.397 170.922 192.213C175.369 191.982 178.078 191.982 178.851 189.198C179.624 186.413 179.432 150.641 179.432 150.641L171.739 138.12Z" fill="black"/>
<path d="M179.449 151.319C179.449 151.319 179.64 186.407 178.867 189.198C178.094 191.989 175.386 191.982 170.939 192.213C166.492 192.443 139.406 191.522 139.406 191.522C137.868 191.793 136.316 191.948 134.762 191.982C132.634 191.982 128.955 191.522 127.601 190.356C126.247 189.191 125.09 188.961 124.509 189.198C123.927 189.435 122.381 191.752 121.027 191.752C119.673 191.752 118.121 191.054 119.091 190.824C120.062 190.593 125.282 183.852 126.444 183.852C127.607 183.852 135.919 186.407 137.47 186.176C139.022 185.946 166.684 179.442 166.684 179.442L165.719 143.235C165.719 143.235 164.749 136.961 169.59 134.637" stroke="#263238" stroke-linecap="round" stroke-linejoin="round"/>
<path d="M147.461 191.778C146.864 189.153 146.997 186.365 147.839 183.839C142.553 185.063 138.068 186.084 137.47 186.176C135.919 186.406 127.601 183.852 126.444 183.852C125.287 183.852 120.078 190.586 119.091 190.823C118.104 191.06 119.673 191.752 121.027 191.752C122.381 191.752 123.927 189.428 124.509 189.197C125.09 188.967 126.247 189.197 127.601 190.356C128.955 191.515 132.634 191.982 134.762 191.982C136.316 191.947 137.867 191.793 139.406 191.521L147.461 191.778Z" fill="white" stroke="#263238" stroke-linecap="round" stroke-linejoin="round"/>
<path d="M122.058 181.772C121.211 182.375 120.503 183.224 120.002 184.241C119.453 185.636 120.002 189.922 120.895 189.922C121.789 189.922 122.414 188.743 122.414 187.243C122.414 185.742 122.058 181.772 122.058 181.772Z" fill="white" stroke="#263238" stroke-linecap="round" stroke-linejoin="round"/>
<path d="M123.308 180.916C123.308 180.916 121.877 181.021 121.339 182.312C120.802 183.602 120.895 189.066 121.789 189.283C122.683 189.5 123.039 187.67 123.039 186.492C123.039 185.314 123.308 180.916 123.308 180.916Z" fill="white" stroke="#263238" stroke-linecap="round" stroke-linejoin="round"/>
<path d="M126.614 180.166C126.614 180.166 124.47 179.731 123.576 180.488C122.683 181.245 122.48 187.888 123.127 188.421C123.774 188.954 124.826 187.565 124.826 186.815C124.826 186.064 126.077 181.989 126.077 181.989" fill="white"/>
<path d="M126.614 180.166C126.614 180.166 124.47 179.731 123.576 180.488C122.683 181.245 122.48 187.888 123.127 188.421C123.774 188.954 124.826 187.565 124.826 186.815C124.826 186.064 126.077 181.989 126.077 181.989" stroke="#263238" stroke-linecap="round" stroke-linejoin="round"/>
<path d="M72.9244 158.211C72.9244 158.211 70.3583 162.885 71.4385 165.156C72.5186 167.427 76.439 172.128 84.5374 171.476C92.6358 170.824 87.7779 154.459 88.721 144.406C89.664 134.354 86.1604 132.899 83.3202 135.493C80.48 138.087 76.9763 150.568 75.644 152.675C74.6071 154.423 73.6975 156.276 72.9244 158.211Z" fill="#DD4D32"/>
<path opacity="0.42" d="M72.9244 158.211C72.9244 158.211 70.3583 162.885 71.4385 165.156C72.5186 167.427 76.439 172.128 84.5374 171.476C92.6358 170.824 87.7779 154.459 88.721 144.406C89.664 134.354 86.1604 132.899 83.3202 135.493C80.48 138.087 76.9763 150.568 75.644 152.675C74.6071 154.423 73.6975 156.276 72.9244 158.211Z" fill="black" stroke="#263238" stroke-linecap="round" stroke-linejoin="round"/>
<path d="M72.9244 158.211C72.9244 158.211 70.3583 162.885 71.4385 165.156C72.5186 167.427 76.439 172.128 84.5374 171.476C92.6358 170.824 87.7779 154.459 88.721 144.406C89.664 134.354 86.1604 132.899 83.3202 135.493C80.48 138.087 76.9763 150.568 75.644 152.675C74.6071 154.423 73.6975 156.276 72.9244 158.211Z" stroke="#263238" stroke-linecap="round" stroke-linejoin="round"/>
<path d="M83.1599 161.286C83.1599 161.286 83.1599 174.266 83.2962 178.354C83.4325 182.442 83.9667 192.36 83.9667 192.36H109.2L107.859 162.737L107.456 161.28L83.1599 161.286Z" fill="#263238" stroke="#263238" stroke-linecap="round" stroke-linejoin="round"/>
<path d="M97.5487 164.761L107.736 165.255L107.626 162.562L107.221 160.943H97.3896L97.5487 164.761Z" fill="white" stroke="#263238" stroke-linecap="round" stroke-linejoin="round"/>
<path d="M85.4804 160.943H82.7937C82.7937 160.943 82.7937 162.187 82.7937 164.057L85.4859 164.182L85.4804 160.943Z" fill="white" stroke="#263238" stroke-linecap="round" stroke-linejoin="round"/>
<path d="M86.3413 160.943L86.4948 164.234L95.7173 164.675L95.6241 160.943H86.3413Z" fill="white" stroke="#263238" stroke-linecap="round" stroke-linejoin="round"/>
<path d="M82.9197 135.974C82.9197 135.974 82.7826 154.617 82.9197 157.54C83.0568 160.463 81.8231 161.43 83.8628 161.917C85.9025 162.405 102.363 162.885 103.98 162.576C105.598 162.266 105.625 161.259 106.009 160.305C106.393 159.35 111.81 117.673 110.598 116.534C109.386 115.395 101.688 111.998 101.008 111.998C100.328 111.998 90.3437 112.656 88.4521 112.972C86.5604 113.288 84.4001 112.643 84.2685 113.94C84.1369 115.237 82.9197 135.974 82.9197 135.974Z" fill="white"/>
<path d="M91.1937 118.173C91.1937 118.173 88.03 117.989 87.4269 118.351C87.0869 118.555 85.0143 124.664 83.2762 129.93C83.0733 133.36 82.9198 135.974 82.9198 135.974C82.9198 135.974 82.7827 154.617 82.9198 157.54C83.0075 159.455 82.5195 160.528 82.7389 161.18C83.4242 158.323 84.5154 153.392 85.771 146.381C87.8819 134.624 91.1937 118.173 91.1937 118.173Z" fill="#BDBDBD"/>
<path d="M82.9197 135.974C82.9197 135.974 82.7826 154.617 82.9197 157.54C83.0568 160.463 81.8231 161.43 83.8628 161.917C85.9025 162.405 102.363 162.885 103.98 162.576C105.598 162.266 105.625 161.259 106.009 160.305C106.393 159.35 111.81 117.673 110.598 116.534C109.386 115.395 101.688 111.998 101.008 111.998C100.328 111.998 90.3437 112.656 88.4521 112.972C86.5604 113.288 84.4001 112.643 84.2685 113.94C84.1369 115.237 82.9197 135.974 82.9197 135.974Z" stroke="#263238" stroke-linecap="round" stroke-linejoin="round"/>
<path d="M54.8303 125.737C54.8303 125.737 49.9724 122.82 48.2178 122.333C46.4633 121.846 40.7883 120.227 40.3826 120.872C39.9768 121.517 40.5196 122.188 41.0625 122.188C41.6053 122.188 45.1089 123.972 45.1089 123.972C45.1089 123.972 44.7087 127.863 44.7087 128.837C44.7087 129.812 49.0293 131.754 49.9724 131.918C50.9155 132.083 52.8181 131.214 52.8181 131.214L54.1559 130.779L54.8303 125.737Z" fill="white" stroke="#263238" stroke-linecap="round" stroke-linejoin="round"/>
<path d="M44.7087 124.631C44.7087 124.631 44.1604 129.009 44.5716 129.489C44.9829 129.97 47.8121 132.247 48.2178 131.115C48.6236 129.983 48.4865 125.599 48.4865 125.118C48.4865 124.637 44.7087 124.631 44.7087 124.631Z" fill="white" stroke="#263238" stroke-linecap="round" stroke-linejoin="round"/>
<path d="M53.2128 125.927C53.2128 125.927 48.6235 123.821 47.5433 123.821C46.4632 123.821 44.7086 125.598 43.76 125.927C42.8115 126.257 44.0287 127.244 44.7086 127.06C45.3885 126.875 47.2692 126.25 47.2692 126.25C47.6891 127.214 48.292 128.046 49.0292 128.679C50.1259 129.489 52.4013 129.008 52.4013 129.008" fill="white"/>
<path d="M53.2128 125.927C53.2128 125.927 48.6235 123.821 47.5433 123.821C46.4632 123.821 44.7086 125.598 43.76 125.927C42.8115 126.257 44.0287 127.244 44.7086 127.06C45.3885 126.875 47.2692 126.25 47.2692 126.25C47.6891 127.214 48.292 128.046 49.0292 128.679C50.1259 129.489 52.4013 129.008 52.4013 129.008" stroke="#263238" stroke-linecap="round" stroke-linejoin="round"/>
<path d="M94.3629 111.872C94.3629 111.872 86.2645 111.036 84.6196 111.471C82.9746 111.905 79.1365 123.103 78.5882 124.637C78.0399 126.171 72.0086 133.195 72.0086 133.195L54.6492 125.078L52.8179 131.22C52.8179 131.22 66.8929 142.194 69.2671 143.511C71.6412 144.827 74.9365 144.61 76.0331 144.61C76.8386 144.511 77.6018 144.129 78.2263 143.511L72.9242 158.211C72.9242 158.211 81.5162 145.927 84.0713 140.002C86.6263 134.077 92.4822 116.737 93.0305 116.303C93.5788 115.868 94.3629 111.872 94.3629 111.872Z" fill="#DD4D32"/>
<path opacity="0.26" d="M75.6165 137.343C75.1779 137.343 74.5912 136.994 74.0045 136.994C73.4178 136.994 74.7392 139.627 74.4432 140.523C74.1471 141.418 53.147 130.648 53.147 130.648L53.1086 131.444C55.0936 132.992 67.0904 142.307 69.2672 143.511C71.6468 144.828 74.9366 144.611 76.0332 144.611C76.7515 144.542 77.4385 144.226 78.0126 143.702C79.6137 138.798 80.7541 130.648 80.7541 130.648C80.7541 130.648 76.0607 137.343 75.6165 137.343Z" fill="black"/>
<path d="M94.3629 111.872C94.3629 111.872 86.2645 111.036 84.6196 111.471C82.9746 111.905 79.1365 123.103 78.5882 124.637C78.0399 126.171 72.0086 133.195 72.0086 133.195L54.6492 125.078L52.8179 131.22C52.8179 131.22 66.8929 142.194 69.2671 143.511C71.6412 144.827 74.9365 144.61 76.0331 144.61C76.8386 144.511 77.6018 144.129 78.2263 143.511L72.9243 158.211C72.9243 158.211 81.5162 145.927 84.0713 140.002C86.6263 134.077 92.4822 116.737 93.0305 116.303C93.5788 115.868 94.3629 111.872 94.3629 111.872Z" stroke="#263238" stroke-linecap="round" stroke-linejoin="round"/>
<path d="M94.3628 111.873L92.1147 114.433L92.2299 119.555L94.5986 116.849L94.3628 111.873Z" fill="white" stroke="#263238" stroke-linecap="round" stroke-linejoin="round"/>
<path d="M90.0971 86.8966C90.0971 86.8966 87.6736 91.373 87.8271 92.3078C87.9807 93.2426 88.3754 94.1972 88.3754 94.9411C88.3754 95.685 85.6339 98.305 85.9519 98.8909C86.27 99.4768 87.8217 100.385 87.8217 100.385C87.8217 100.385 87.7559 107.686 89.154 108.621C90.5522 109.555 93.2115 108.055 93.2115 108.055L94.6097 117.416L102.56 110.675V103.94C102.56 103.94 107.237 97.5809 107.55 92.5251C107.862 87.4693 102.067 81.8605 96.3258 80.9257C90.5851 79.9909 87.4433 84.6649 88.3754 86.1922C89.3076 87.7194 90.0971 86.8966 90.0971 86.8966Z" fill="white"/>
<path d="M99.5993 113.189L102.566 110.674V103.94C102.566 103.94 107.243 97.5808 107.555 92.525C107.758 89.2334 105.362 85.6852 102.072 83.3613L93.8037 87.4758C93.8037 87.4758 89.9217 91.5704 90.4317 92.1234C90.9416 92.6764 92.433 94.9673 92.0766 96.0206C92.0766 96.0206 90.6894 96.6789 90.8319 97.8178C90.9745 98.9566 94.204 106.376 94.204 106.376L93.2116 108.054L99.5993 113.189Z" fill="#DD4D32"/>
<path opacity="0.5" d="M99.5993 113.189L102.566 110.674V103.94C102.566 103.94 107.243 97.5808 107.555 92.525C107.758 89.2334 105.362 85.6852 102.072 83.3613L93.8037 87.4758C93.8037 87.4758 89.9217 91.5704 90.4317 92.1234C90.9416 92.6764 92.433 94.9673 92.0766 96.0206C92.0766 96.0206 90.6894 96.6789 90.8319 97.8178C90.9745 98.9566 94.204 106.376 94.204 106.376L93.2116 108.054L99.5993 113.189Z" fill="white"/>
<path d="M90.0971 86.8966C90.0971 86.8966 87.6736 91.373 87.8271 92.3078C87.9807 93.2426 88.3754 94.1972 88.3754 94.9411C88.3754 95.685 85.6339 98.305 85.9519 98.8909C86.27 99.4768 87.8217 100.385 87.8217 100.385C87.8217 100.385 87.7559 107.686 89.154 108.621C90.5522 109.555 93.2115 108.055 93.2115 108.055L94.6097 117.416L102.56 110.675V103.94C102.56 103.94 107.237 97.5809 107.55 92.5251C107.862 87.4693 102.067 81.8605 96.3258 80.9257C90.5851 79.9909 87.4433 84.6649 88.3754 86.1922C89.3076 87.7194 90.0971 86.8966 90.0971 86.8966Z" stroke="#263238" stroke-linecap="round" stroke-linejoin="round"/>
<path d="M102.494 112.143C102.494 112.143 100.74 119.601 98.5793 129.008C96.4189 138.416 96.8247 167.585 96.8247 169.211C96.8247 170.837 99.9281 176.663 103.443 178.289C105.739 179.302 108.135 179.955 110.571 180.231C110.571 180.231 108.142 160.943 108.142 155.433C108.142 149.923 110.302 141.325 110.302 141.325C110.302 141.325 113.542 151.055 114.891 152.352C116.24 153.649 121.641 155.104 121.509 149.107C121.378 143.109 116.783 121.708 115.566 119.601C114.348 117.495 108.542 115.388 108.542 115.388L102.494 112.143Z" fill="#DD4D32"/>
<g opacity="0.26">
<path opacity="0.26" d="M108.169 155.433C105.099 156.387 102.642 157.072 102.642 157.072C102.642 157.072 106.404 166.11 107.912 166.11H108.975C108.531 161.726 108.169 157.552 108.169 155.433Z" fill="black"/>
<path opacity="0.26" d="M111.075 128.659C112.72 130.825 116.191 129.746 116.191 130.47C116.191 131.194 113.482 132.82 114.546 135.348C115.61 137.876 121.778 148.731 119.969 150.719C119.448 151.292 117.776 152.036 115.681 152.865C117.644 153.905 121.663 154.294 121.548 149.106C121.411 143.109 116.822 121.708 115.604 119.601C115.593 119.601 109.414 126.487 111.075 128.659Z" fill="black"/>
<path opacity="0.26" d="M106.689 131.194C106.235 131.668 105.906 132.29 105.742 132.984C105.577 133.678 105.584 134.415 105.762 135.104C106.382 137.52 108.707 139.943 108.087 141.246C107.467 142.55 102.812 141.621 102.971 143.484C103.13 145.347 107.933 151.489 107.933 151.489L109.946 140.502L106.689 131.194Z" fill="black"/>
</g>
<path d="M102.494 112.143C102.494 112.143 100.74 119.601 98.5793 129.008C96.4189 138.416 96.8247 167.585 96.8247 169.211C96.8247 170.837 99.9281 176.663 103.443 178.289C105.739 179.302 108.135 179.955 110.571 180.231C110.571 180.231 108.142 160.943 108.142 155.433C108.142 149.923 110.302 141.325 110.302 141.325C110.302 141.325 113.542 151.055 114.891 152.352C116.24 153.649 121.641 155.104 121.509 149.107C121.378 143.109 116.783 121.708 115.566 119.601C114.348 117.495 108.542 115.388 108.542 115.388L102.494 112.143Z" stroke="#263238" stroke-linecap="round" stroke-linejoin="round"/>
<path d="M102.543 108.884L95.5471 114.855L96.0241 120.121L103.728 111.728L102.543 108.884Z" fill="white" stroke="#263238" stroke-linecap="round" stroke-linejoin="round"/>
<path d="M104.792 152.675C104.792 152.675 99.6595 149.917 99.2537 149.917C98.848 149.917 94.8015 152.51 93.99 152.51C93.1785 152.51 92.7728 153.169 93.3156 153.649C93.7658 153.968 94.279 154.136 94.8015 154.136C94.8015 154.136 92.9099 155.453 93.0415 156.078C93.1731 156.704 94.2587 157.211 94.2587 157.211C94.813 158.232 95.6152 159.024 96.5561 159.482C97.9049 159.969 102.631 158.027 102.631 158.027L106.278 157.698L104.792 152.675Z" fill="white"/>
<path d="M99.2429 152.727C97.598 153.168 94.2588 157.21 94.2588 157.21C94.8131 158.231 95.6153 159.024 96.5562 159.482C97.905 159.969 102.631 158.027 102.631 158.027L106.278 157.698L104.792 152.675C104.792 152.675 100.888 152.286 99.2429 152.727Z" fill="#DD4D32"/>
<path opacity="0.5" d="M99.2429 152.727C97.598 153.168 94.2588 157.21 94.2588 157.21C94.8131 158.231 95.6153 159.024 96.5562 159.482C97.905 159.969 102.631 158.027 102.631 158.027L106.278 157.698L104.792 152.675C104.792 152.675 100.888 152.286 99.2429 152.727Z" fill="white"/>
<path d="M104.792 152.675C104.792 152.675 99.6595 149.917 99.2537 149.917C98.848 149.917 94.8015 152.51 93.99 152.51C93.1785 152.51 92.7728 153.169 93.3156 153.649C93.7658 153.968 94.279 154.136 94.8015 154.136C94.8015 154.136 92.9099 155.453 93.0415 156.078C93.1731 156.704 94.2587 157.211 94.2587 157.211C94.813 158.232 95.6152 159.024 96.5561 159.482C97.9049 159.969 102.631 158.027 102.631 158.027L106.278 157.698L104.792 152.675Z" stroke="#263238" stroke-linecap="round" stroke-linejoin="round"/>
<path d="M117.079 145.703L104.386 151.865L105.329 158.349C105.329 158.349 122.326 155.433 123.154 153.971C123.982 152.51 120.857 144.242 120.857 144.242" fill="#DD4D32"/>
<path opacity="0.26" d="M105.038 156.354L105.329 158.329C105.329 158.329 122.326 155.413 123.154 153.951C123.982 152.49 120.857 144.222 120.857 144.222L119.042 144.926C120.089 147.559 120.687 149.877 119.958 150.699C118.598 152.213 109.469 155.044 105.038 156.354Z" fill="black"/>
<path d="M117.079 145.703L104.386 151.865L105.329 158.349C105.329 158.349 122.326 155.433 123.154 153.971C123.982 152.51 120.857 144.242 120.857 144.242" stroke="#263238" stroke-linecap="round" stroke-linejoin="round"/>
<path d="M78.2263 143.511C78.2263 143.511 80.7595 131.76 81.5655 125.276L78.2263 143.511Z" fill="white"/>
<path d="M78.2263 143.511C78.2263 143.511 80.7595 131.76 81.5655 125.276" stroke="#263238" stroke-linecap="round" stroke-linejoin="round"/>
<path d="M89.4009 177.256L93.0416 180.903L93.6502 195.491" stroke="white" stroke-linecap="round" stroke-linejoin="round"/>
<path d="M110.33 141.326L106.744 133.426C106.744 133.426 105.707 131.767 107.78 127.62" stroke="#263238" stroke-linecap="round" stroke-linejoin="round"/>
<path d="M96.3313 80.9257C90.5631 79.9909 87.4488 84.6649 88.3809 86.1922C88.6123 86.6273 88.9665 86.9479 89.3788 87.094L90.0971 86.936C90.0971 86.936 95.3937 87.127 95.0866 89.1809C94.7796 91.2348 91.6543 91.4323 92.8934 93.1307C93.2202 93.5626 93.5887 93.947 93.99 94.2762H93.8091C94.1452 94.6178 94.4018 95.0576 94.5548 95.5533C94.7686 96.3235 93.5952 102.722 93.3814 103.236C93.1676 103.749 91.9942 103.104 90.5028 101.827C89.7248 101.101 88.8091 100.618 87.8381 100.418L87.7339 101.57C87.7339 101.57 89.2253 102.084 89.4391 103.104C89.6529 104.124 88.2657 104.256 88.2657 105.158C88.2657 106.06 88.1616 107.666 89.1704 108.654C90.1793 109.641 93.2279 108.087 93.2279 108.087C93.2279 108.087 95.5143 106.178 95.8378 104.138C96.0955 102.466 96.2874 99.5295 96.5232 98.068C96.862 97.5743 97.1663 97.0483 97.4334 96.4947C97.4334 96.4947 99.9281 95.7442 99.1496 98.7395C98.371 101.735 96.8083 101.735 96.8083 101.735C98.5777 102.958 100.537 103.733 102.565 104.013V103.966C102.565 103.966 107.243 97.6072 107.555 92.5514C107.868 87.4956 102.099 81.8605 96.3313 80.9257Z" fill="#263238" stroke="#263238" stroke-linecap="round" stroke-linejoin="round"/>
<path d="M111.053 175.649H101.82V192.028H111.053V175.649Z" fill="white" stroke="#263238" stroke-linecap="round" stroke-linejoin="round"/>
<path d="M110.642 189.803H109.661C109.458 189.803 109.265 189.707 109.122 189.535C108.978 189.363 108.898 189.131 108.898 188.888C108.898 188.645 108.978 188.413 109.122 188.241C109.265 188.07 109.458 187.973 109.661 187.973H110.626C111.008 187.973 111.375 187.79 111.645 187.466C111.916 187.141 112.068 186.701 112.068 186.241V182.292C112.068 181.832 111.916 181.391 111.645 181.065C111.375 180.739 111.008 180.556 110.626 180.554H109.386C109.281 180.564 109.175 180.549 109.076 180.508C108.976 180.467 108.884 180.402 108.806 180.316C108.728 180.23 108.666 180.126 108.624 180.01C108.582 179.894 108.56 179.769 108.56 179.642C108.56 179.516 108.582 179.39 108.624 179.274C108.666 179.158 108.728 179.054 108.806 178.968C108.884 178.882 108.976 178.817 109.076 178.776C109.175 178.735 109.281 178.72 109.386 178.73H110.626C111.015 178.73 111.401 178.822 111.761 179.001C112.121 179.18 112.448 179.443 112.723 179.774C112.999 180.104 113.217 180.496 113.366 180.929C113.515 181.361 113.592 181.824 113.592 182.292V186.241C113.59 187.182 113.28 188.084 112.727 188.751C112.175 189.418 111.426 189.796 110.642 189.803Z" fill="white" stroke="#263238" stroke-linecap="round" stroke-linejoin="round"/>
<path d="M62.1118 191.811H37.0214C36.9263 191.811 36.8331 191.779 36.7532 191.717C36.6734 191.655 36.6103 191.567 36.5718 191.462L29.6084 172.476C29.5754 172.387 29.5616 172.289 29.5683 172.191C29.575 172.094 29.6019 172 29.6466 171.918C29.6913 171.836 29.7524 171.769 29.8242 171.722C29.8961 171.676 29.9765 171.653 30.058 171.653H55.1484C55.2432 171.653 55.3359 171.688 55.4149 171.751C55.4938 171.814 55.5558 171.903 55.5925 172.009L62.5395 191.027C62.5664 191.113 62.5763 191.204 62.5675 191.295C62.5593 191.386 62.5335 191.473 62.4918 191.55C62.4501 191.626 62.3937 191.69 62.3279 191.735C62.2615 191.78 62.1875 191.806 62.1118 191.811Z" fill="white" stroke="#263238" stroke-linecap="round" stroke-linejoin="round"/>
<path d="M59.7651 190.33H38.3483C38.2682 190.329 38.1899 190.301 38.1228 190.249C38.0557 190.196 38.0027 190.121 37.97 190.034L32.0428 173.793C32.0145 173.718 32.0025 173.634 32.0078 173.551C32.0131 173.468 32.0355 173.388 32.0731 173.318C32.1107 173.248 32.1621 173.19 32.223 173.151C32.2837 173.111 32.3519 173.09 32.4212 173.089H53.8324C53.9137 173.09 53.993 173.12 54.061 173.173C54.129 173.226 54.1828 173.303 54.2162 173.392L60.1434 189.619C60.173 189.695 60.1856 189.779 60.1812 189.863C60.1763 189.947 60.1544 190.028 60.1165 190.099C60.0787 190.17 60.0266 190.228 59.9652 190.269C59.9038 190.309 59.8353 190.33 59.7651 190.33Z" fill="#263238" stroke="#263238" stroke-linecap="round" stroke-linejoin="round"/>
<path d="M36.6704 192.035H74.3663V190.554H36.6704V192.035Z" fill="white" stroke="#263238" stroke-linecap="round" stroke-linejoin="round"/>
<path d="M36.6704 192.035H54.9454V190.554H36.6704V192.035Z" fill="white" stroke="#263238" stroke-linecap="round" stroke-linejoin="round"/>
<path d="M2.39609 155.189C3.18069 155.44 3.99191 155.548 4.80313 155.512C4.80313 155.512 4.43577 154.195 4.40287 154.09C4.03003 153.149 2.84021 151.588 1.8752 151.746C1.71544 151.778 1.56304 151.85 1.42794 151.957C1.29283 152.064 1.17807 152.204 1.09115 152.369C1.00422 152.533 0.947079 152.717 0.923453 152.909C0.899832 153.101 0.910255 153.297 0.954048 153.484C1.07658 153.877 1.2691 154.234 1.51816 154.528C1.76724 154.823 2.06685 155.049 2.39609 155.189Z" fill="#263238"/>
<path d="M2.98265 161.134C3.78825 161.129 4.58859 160.978 5.3568 160.686C5.60433 161.736 5.91215 162.763 6.27792 163.761C6.48628 164.347 6.71656 164.926 6.94685 165.499C6.80978 165.255 6.68367 165.038 6.66173 165.012C6.11343 164.222 4.6111 163.096 3.71189 163.557C3.56367 163.637 3.43138 163.755 3.32371 163.901C3.21605 164.048 3.13547 164.22 3.08729 164.407C3.03911 164.593 3.02441 164.79 3.04418 164.984C3.06395 165.177 3.11772 165.364 3.20197 165.532C3.40621 165.873 3.67004 166.156 3.975 166.362C4.27996 166.568 4.6187 166.691 4.96751 166.723C5.74876 166.728 6.52581 166.586 7.27041 166.302C7.36362 166.519 7.45135 166.743 7.54456 166.96C7.98868 168.02 8.43281 169.067 8.83855 170.12C8.98659 170.489 9.11819 170.857 9.24978 171.226L9.00299 170.798C8.45468 170.008 6.94685 168.889 6.04764 169.343C5.90003 169.425 5.76838 169.543 5.66119 169.689C5.55405 169.836 5.47379 170.007 5.42569 170.194C5.37758 170.381 5.3627 170.577 5.38201 170.77C5.40131 170.964 5.45437 171.151 5.53771 171.318C5.74497 171.653 6.01008 171.93 6.31482 172.13C6.61957 172.329 6.95678 172.448 7.30325 172.477C8.06336 172.479 8.81942 172.344 9.54586 172.075C9.67197 172.457 9.79803 172.839 9.90769 173.214C9.97897 173.477 10.0557 173.721 10.116 173.991L10.297 174.768C10.3957 175.261 10.4999 175.781 10.5876 176.269C10.6534 176.611 10.7027 176.927 10.763 177.263C10.6205 176.894 10.3354 176.176 10.3025 176.124C9.84195 175.235 8.515 173.859 7.56095 174.149C7.40518 174.2 7.26026 174.291 7.13585 174.415C7.01144 174.539 6.91039 174.693 6.83933 174.867C6.76832 175.041 6.72896 175.232 6.72386 175.426C6.71876 175.619 6.74804 175.813 6.80978 175.992C6.96763 176.367 7.19238 176.696 7.46818 176.956C7.74392 177.216 8.06391 177.399 8.40539 177.493C9.19577 177.638 10.0001 177.638 10.7905 177.493C10.8782 178.039 10.9659 178.566 11.0372 179.066C11.2894 180.804 11.4484 182.259 11.5471 183.28C11.5471 183.457 11.58 183.622 11.591 183.773H8.67401L9.0304 192.094H15.451L15.8075 183.773H13.066C13.066 183.727 13.1043 183.675 13.1263 183.622C13.4991 182.687 14.02 181.344 14.5792 179.672C14.7602 179.152 14.9411 178.592 15.1275 178.02C15.9071 178.236 16.7094 178.309 17.5072 178.237C17.851 178.176 18.1797 178.027 18.4704 177.798C18.7611 177.57 19.0069 177.268 19.1905 176.914C19.2628 176.739 19.3037 176.549 19.3105 176.354C19.3172 176.16 19.2896 175.966 19.2296 175.785C19.1696 175.604 19.0784 175.44 18.962 175.305C18.8457 175.169 18.7068 175.065 18.5544 174.998C17.6333 174.629 16.2242 175.887 15.7088 176.729C15.6759 176.775 15.3962 177.388 15.2262 177.73C15.2975 177.493 15.3743 177.263 15.4455 177.019C15.5936 176.538 15.7307 176.051 15.8732 175.531L16.0706 174.754C16.1364 174.498 16.1803 174.215 16.2406 173.945C16.3668 173.286 16.4709 172.668 16.5586 172.009C17.2809 172.354 18.0426 172.565 18.8176 172.635C19.1677 172.631 19.513 172.537 19.83 172.359C20.147 172.18 20.4282 171.922 20.6544 171.601C20.7476 171.442 20.8118 171.261 20.8428 171.07C20.8737 170.879 20.8707 170.682 20.8339 170.493C20.7972 170.303 20.7275 170.125 20.6295 169.97C20.5315 169.815 20.4074 169.687 20.2651 169.593C19.3988 169.06 17.8471 170.048 17.233 170.785C17.1946 170.831 16.7999 171.443 16.5916 171.746C16.6409 171.351 16.6957 170.956 16.7395 170.554C16.8547 169.396 16.948 168.217 17.0412 167.046C17.0741 166.684 17.1069 166.328 17.1343 165.966C17.8809 166.325 18.6684 166.547 19.4701 166.624C19.8205 166.623 20.1664 166.53 20.4836 166.351C20.8009 166.173 21.0819 165.913 21.3069 165.591C21.3963 165.433 21.4574 165.254 21.4861 165.067C21.515 164.879 21.511 164.686 21.4744 164.501C21.4377 164.315 21.3694 164.14 21.2735 163.988C21.1777 163.836 21.0564 163.709 20.9176 163.616C20.0568 163.076 18.5051 164.064 17.8855 164.801C17.8417 164.86 17.2769 165.703 17.1399 165.927C17.2111 165.137 17.2878 164.353 17.3865 163.583C17.5126 162.54 17.6958 161.509 17.9348 160.496C18.6858 160.853 19.4766 161.074 20.2816 161.154C20.6317 161.151 20.9769 161.056 21.294 160.878C21.6109 160.7 21.8922 160.441 22.1184 160.12C22.2108 159.961 22.2742 159.78 22.3047 159.589C22.3351 159.398 22.332 159.202 22.2953 159.012C22.2585 158.823 22.1892 158.646 22.0917 158.49C21.9942 158.336 21.8707 158.207 21.7291 158.112C20.8628 157.579 19.3111 158.567 18.697 159.304C18.6476 159.363 18.0391 160.272 17.9404 160.449C17.9557 160.389 17.9685 160.327 17.9788 160.265C18.253 159.253 18.6016 158.273 19.0205 157.336C19.2398 156.816 19.4756 156.328 19.7168 155.868C20.4129 156.315 21.1617 156.633 21.9375 156.809C22.2855 156.853 22.6375 156.806 22.9689 156.671C23.3003 156.536 23.6031 156.315 23.8565 156.026C23.9633 155.879 24.0434 155.708 24.0916 155.523C24.1398 155.338 24.1551 155.142 24.1365 154.949C24.1179 154.756 24.0658 154.57 23.9836 154.403C23.9014 154.236 23.7908 154.091 23.6591 153.978C22.8476 153.32 21.2137 154.11 20.5338 154.762C20.4954 154.795 20.1555 155.203 19.9087 155.506C20.0184 155.301 20.1281 155.084 20.2378 154.887C20.6435 154.149 21.0547 153.511 21.422 152.945L22.0142 152.069C22.8015 152.083 23.5858 151.949 24.339 151.674C24.6654 151.521 24.9601 151.285 25.2026 150.982C25.4451 150.678 25.6293 150.315 25.7427 149.917C25.7811 149.728 25.786 149.532 25.7572 149.341C25.7283 149.151 25.6664 148.969 25.5754 148.809C25.4844 148.649 25.3663 148.514 25.2289 148.412C25.0915 148.31 24.9378 148.244 24.7777 148.218C23.8072 148.093 22.6612 149.686 22.3048 150.634C22.2774 150.72 21.921 152.076 21.9375 152.076C21.751 152.326 21.5591 152.596 21.3508 152.892C20.9724 153.452 20.5502 154.09 20.1281 154.814C19.6675 155.594 19.2446 156.405 18.8615 157.243C18.424 158.179 18.0571 159.159 17.7649 160.173V160.212C17.7649 159.87 17.7649 158.896 17.7649 158.837C17.6553 157.803 16.9314 155.881 15.9774 155.67C15.8164 155.641 15.652 155.652 15.4949 155.704C15.3378 155.755 15.1916 155.846 15.0658 155.97C14.9401 156.095 14.8375 156.249 14.765 156.425C14.6925 156.6 14.6517 156.791 14.645 156.987C14.6605 157.405 14.7513 157.816 14.9112 158.188C15.0712 158.561 15.2965 158.888 15.5717 159.146C16.2483 159.676 16.9877 160.079 17.7649 160.344C17.4939 161.386 17.2796 162.448 17.1234 163.524C17.0302 164.149 16.9534 164.781 16.8822 165.413C16.8822 165.117 16.8822 164.854 16.8822 164.821C16.767 163.78 16.0487 161.865 15.0892 161.648C14.9284 161.618 14.7643 161.629 14.6075 161.681C14.4507 161.732 14.3048 161.824 14.1795 161.948C14.0541 162.072 13.9521 162.228 13.8802 162.403C13.8083 162.578 13.7681 162.769 13.7623 162.964C13.7748 163.384 13.8637 163.796 14.0229 164.17C14.182 164.544 14.4075 164.872 14.6834 165.13C15.3353 165.647 16.049 166.042 16.7999 166.302C16.7999 166.545 16.7506 166.789 16.7286 167.033C16.608 168.204 16.4983 169.376 16.3558 170.522C16.3064 170.923 16.2461 171.318 16.1912 171.713C16.1912 171.45 16.1912 171.233 16.1912 171.2C16.0816 170.159 15.3578 168.244 14.4038 168.027C14.2428 167.997 14.0784 168.008 13.9213 168.06C13.7642 168.111 13.6179 168.202 13.4922 168.327C13.3664 168.451 13.2639 168.606 13.1914 168.781C13.1189 168.956 13.078 169.148 13.0714 169.343C13.0864 169.763 13.177 170.174 13.337 170.548C13.4969 170.922 13.7225 171.25 13.998 171.509C14.6301 172.016 15.3237 172.402 16.0542 172.654C15.9829 173.056 15.9117 173.464 15.8294 173.853C15.7636 174.109 15.7198 174.373 15.6485 174.629C15.5772 174.886 15.5059 175.143 15.4401 175.4C15.2921 175.88 15.144 176.38 14.9905 176.848C14.8863 177.17 14.7821 177.506 14.6779 177.789C14.7328 177.388 14.8205 176.598 14.826 176.532C14.8165 175.606 14.6088 174.7 14.2229 173.899C14.2337 173.798 14.2337 173.697 14.2229 173.596C14.2026 173.403 14.1488 173.218 14.0649 173.052C13.9811 172.886 13.869 172.743 13.7361 172.633C13.6031 172.522 13.4523 172.446 13.2934 172.41C13.1344 172.375 12.9711 172.379 12.8137 172.424C11.8762 172.72 11.2784 174.708 11.2346 175.748C11.2346 175.808 11.2346 176.479 11.2894 176.901C11.2455 176.657 11.2017 176.42 11.1469 176.163C11.0482 175.67 10.9385 175.169 10.8234 174.636C10.7576 174.386 10.6918 174.129 10.626 173.866C10.5657 173.609 10.478 173.339 10.4012 173.076C10.2148 172.464 10.001 171.858 9.77615 171.252C10.5455 171.065 11.2856 170.734 11.9694 170.271C12.2606 170.039 12.5062 169.733 12.689 169.375C12.8717 169.017 12.9873 168.615 13.0276 168.198C13.032 168.004 13.0022 167.811 12.9404 167.631C12.8784 167.452 12.7858 167.29 12.6683 167.156C12.5509 167.023 12.4114 166.921 12.2588 166.856C12.1063 166.792 11.9441 166.767 11.7829 166.782C10.8179 166.907 9.97897 168.757 9.80351 169.784C9.80351 169.843 9.73223 170.594 9.7103 171.009C9.56774 170.647 9.43066 170.285 9.28262 169.916C8.84946 168.876 8.38341 167.829 7.92283 166.789L7.50618 165.828C8.29579 165.636 9.05595 165.299 9.7597 164.827C10.0502 164.594 10.2949 164.288 10.4768 163.93C10.6586 163.572 10.7731 163.17 10.8124 162.754C10.826 162.547 10.8004 162.339 10.7377 162.146C10.6749 161.952 10.5766 161.779 10.45 161.638C10.3235 161.496 10.172 161.391 10.0068 161.33C9.84173 161.27 9.66726 161.254 9.49646 161.285C8.52596 161.411 7.68706 163.26 7.5116 164.287C7.5116 164.36 7.41845 165.439 7.40748 165.716C7.10043 165.012 6.80435 164.307 6.5302 163.596C6.16091 162.641 5.84405 161.658 5.58158 160.654C6.37415 160.455 7.13744 160.116 7.84607 159.646C8.13738 159.414 8.38297 159.108 8.56572 158.75C8.74847 158.392 8.86405 157.99 8.90429 157.573C8.90544 157.382 8.87386 157.194 8.81157 157.02C8.74934 156.845 8.65767 156.687 8.54241 156.557C8.42716 156.427 8.29074 156.326 8.14166 156.262C7.99263 156.197 7.83412 156.171 7.67609 156.184C6.7056 156.309 5.8667 158.159 5.69124 159.185C5.69124 159.264 5.5926 160.423 5.58712 160.64L5.53771 160.463C5.29818 159.444 5.13306 158.402 5.04427 157.349C4.98944 156.77 4.96751 156.21 4.95106 155.67C5.73795 155.58 6.50892 155.347 7.23745 154.979C7.54768 154.785 7.81915 154.513 8.03315 154.182C8.2471 153.849 8.39843 153.465 8.47662 153.057C8.49899 152.865 8.48764 152.67 8.44334 152.485C8.39903 152.298 8.32276 152.126 8.21941 151.978C8.11605 151.83 7.98797 151.708 7.84338 151.624C7.69879 151.539 7.54094 151.491 7.38001 151.483C6.40951 151.483 5.40615 153.208 5.13748 154.202C5.13748 154.255 5.02234 154.828 4.95654 155.242C4.95654 154.992 4.95654 154.742 4.95654 154.505C4.95654 153.623 5.00589 152.813 5.05523 152.096C5.05523 151.687 5.11555 151.319 5.14845 150.976C5.80995 150.466 6.40178 149.835 6.90299 149.107C7.1035 148.763 7.23965 148.372 7.3021 147.959C7.36455 147.547 7.35188 147.123 7.26487 146.717C7.21086 146.534 7.12532 146.367 7.01391 146.227C6.90244 146.086 6.76761 145.975 6.61814 145.901C6.46868 145.827 6.30791 145.792 6.14633 145.798C5.98475 145.803 5.82596 145.85 5.68027 145.934C4.81398 146.474 4.58369 148.567 4.73174 149.587C4.73174 149.68 5.0662 151.042 5.08265 151.029C5.04427 151.358 5.00589 151.687 4.97299 152.102C4.91268 152.82 4.85236 153.629 4.83591 154.518C4.80608 155.473 4.82439 156.429 4.89074 157.382C4.95985 158.451 5.10849 159.511 5.33487 160.548V160.581C5.18134 160.291 4.73174 159.501 4.68787 159.449C4.13957 158.659 2.63722 157.533 1.738 157.987C1.58978 158.068 1.45748 158.186 1.34982 158.332C1.24216 158.478 1.16158 158.651 1.1134 158.837C1.06522 159.024 1.05053 159.22 1.0703 159.415C1.09006 159.609 1.14384 159.795 1.22808 159.962C1.43279 160.298 1.69561 160.576 1.99848 160.779C2.30134 160.981 2.63709 161.102 2.98265 161.134ZM12.6383 176.427C13.2238 177.033 13.8771 177.538 14.5792 177.927C14.4038 178.441 14.2283 178.941 14.0309 179.402C13.4497 181.022 12.9343 182.338 12.5231 183.26C12.4463 183.444 12.3751 183.602 12.3093 183.754H12.2435C12.2435 183.574 12.2215 183.376 12.1777 183.161C12.0625 182.134 11.8761 180.666 11.5855 178.922C11.4978 178.369 11.3881 177.783 11.2784 177.177C11.7436 176.959 12.1977 176.708 12.6383 176.427Z" fill="#263238"/>
<path d="M19.6784 155.643C19.6784 155.643 19.9855 154.281 19.9964 154.189C20.1171 153.155 19.8429 151.075 18.9656 150.568C18.8176 150.488 18.6573 150.447 18.4951 150.447C18.3328 150.447 18.1725 150.488 18.0244 150.568C17.8764 150.647 17.744 150.763 17.6359 150.909C17.5279 151.054 17.4467 151.225 17.3975 151.411C17.3188 151.82 17.3152 152.246 17.3872 152.657C17.4591 153.069 17.6049 153.457 17.8142 153.794C18.3555 154.518 18.9838 155.142 19.6784 155.643Z" fill="#263238"/>
<path d="M4.56738 192.035H209.271" stroke="#263238" stroke-width="2" stroke-linecap="round" stroke-linejoin="round"/>
</g>
<defs>
<clipPath id="clip0">
<rect width="210" height="210" fill="white"/>
</clipPath>
</defs>
</svg>
