<svg width="320" height="320" viewBox="0 0 320 320" fill="none" xmlns="http://www.w3.org/2000/svg">
<path d="M251.778 150.097C243.573 171.276 224.404 187.343 204.475 194.99C189.017 200.92 172.562 200.334 156.164 195.238C140.605 190.406 126.318 182.562 110.336 186.098C97.8009 188.874 83.6663 192.856 72.336 181.407C66.6766 175.697 62.9205 167.948 60.4427 160.008C52.5588 134.83 56.5008 108.2 73.3947 91.672C87.8165 77.5261 108.455 70.701 128.362 71.9061C132.187 72.1327 135.984 72.698 139.709 73.5955C149.541 75.9888 160.275 79.7336 170.372 78.3765C182.259 76.7772 190.515 67.7333 201.344 63.583C212.533 59.3032 224.14 64.3601 233.054 74.0066C251.722 94.1949 261.661 124.581 251.778 150.097Z" fill="#DD4D32"/>
<path opacity="0.7" d="M251.778 150.097C243.573 171.276 224.404 187.343 204.475 194.99C189.017 200.92 172.562 200.334 156.164 195.238C140.605 190.406 126.318 182.562 110.336 186.098C97.8009 188.874 83.6663 192.856 72.336 181.407C66.6766 175.697 62.9205 167.948 60.4427 160.008C52.5588 134.83 56.5008 108.2 73.3947 91.672C87.8165 77.5261 108.455 70.701 128.362 71.9061C132.187 72.1327 135.984 72.698 139.709 73.5955C149.541 75.9888 160.275 79.7336 170.372 78.3765C182.259 76.7772 190.515 67.7333 201.344 63.583C212.533 59.3032 224.14 64.3601 233.054 74.0066C251.722 94.1949 261.661 124.581 251.778 150.097Z" fill="white"/>
<path d="M110.567 96.4868H68.293L68.721 92.5562H110.995L110.567 96.4868Z" fill="white"/>
<path d="M110.567 101.988H68.293L68.721 98.0576H110.995L110.567 101.988Z" fill="white"/>
<path d="M110.567 107.485H68.293L68.721 103.56H110.995L110.567 107.485Z" fill="white"/>
<path d="M110.567 112.987H68.293L68.721 109.056H110.995L110.567 112.987Z" fill="white"/>
<path d="M110.567 118.488H68.293L68.721 114.558H110.995L110.567 118.488Z" fill="white"/>
<path d="M110.567 123.985H68.293L68.721 120.06H110.995L110.567 123.985Z" fill="white"/>
<path d="M110.567 129.486H68.293L68.721 125.555H110.995L110.567 129.486Z" fill="white"/>
<path d="M110.567 134.988H68.293L68.721 131.058H110.995L110.567 134.988Z" fill="white"/>
<path d="M110.567 140.485H68.293L68.721 136.56H110.995L110.567 140.485Z" fill="white"/>
<path d="M110.567 145.986H68.293L68.721 142.061H110.995L110.567 145.986Z" fill="white"/>
<path d="M110.567 151.488H68.293L68.721 147.558H110.995L110.567 151.488Z" fill="white"/>
<path d="M155.263 96.4868H112.988L113.416 92.5562H155.691L155.263 96.4868Z" fill="white"/>
<path d="M155.263 101.988H112.988L113.416 98.0576H155.691L155.263 101.988Z" fill="white"/>
<path d="M155.263 107.485H112.988L113.416 103.56H155.691L155.263 107.485Z" fill="white"/>
<path d="M155.263 112.987H112.988L113.416 109.056H155.691L155.263 112.987Z" fill="white"/>
<path d="M155.263 118.488H112.988L113.416 114.558H155.691L155.263 118.488Z" fill="white"/>
<path d="M155.263 123.985H112.988L113.416 120.06H155.691L155.263 123.985Z" fill="white"/>
<path d="M155.263 129.486H112.988L113.416 125.555H155.691L155.263 129.486Z" fill="white"/>
<path d="M155.263 134.988H112.988L113.416 131.058H155.691L155.263 134.988Z" fill="white"/>
<path d="M155.263 140.485H112.988L113.416 136.56H155.691L155.263 140.485Z" fill="white"/>
<path d="M155.263 145.986H112.988L113.416 142.061H155.691L155.263 145.986Z" fill="white"/>
<path d="M155.263 151.488H112.988L113.416 147.558H155.691L155.263 151.488Z" fill="white"/>
<path d="M235.56 83.9736H160.872V268.929H235.56V83.9736Z" fill="white" stroke="#263238" stroke-linecap="round" stroke-linejoin="round"/>
<path d="M260.102 83.9736H224.202V268.929H260.102V83.9736Z" fill="#263238" stroke="#263238" stroke-linecap="round" stroke-linejoin="round"/>
<path d="M222.281 87.583H204.317V112.288H222.281V87.583Z" fill="white" stroke="#263238" stroke-linecap="round" stroke-linejoin="round"/>
<path d="M216.943 96.8135H209.661V101.285H216.943V96.8135Z" fill="#DD4D32" stroke="#263238" stroke-linecap="round" stroke-linejoin="round"/>
<path d="M201.727 87.583H183.763V112.288H201.727V87.583Z" fill="white" stroke="#263238" stroke-linecap="round" stroke-linejoin="round"/>
<path d="M196.388 96.8135H189.107V101.285H196.388V96.8135Z" fill="#DD4D32" stroke="#263238" stroke-linecap="round" stroke-linejoin="round"/>
<path d="M181.173 87.583H163.209V112.288H181.173V87.583Z" fill="white" stroke="#263238" stroke-linecap="round" stroke-linejoin="round"/>
<path d="M175.834 96.8135H168.553V101.285H175.834V96.8135Z" fill="#DD4D32" stroke="#263238" stroke-linecap="round" stroke-linejoin="round"/>
<path d="M222.281 116.101H204.317V140.805H222.281V116.101Z" fill="white" stroke="#263238" stroke-linecap="round" stroke-linejoin="round"/>
<path d="M216.943 125.33H209.661V129.801H216.943V125.33Z" fill="#DD4D32" stroke="#263238" stroke-linecap="round" stroke-linejoin="round"/>
<path d="M181.173 116.101H163.209V140.805H181.173V116.101Z" fill="white" stroke="#263238" stroke-linecap="round" stroke-linejoin="round"/>
<path d="M175.834 125.33H168.553V129.801H175.834V125.33Z" fill="white" stroke="#263238" stroke-linecap="round" stroke-linejoin="round"/>
<path d="M201.029 116.877H184.343V136.818H201.029V116.877Z" fill="#263238" stroke="#263238" stroke-linecap="round" stroke-linejoin="round"/>
<path d="M199.874 118.601H183.189V138.541H199.874V118.601Z" fill="white" stroke="#263238" stroke-linecap="round" stroke-linejoin="round"/>
<path d="M197.565 118.601H180.88V138.541H197.565V118.601Z" fill="white" stroke="#263238" stroke-linecap="round" stroke-linejoin="round"/>
<path d="M195.257 118.601H178.571V138.541H195.257V118.601Z" fill="white" stroke="#263238" stroke-linecap="round" stroke-linejoin="round"/>
<path d="M192.948 118.601H176.262V138.541H192.948V118.601Z" fill="white" stroke="#263238" stroke-linecap="round" stroke-linejoin="round"/>
<path d="M190.639 118.601H173.953V138.541H190.639V118.601Z" fill="white" stroke="#263238" stroke-linecap="round" stroke-linejoin="round"/>
<path d="M188.33 118.601H171.645V138.541H188.33V118.601Z" fill="white" stroke="#263238" stroke-linecap="round" stroke-linejoin="round"/>
<path d="M201.029 120.071H184.343V140.011H201.029V120.071Z" fill="#263238" stroke="#263238" stroke-linecap="round" stroke-linejoin="round"/>
<path d="M187.142 116.101H169.178V140.805H187.142V116.101Z" fill="white" stroke="#263238" stroke-linecap="round" stroke-linejoin="round"/>
<path d="M181.804 125.33H174.522V129.801H181.804V125.33Z" fill="#DD4D32" stroke="#263238" stroke-linecap="round" stroke-linejoin="round"/>
<path d="M222.281 144.611H204.317V169.316H222.281V144.611Z" fill="white" stroke="#263238" stroke-linecap="round" stroke-linejoin="round"/>
<path d="M216.943 153.842H209.661V158.313H216.943V153.842Z" fill="#DD4D32" stroke="#263238" stroke-linecap="round" stroke-linejoin="round"/>
<path d="M201.727 144.611H183.763V169.316H201.727V144.611Z" fill="white" stroke="#263238" stroke-linecap="round" stroke-linejoin="round"/>
<path d="M196.388 153.842H189.107V158.313H196.388V153.842Z" fill="#DD4D32" stroke="#263238" stroke-linecap="round" stroke-linejoin="round"/>
<path d="M181.173 144.611H163.209V169.316H181.173V144.611Z" fill="white" stroke="#263238" stroke-linecap="round" stroke-linejoin="round"/>
<path d="M175.834 153.842H168.553V158.313H175.834V153.842Z" fill="#DD4D32" stroke="#263238" stroke-linecap="round" stroke-linejoin="round"/>
<path d="M222.281 173.123H204.317V197.828H222.281V173.123Z" fill="white" stroke="#263238" stroke-linecap="round" stroke-linejoin="round"/>
<path d="M216.943 182.353H209.661V186.824H216.943V182.353Z" fill="#DD4D32" stroke="#263238" stroke-linecap="round" stroke-linejoin="round"/>
<path d="M201.727 173.123H183.763V197.828H201.727V173.123Z" fill="white" stroke="#263238" stroke-linecap="round" stroke-linejoin="round"/>
<path d="M196.388 182.353H189.107V186.824H196.388V182.353Z" fill="#DD4D32" stroke="#263238" stroke-linecap="round" stroke-linejoin="round"/>
<path d="M181.173 173.123H163.209V197.828H181.173V173.123Z" fill="white" stroke="#263238" stroke-linecap="round" stroke-linejoin="round"/>
<path d="M175.834 182.353H168.553V186.824H175.834V182.353Z" fill="#DD4D32" stroke="#263238" stroke-linecap="round" stroke-linejoin="round"/>
<path d="M222.281 201.635H204.317V226.34H222.281V201.635Z" fill="white" stroke="#263238" stroke-linecap="round" stroke-linejoin="round"/>
<path d="M216.943 210.864H209.661V215.336H216.943V210.864Z" fill="#DD4D32" stroke="#263238" stroke-linecap="round" stroke-linejoin="round"/>
<path d="M201.727 201.635H183.763V226.34H201.727V201.635Z" fill="white" stroke="#263238" stroke-linecap="round" stroke-linejoin="round"/>
<path d="M196.388 210.864H189.107V215.336H196.388V210.864Z" fill="#DD4D32" stroke="#263238" stroke-linecap="round" stroke-linejoin="round"/>
<path d="M181.173 201.635H163.209V226.34H181.173V201.635Z" fill="white" stroke="#263238" stroke-linecap="round" stroke-linejoin="round"/>
<path d="M175.834 210.864H168.553V215.336H175.834V210.864Z" fill="#DD4D32" stroke="#263238" stroke-linecap="round" stroke-linejoin="round"/>
<path d="M222.281 230.146H204.317V254.851H222.281V230.146Z" fill="white" stroke="#263238" stroke-linecap="round" stroke-linejoin="round"/>
<path d="M216.943 239.375H209.661V243.847H216.943V239.375Z" fill="#DD4D32" stroke="#263238" stroke-linecap="round" stroke-linejoin="round"/>
<path d="M201.727 230.146H183.763V254.851H201.727V230.146Z" fill="white" stroke="#263238" stroke-linecap="round" stroke-linejoin="round"/>
<path d="M196.388 239.375H189.107V243.847H196.388V239.375Z" fill="#DD4D32" stroke="#263238" stroke-linecap="round" stroke-linejoin="round"/>
<path d="M181.173 230.146H163.209V254.851H181.173V230.146Z" fill="white" stroke="#263238" stroke-linecap="round" stroke-linejoin="round"/>
<path d="M175.834 239.375H168.553V243.847H175.834V239.375Z" fill="#DD4D32" stroke="#263238" stroke-linecap="round" stroke-linejoin="round"/>
<path d="M83.8969 169.356C83.8969 169.356 81.4304 172.171 80.0226 177.803C78.6148 183.434 84.95 187.657 82.8383 193.638C80.7265 199.618 76.8578 202.428 77.9052 208.409C78.9526 214.389 83.5365 214.744 80.0113 221.428C76.4861 228.113 73.3269 230.574 74.38 236.909C75.4331 243.244 88.8018 251.336 88.8018 251.336C88.8018 251.336 97.9527 241.132 98.3019 234.442C98.651 227.752 90.2096 223.534 91.6175 217.548C93.0253 211.562 96.5449 206.641 96.1957 201.009C95.8466 195.378 89.1566 191.16 89.1566 186.931C89.1566 182.702 91.9723 180.247 91.9723 175.319C91.9723 170.392 85.637 166.168 85.637 163.358C85.637 160.548 87.0448 157.023 87.0448 157.023C87.0448 157.023 80.3774 161.263 83.8969 169.356Z" fill="#DD4D32"/>
<path opacity="0.5" d="M83.8969 169.356C83.8969 169.356 81.4304 172.171 80.0226 177.803C78.6148 183.434 84.95 187.657 82.8383 193.638C80.7265 199.618 76.8578 202.428 77.9052 208.409C78.9526 214.389 83.5365 214.744 80.0113 221.428C76.4861 228.113 73.3269 230.574 74.38 236.909C75.4331 243.244 88.8018 251.336 88.8018 251.336C88.8018 251.336 97.9527 241.132 98.3019 234.442C98.651 227.752 90.2096 223.534 91.6175 217.548C93.0253 211.562 96.5449 206.641 96.1957 201.009C95.8466 195.378 89.1566 191.16 89.1566 186.931C89.1566 182.702 91.9723 180.247 91.9723 175.319C91.9723 170.392 85.637 166.168 85.637 163.358C85.637 160.548 87.0448 157.023 87.0448 157.023C87.0448 157.023 80.3774 161.263 83.8969 169.356Z" fill="white"/>
<path d="M87.4168 249.225L86.7129 173.225" stroke="#263238" stroke-linecap="round" stroke-linejoin="round"/>
<path d="M94.512 231.83L87.6193 238.722L79.803 231.83" stroke="#263238" stroke-linecap="round" stroke-linejoin="round"/>
<path d="M92.2144 201.494L87.1575 209.305L82.7932 202.181" stroke="#263238" stroke-linecap="round" stroke-linejoin="round"/>
<path d="M83.9421 178.512L86.9267 182.189L89.4552 177.819" stroke="#263238" stroke-linecap="round" stroke-linejoin="round"/>
<path d="M96.2126 249.225H78.6204V268.929H96.2126V249.225Z" fill="#263238"/>
<path d="M126.712 193.644L115.083 193.807C115.083 193.807 116.722 207.727 115.41 214.936C114.098 222.144 110.663 227.707 110.663 232.956C110.663 236.402 108.686 248.228 108.202 255.329C108.202 255.329 105.949 257.08 105.459 257.897C104.969 258.713 105.459 259.699 106.771 260.684C108.132 261.564 109.213 262.814 109.885 264.288C110.702 266.091 111.851 268.05 113.321 268.546C115.072 269.109 113.974 267.194 113.703 266.355C113.003 264.278 112.675 262.093 112.735 259.902C113.067 252.283 114.126 244.202 117.048 236.886C119.971 229.571 127.207 201.364 126.712 193.644Z" fill="white" stroke="#263238" stroke-linecap="round" stroke-linejoin="round"/>
<path d="M110.471 263.816L113.298 262.014L113.788 264.796L111.457 267.087L110.471 263.816Z" fill="#263238" stroke="#263238" stroke-linecap="round" stroke-linejoin="round"/>
<path d="M106.281 261.22C106.281 261.22 107.633 261.974 107.802 264.334C107.971 266.693 107.971 268.383 109.153 268.889C110.336 269.396 113.535 269.227 113.535 269.227C113.535 269.227 110.787 266.524 109.886 264.334C108.985 262.143 107.796 259.936 106.281 261.22Z" fill="white" stroke="#263238" stroke-linecap="round" stroke-linejoin="round"/>
<path d="M105.262 258.026C105.262 258.026 106.011 257.627 107.74 259.355C109.469 261.084 111.147 265.065 111.896 266.507C112.645 267.949 114.205 268.585 114.492 268.472C114.779 268.36 115.647 268.816 115.359 269.159C115.072 269.503 114.03 269.565 113.225 269.334C112.42 269.103 110.629 267.487 110.049 266.333C109.469 265.178 108.495 262.757 107.571 261.951C106.864 261.288 106.015 260.795 105.088 260.51C104.373 260.335 103.534 259.068 105.262 258.026Z" fill="#263238" stroke="#263238" stroke-linecap="round" stroke-linejoin="round"/>
<path d="M104.373 259.992L103.449 265.933L104.316 266.164L106.045 260.853C106.045 260.853 106.062 259.93 104.373 259.992Z" fill="#263238" stroke="#263238" stroke-linecap="round" stroke-linejoin="round"/>
<path d="M133.25 107.772C133.626 108.777 133.867 109.828 133.965 110.897C134.05 112.418 134.675 113.933 135.216 114.468C135.756 115.003 137.175 115.273 136.905 115.988C136.635 116.703 135.12 117.418 135.12 117.418C135.12 117.418 135.03 121.253 134.557 122.329C134.398 122.786 134.112 123.189 133.732 123.488C133.351 123.788 132.893 123.972 132.411 124.018C131.296 123.886 130.192 123.677 129.106 123.393C129.106 123.393 128.48 128.304 128.306 129.734C128.191 130.742 128.131 131.755 128.126 132.769L122.956 129.447C122.956 129.447 124.567 124.446 124.567 122.841C124.567 121.236 124.206 121.056 124.206 121.056C124.206 121.056 121.706 119.536 120.636 117.114C119.566 114.693 123.317 111.669 124.386 112.559C125.258 113.356 126.064 114.222 126.797 115.149L133.25 107.772Z" fill="white" stroke="#263238" stroke-linecap="round" stroke-linejoin="round"/>
<path d="M120.304 105.897C120.304 105.897 117.088 102.591 113.783 101.431C110.477 100.271 104.407 104.557 101.906 110.633C99.406 116.709 103.066 122.419 104.942 124.829C106.817 127.24 108.883 130.275 107.712 131.587L106.552 132.927C107.175 133.033 107.816 132.973 108.409 132.754C109.002 132.534 109.527 132.163 109.931 131.677C111.361 129.988 113.146 125.601 111.361 119.891C109.576 114.181 107.701 106.939 110.381 104.979C113.062 103.019 117.432 103.813 118.592 105.424L119.752 107.029L120.304 105.897Z" fill="#263238" stroke="#263238" stroke-linecap="round" stroke-linejoin="round"/>
<path d="M124.589 121.969C121.297 120.554 118.5 118.192 116.553 115.183C113.338 110.182 120.839 105.007 124.944 102.952C129.049 100.896 132.89 100.632 134.517 103.667C136.144 106.702 131.927 111.432 129.781 113.308C127.636 115.183 127.016 117.593 125.946 117.593C124.876 117.593 125.586 115.003 123.446 115.341C121.306 115.678 122.46 118.556 123.085 119.446C123.302 119.721 123.572 119.95 123.878 120.119C124.185 120.289 124.522 120.395 124.871 120.431L124.589 121.969Z" fill="#263238" stroke="#263238" stroke-linecap="round" stroke-linejoin="round"/>
<path d="M131.403 102.676C131.403 102.676 132.326 107.952 128.109 111.517C123.891 115.082 119.267 115.082 119.132 116.793" stroke="white" stroke-width="0.75" stroke-linecap="round" stroke-linejoin="round"/>
<path d="M118.068 116.27C118.068 116.27 117.938 113.494 121.103 111.253C124.268 109.011 129.68 107.164 129.68 103.335" stroke="white" stroke-width="0.75" stroke-linecap="round" stroke-linejoin="round"/>
<path d="M109.097 104.522C109.097 104.522 104.215 108.875 105.268 114.158C106.321 119.44 111.339 124.711 110.68 127.876C110.021 131.04 108.303 131.57 108.303 131.57" stroke="white" stroke-width="0.75" stroke-linecap="round" stroke-linejoin="round"/>
<path d="M107.909 105.446C107.909 105.446 103.404 108.217 102.897 113.629C102.39 119.04 103.562 122.83 104.941 124.829" stroke="white" stroke-width="0.75" stroke-linecap="round" stroke-linejoin="round"/>
<path d="M171.301 124.761C171.301 124.761 173.3 126.096 172.776 126.524C172.008 127.181 171.197 127.786 170.349 128.337C169.921 128.523 168.772 128.05 168.919 127.43C169.065 126.811 171.301 124.761 171.301 124.761Z" fill="white" stroke="#263238" stroke-linecap="round" stroke-linejoin="round"/>
<path d="M130.609 135.146L145.251 143.626L165.191 130.742C165.191 130.742 167.286 126.558 167.725 126.119C168.164 125.679 170.592 124.136 171.802 123.145C173.013 122.154 173.565 121.163 173.565 121.709C173.565 122.256 172.022 124.683 171.583 125.128C171.143 125.572 169.707 127.11 169.707 127.436C169.707 127.763 172.681 126.445 173.013 126.31C173.345 126.175 173.998 125.916 173.452 126.687C172.906 127.459 171.284 127.999 170.4 128.878C169.516 129.756 168.39 130.933 167.066 131.485C165.743 132.037 150.876 144.922 149.333 146.791C148.709 147.55 147.939 148.175 147.068 148.63C146.198 149.085 145.244 149.359 144.265 149.438C143.054 149.438 134.692 146.02 134.692 146.02L130.609 135.146Z" fill="white" stroke="#263238" stroke-linecap="round" stroke-linejoin="round"/>
<path d="M152.701 138.812L145.256 143.627L130.615 135.146L134.686 146.049C134.686 146.049 143.06 149.467 144.259 149.467C145.239 149.388 146.192 149.114 147.063 148.659C147.933 148.204 148.704 147.579 149.328 146.82C149.891 146.144 152.143 144.044 154.931 141.6L152.701 138.812Z" fill="#263238" stroke="#263238" stroke-linecap="round" stroke-linejoin="round"/>
<path d="M132.372 149.021L151.422 140.434L155.494 150.125L134.68 158.493L132.372 149.021Z" fill="#DD4D32" stroke="#263238" stroke-linecap="round" stroke-linejoin="round"/>
<path d="M131.775 135.321C131.775 135.321 127.332 129.171 124.713 128.253C122.095 127.335 118.693 130.872 117.781 136.233C116.869 141.594 122.359 157.947 122.489 158.471C122.618 158.995 132.062 160.825 132.062 160.825C132.062 160.825 137.029 147.355 136.77 143.559C136.511 139.764 131.775 135.321 131.775 135.321Z" fill="#263238" stroke="#263238" stroke-linecap="round" stroke-linejoin="round"/>
<path d="M119.611 261.782C119.611 261.782 118.721 261.63 118.721 262.188V268.777H119.414L120.174 264.671C120.174 264.671 120.799 264.671 122.184 265.922C123.57 267.172 124.234 268.292 125.135 268.917C126.036 269.542 129.471 269.481 130.023 269.481C130.575 269.481 130.823 268.687 130.249 268.596C129.674 268.506 126.487 266.704 125.794 266.152C125.101 265.601 122.534 262.21 121.7 261.782C120.867 261.355 119.611 261.782 119.611 261.782Z" fill="#263238" stroke="#263238" stroke-linecap="round" stroke-linejoin="round"/>
<path d="M118.389 194.309C118.389 194.309 120.833 210.533 118.913 217.336C116.993 224.138 115.427 227.624 115.951 232.506C116.475 237.389 120.833 252.216 120.833 255.876C120.833 259.537 118.952 259.959 119.611 261.806C120.062 263.056 123.446 264.774 124.679 266.165C125.913 267.556 127.298 268.783 127.996 268.783C128.694 268.783 130.249 269.482 130.249 268.609C130.249 267.736 128.858 267.91 128.334 266.688C127.81 265.466 124.601 259.582 124.539 257.678C124.437 254.688 123.795 232.872 124.668 226.593C125.541 220.315 127.636 207.931 128.509 204.795C129.382 201.658 129.9 194.85 129.9 194.85L118.389 194.309Z" fill="white" stroke="#263238" stroke-linecap="round" stroke-linejoin="round"/>
<path d="M122.489 158.471C122.489 158.471 113.681 167.481 112.808 175.084C112.245 180.005 114.498 202.114 114.498 202.114H132.681C132.681 202.114 133.335 174.932 132.681 169.959C132.285 166.922 132.067 163.865 132.028 160.803L122.489 158.471Z" fill="#DD4D32" stroke="#263238" stroke-linecap="round" stroke-linejoin="round"/>
<path d="M125.102 266.649L127.039 263.805L128.43 265.816L127.039 268.631C127.039 268.631 126.07 268.592 125.102 266.649Z" fill="#263238" stroke="#263238" stroke-linecap="round" stroke-linejoin="round"/>
<path d="M124.443 132.724C124.443 132.724 121.909 132.285 120.146 135.591C118.384 138.896 124.882 163.449 124.989 164.44C125.096 165.431 145.476 155.3 145.825 155.3C146.174 155.3 150.116 154.968 151.327 154.09C152.182 153.446 152.993 152.747 153.754 151.995C153.754 151.995 156.395 150.345 155.511 150.125C154.627 149.906 149.125 151.004 149.125 151.004C149.125 151.004 151.22 149.247 151.22 148.802C151.22 148.357 151 147.923 150.229 148.363C149.457 148.802 146.704 150.784 146.152 151.775C145.86 152.256 145.638 152.775 145.493 153.318C145.493 153.318 133.38 156.404 131.724 156.731C130.069 157.057 129.083 157.294 129.083 157.294L127.084 137.894" fill="#263238"/>
<path d="M124.443 132.724C124.443 132.724 121.909 132.285 120.146 135.591C118.384 138.896 124.882 163.449 124.989 164.44C125.096 165.431 145.476 155.3 145.825 155.3C146.174 155.3 150.116 154.968 151.327 154.09C152.182 153.446 152.993 152.747 153.754 151.995C153.754 151.995 156.395 150.345 155.511 150.125C154.627 149.906 149.125 151.004 149.125 151.004C149.125 151.004 151.22 149.247 151.22 148.802C151.22 148.357 151 147.923 150.229 148.363C149.457 148.802 146.704 150.784 146.152 151.775C145.86 152.256 145.638 152.775 145.493 153.318C145.493 153.318 133.38 156.404 131.724 156.731C130.069 157.057 129.083 157.294 129.083 157.294L127.084 137.894" stroke="#263238" stroke-linecap="round" stroke-linejoin="round"/>
<path d="M129.066 157.282L127.698 139.358" stroke="white" stroke-width="0.75" stroke-linecap="round" stroke-linejoin="round"/>
<path d="M122.956 133.417C122.956 133.417 120.45 134.476 120.185 138.964C119.921 143.452 123.35 157.829 123.35 157.829" stroke="white" stroke-width="0.75" stroke-linecap="round" stroke-linejoin="round"/>
<path d="M132.529 156.545C132.664 157.508 132.98 159.733 133.177 161.231C138.921 158.584 145.6 155.301 145.791 155.301C146.118 155.301 150.082 154.969 151.293 154.09C152.148 153.447 152.959 152.747 153.72 151.995C153.72 151.995 156.361 150.345 155.477 150.126C154.593 149.906 149.091 151.004 149.091 151.004C149.091 151.004 151.186 149.247 151.186 148.802C151.186 148.358 150.966 147.924 150.195 148.363C149.423 148.802 146.67 150.785 146.118 151.776C145.826 152.256 145.604 152.776 145.459 153.319C145.459 153.319 135.762 155.791 132.529 156.545Z" fill="white" stroke="#263238" stroke-linecap="round" stroke-linejoin="round"/>
<path d="M114.441 177.831C114.441 177.831 118.321 185.878 119.757 188.463" stroke="#263238" stroke-width="0.75" stroke-linecap="round" stroke-linejoin="round"/>
<path d="M282.621 269.199H64.3792V271.373H282.621V269.199Z" fill="#263238" stroke="#263238" stroke-linecap="round" stroke-linejoin="round"/>
</svg>
