<svg width="30" height="30" viewBox="0 0 30 30" fill="none" xmlns="http://www.w3.org/2000/svg">
<g clip-path="url(#clip0)">
<path d="M15 30.0001C23.2863 30.0001 30 23.2863 30 15.0001C30 6.71381 23.2863 5.72205e-05 15 5.72205e-05C6.71375 5.72205e-05 0 6.71381 0 15.0001C0 23.2863 6.71375 30.0001 15 30.0001ZM6.86375 14.6751L21.3263 9.09881C21.9975 8.85631 22.5837 9.26256 22.3662 10.2776L22.3675 10.2763L19.905 21.8776C19.7225 22.7001 19.2338 22.9001 18.55 22.5126L14.8 19.7488L12.9912 21.4913C12.7912 21.6913 12.6225 21.8601 12.235 21.8601L12.5013 18.0438L19.4512 11.7651C19.7537 11.4988 19.3837 11.3488 18.985 11.6138L10.3963 17.0213L6.69375 15.8663C5.89 15.6113 5.8725 15.0626 6.86375 14.6751V14.6751Z" fill="white"/>
</g>
<defs>
<clipPath id="clip0">
<rect width="30" height="30" fill="white"/>
</clipPath>
</defs>
</svg>
