<svg width="20" height="20" viewBox="0 0 20 20" fill="none" xmlns="http://www.w3.org/2000/svg">
<g clip-path="url(#clip0)">
<path d="M12.6663 0C12.4823 0 12.333 0.149336 12.333 0.33332C12.333 0.517304 12.4823 0.666639 12.6663 0.666639C16.3423 0.666639 19.333 3.6573 19.333 7.33331C19.333 7.51729 19.4823 7.66663 19.6663 7.66663C19.8507 7.66663 19.9996 7.51729 19.9996 7.33331C19.9996 3.28968 16.71 0 12.6663 0Z" fill="white"/>
<path d="M12.6663 2C12.4823 2 12.333 2.14934 12.333 2.33332C12.333 2.5173 12.4823 2.66664 12.6663 2.66664C15.2396 2.66664 17.333 4.75996 17.333 7.33331C17.333 7.51729 17.4823 7.66663 17.6663 7.66663C17.8507 7.66663 17.9996 7.51729 17.9996 7.33331C17.9996 4.39269 15.6073 2 12.6663 2Z" fill="white"/>
<path d="M12.6663 4C12.4823 4 12.333 4.14934 12.333 4.33332C12.333 4.5173 12.4823 4.66664 12.6663 4.66664C14.1367 4.66664 15.333 5.86296 15.333 7.33331C15.333 7.51729 15.4823 7.66663 15.6663 7.66663C15.8507 7.66663 15.9996 7.51729 15.9996 7.33331C15.9996 5.49535 14.5043 4 12.6663 4Z" fill="white"/>
<path d="M18.0377 12.5079C17.1307 12.3886 16.2364 12.1659 15.3797 11.8469C14.5501 11.5359 13.6074 11.7366 12.9761 12.3596L11.9224 13.4109C9.71305 12.1082 7.86739 10.2662 6.56173 8.06125L7.61606 7.00926C8.23938 6.38028 8.44071 5.4386 8.12907 4.61095C7.80942 3.75564 7.58642 2.86329 7.46642 1.95494C7.30673 0.828924 6.33173 -0.00474634 5.19208 -0.000410411H2.27576C2.20775 -0.000410411 2.13975 0.0029099 2.07244 0.00892551C1.46674 0.0636129 0.91842 0.350605 0.528733 0.816619C0.139085 1.28295 -0.0456022 1.87295 0.00974931 2.48326C0.332757 5.51927 1.38275 8.47824 3.04443 11.0382C4.5531 13.4076 6.60544 15.4559 8.97708 16.9599C11.5324 18.6139 14.4834 19.6616 17.5177 19.9906C17.5864 19.9966 17.6554 19.9995 17.7247 19.9995C17.7247 19.9995 17.7287 19.9995 17.731 19.9995C18.9871 19.9942 20.0044 18.9702 19.9994 17.7179V14.8116C20.0257 13.6592 19.1844 12.6693 18.0377 12.5079ZM19.3327 14.7996C19.3327 14.8022 19.3327 14.8052 19.3327 14.8079V17.7196C19.336 18.6056 18.6164 19.3295 17.7287 19.3332C17.6767 19.3312 17.6267 19.3312 17.5827 19.3272C14.6581 19.0099 11.8074 17.9979 9.33641 16.3985C7.04442 14.9449 5.0631 12.9675 3.60509 10.6775C1.99873 8.20293 0.984748 5.34493 0.673068 2.41794C0.634397 1.9906 0.764748 1.57396 1.04041 1.24427C1.31608 0.914588 1.70373 0.711619 2.1324 0.672948C2.18006 0.668612 2.22775 0.666268 2.27572 0.666268H5.19505C5.2004 0.666268 5.20572 0.666268 5.21107 0.666268C6.00974 0.666268 6.69407 1.25795 6.80571 2.04525C6.93204 3.00025 7.16704 3.94224 7.5047 4.84524C7.72505 5.43056 7.5827 6.09591 7.14368 6.53891L5.90904 7.7709C5.80236 7.87723 5.78036 8.04125 5.8547 8.17192C7.26735 10.6519 9.3277 12.7079 11.812 14.1176C11.9427 14.1919 12.106 14.1692 12.212 14.0636L13.4453 12.8329C13.891 12.3933 14.5587 12.2516 15.146 12.4716C16.05 12.8083 16.9937 13.0433 17.9473 13.1686C18.7574 13.2826 19.353 13.9836 19.3327 14.7996Z" fill="white"/>
<path d="M5.00004 1.33337H2.27571C2.2477 1.33337 2.22004 1.3347 2.19239 1.33736C1.85274 1.36802 1.64504 1.56068 1.55172 1.67236C1.47672 1.76201 1.3054 2.00669 1.3354 2.34271C1.46141 3.52505 1.68938 4.67536 2.01372 5.76204C2.05704 5.90637 2.18938 6.00004 2.33305 6.00004C2.36473 6.00004 2.39672 5.99571 2.42871 5.98606C2.60504 5.9334 2.70539 5.74774 2.6527 5.57141C2.34004 4.52407 2.12004 3.41407 1.99903 2.27775C1.99137 2.1931 2.04637 2.12009 2.06336 2.09943C2.09071 2.06677 2.15168 2.01044 2.27571 2.00009H4.99937C4.99972 2.00009 4.99972 2.00009 4.99972 2.00009C5.18371 2.00009 5.33304 1.85111 5.33304 1.66708C5.33336 1.48302 5.18402 1.33337 5.00004 1.33337Z" fill="white"/>
<path d="M18.333 14.6667C18.149 14.6667 17.9997 14.816 17.9997 15L17.9994 17.7196C17.9997 17.7946 17.971 17.8653 17.9187 17.9179C17.8663 17.9706 17.797 17.9996 17.731 17.9999L17.7004 17.9993C16.5614 17.8756 15.4607 17.6563 14.429 17.3473C14.2534 17.2943 14.0671 17.3946 14.014 17.5709C13.961 17.7473 14.0614 17.9329 14.2377 17.9859C15.3081 18.3066 16.449 18.534 17.6344 18.6626C17.6617 18.6653 17.7174 18.6666 17.7254 18.6666C17.9778 18.6656 18.2144 18.5666 18.3921 18.3876C18.5697 18.2083 18.6671 17.9703 18.6661 17.7183L18.6664 15C18.6664 14.816 18.5171 14.6667 18.333 14.6667Z" fill="white"/>
</g>
<defs>
<clipPath id="clip0">
<rect width="20" height="20" fill="white"/>
</clipPath>
</defs>
</svg>
